<?xml version="1.0" encoding="UTF-8"?>
<svg xmlns="http://www.w3.org/2000/svg" xmlns:xlink="http://www.w3.org/1999/xlink" width="48pt" height="48pt" viewBox="0 0 48 48" version="1.1">
<g id="surface1786221">
<path style=" stroke:none;fill-rule:nonzero;fill:rgb(100%,100%,100%);fill-opacity:1;" d="M 24 43.398438 L 5 31.101562 L 5 16.898438 L 24 4.601562 L 43 16.898438 L 43 31.101562 Z M 9 28.898438 L 24 38.601562 L 39 28.898438 L 39 19.101562 L 24 9.398438 L 9 19.101562 Z M 9 28.898438 "/>
<path style=" stroke:none;fill-rule:nonzero;fill:rgb(100%,100%,100%);fill-opacity:1;" d="M 24 32.398438 L 5.800781 19.601562 L 8.199219 16.398438 L 24 27.601562 L 39.800781 16.398438 L 42.199219 19.601562 Z M 24 32.398438 "/>
<path style=" stroke:none;fill-rule:nonzero;fill:rgb(100%,100%,100%);fill-opacity:1;" d="M 39.898438 31.601562 L 24 20.601562 L 8.101562 31.601562 L 5.898438 28.398438 L 24 15.800781 L 42.101562 28.398438 Z M 39.898438 31.601562 "/>
<path style=" stroke:none;fill-rule:nonzero;fill:rgb(100%,100%,100%);fill-opacity:1;" d="M 22 8 L 26 8 L 26 18.101562 L 22 18.101562 Z M 22 29.898438 L 26 29.898438 L 26 40 L 22 40 Z M 22 29.898438 "/>
</g>
</svg>
