<svg xmlns="http://www.w3.org/2000/svg" width="48" height="48" xmlns:v="https://vecta.io/nano"><path fill="#ff3d00" d="M44 24c0 11-9 20-20 20S4 35 4 24 13 4 24 4s20 9 20 20z"/><g fill="#fff"><path d="M26 16.2c-.6-.6-1.5-.9-2.5-1.1-.4-.5-1-1-1.9-1.5-1.6-.8-3.5-1.2-5.3-.9h-.4c-.1 0-.2.1-.4.1.2 0 1 .4 1.6.6-.3.2-.8.2-1.1.4h-.1l-.2.2c-.1.2-.2.4-.2.5 1.3-.1 3.2 0 4.6.4-1.1.1-2.1.4-2.8.8-.5.3-1 .6-1.3 1.1-1.2 1.3-1.7 3.5-1.3 5.9.5 2.7 2.4 11.4 3.4 16.3l.3 1.6s3.5.4 5.6.4c1.2 0 3.2.3 3.7-.2-.1 0-.6-.6-.8-1.1-.5-1-1-1.9-1.4-2.6-1.2-2.5-2.5-5.9-1.9-8.1.1-.4.1-2.1.4-2.3 2.6-1.7 2.4-.1 3.5-.8.5-.4 1-.9 1.2-1.5.7-2.3-.9-6.4-2.7-8.2z"/><path d="M24 42c-9.9 0-18-8.1-18-18S14.1 6 24 6s18 8.1 18 18-8.1 18-18 18zm0-34C15.2 8 8 15.2 8 24s7.2 16 16 16 16-7.2 16-16S32.8 8 24 8z"/></g><path fill="#0277bd" d="M19 21.1c-.6 0-1.2.5-1.2 1.2 0 .6.5 1.2 1.2 1.2.6 0 1.2-.5 1.2-1.2-.1-.6-.6-1.2-1.2-1.2zm.5 1.1c-.2 0-.3-.1-.3-.3 0-.2.1-.3.3-.3s.3.1.3.3c0 .2-.2.3-.3.3zm7.3-1.6c-.6 0-1 .5-1 1 0 .6.5 1 1 1 .6 0 1-.5 1-1s-.5-1-1-1zm.4.9c-.1 0-.3-.1-.3-.3 0-.1.1-.3.3-.3.1 0 .3.1.3.3s-.1.3-.3.3zm-7.9-2.6s-.9-.4-1.7.1c-.9.5-.8 1.1-.8 1.1s-.5-1 .8-1.5c1.1-.5 1.7.3 1.7.3m8.1-.1s-.6-.4-1.1-.4c-1 0-1.3.5-1.3.5s.2-1.1 1.5-.9c.6.2.9.8.9.8"/><path fill="#8bc34a" d="M23.3 35.7s-4.3-2.3-4.4-1.4 0 4.7.5 5 4.1-1.9 4.1-1.9l-.2-1.7zm1.7-.1s2.9-2.2 3.6-2.1c.6.1.8 4.7.2 4.9s-3.9-1.2-3.9-1.2l.1-1.6z"/><path fill="#689f38" d="M22.5 35.7c0 1.5-.2 2.1.4 2.3.6.1 1.9 0 2.3-.3s.1-2.2-.1-2.6c-.1-.3-2.6 0-2.6.6"/><path fill="#ffca28" d="M22.3 26.8c.1-.7 2-2.1 3.3-2.2l2.8-.3 4.7-1.3c.8-.4 4.1.2 1.8 1.5-1 .6-3.7 1.6-5.7 2.2-1.9.6-3.1-.6-3.8.4-.5.8-.1 1.8 2.2 2 3.1.3 6.2-1.4 6.5-.5s-2.7 2-4.6 2.1c-1.8 0-5.6-1.2-6.1-1.6s-1.2-1.3-1.1-2.3"/></svg>