<svg xmlns="http://www.w3.org/2000/svg" width="50" height="50" fill="#000" viewBox="0 0 50 50"><path d="M 25 2 C 12.308594 2 2 12.308594 2 25 C 2 37.691406 12.308594 48 25 48 C 37.691406 48 48 37.691406 48 25 C 48 12.308594 37.691406 2 25 2 Z M 15.6875 9.3125 C 17.085938 9.3125 18.605469 9.695313 20.40625 10.59375 C 22.207031 11.492188 23.511719 12.398438 24.3125 13.5 C 25.613281 13.800781 26.699219 14.300781 27.5 15 C 28.5 15.898438 29.292969 17.292969 30.09375 19.09375 C 30.792969 20.894531 31.1875 22.601563 31.1875 24 C 31.1875 24.398438 31.101563 24.804688 31 25.40625 C 31.300781 25.304688 32 25.113281 33 24.8125 C 34 24.511719 34.886719 24.199219 35.6875 24 C 36.488281 23.800781 37.09375 23.6875 37.59375 23.6875 C 38.09375 23.6875 38.59375 23.804688 39.09375 23.90625 C 39.59375 24.007813 39.90625 24.289063 39.90625 24.6875 C 39.90625 25.289063 38.492188 26.085938 35.59375 27.1875 C 32.695313 28.289063 30.898438 28.8125 30 28.8125 C 29.800781 28.8125 29.40625 28.789063 28.90625 28.6875 C 28.40625 28.585938 27.988281 28.59375 27.6875 28.59375 L 26.59375 28.59375 C 26.492188 28.59375 26.40625 28.6875 26.40625 28.6875 C 26.40625 28.789063 26.3125 28.898438 26.3125 29 C 26.3125 29.699219 26.789063 30.289063 27.6875 30.6875 C 28.585938 31.085938 29.511719 31.3125 30.3125 31.3125 C 31.113281 31.3125 32.195313 31.199219 33.59375 31 C 34.992188 30.800781 36.207031 30.6875 36.90625 30.6875 C 37.40625 30.6875 37.6875 30.914063 37.6875 31.3125 C 37.6875 31.914063 36.804688 32.5 34.90625 33 C 33.105469 33.5 31.710938 33.8125 30.8125 33.8125 C 29.113281 33.8125 26.988281 33.113281 24.1875 31.8125 C 24.085938 32.210938 24.09375 32.695313 24.09375 33.09375 C 24.09375 34.695313 24.511719 36.492188 25.3125 38.59375 L 25.5 38.59375 C 25.898438 38.492188 26.1875 38.695313 26.1875 39.09375 C 28.289063 37.492188 29.800781 36.6875 30.5 36.6875 C 31 36.6875 31.3125 38.113281 31.3125 40.8125 C 31.3125 42.3125 31.09375 43 30.59375 43 C 29.894531 43 28.710938 42.613281 26.8125 41.8125 C 27.113281 42.414063 27.613281 43.210938 28.3125 44.3125 C 28.65625 44.804688 28.953125 45.203125 29.1875 45.5625 C 27.835938 45.835938 26.429688 46 25 46 C 22.410156 46 19.945313 45.511719 17.65625 44.65625 C 17.382813 43.378906 17.042969 41.667969 16.5 39.1875 C 14.898438 32.1875 13.8125 26.914063 13.3125 23.3125 C 13.210938 22.613281 13.09375 21.894531 13.09375 21.09375 C 13.09375 18.792969 13.707031 16.988281 14.90625 15.6875 C 16.105469 14.386719 17.886719 13.613281 20.1875 13.3125 C 19.488281 13.113281 18.699219 13 17.5 13 C 16.699219 13 15.414063 13.113281 13.8125 13.3125 C 13.8125 13.113281 13.894531 12.914063 14.09375 12.8125 L 14.6875 12.5 C 14.886719 12.5 15.199219 12.40625 15.5 12.40625 C 15.800781 12.40625 15.992188 12.3125 16.09375 12.3125 C 16.695313 12.210938 17.414063 11.898438 18.3125 11.5 C 17.011719 11.101563 15.8125 10.90625 14.8125 10.90625 C 14.613281 10.90625 14.3125 10.898438 13.8125 11 C 13.414063 11.101563 13.113281 11.09375 12.8125 11.09375 L 12.5 11.09375 L 13.5 9.6875 C 13.601563 9.6875 14 9.601563 14.5 9.5 C 15 9.398438 15.488281 9.3125 15.6875 9.3125 Z M 27.8125 17.40625 C 26.914063 17.40625 26.386719 17.800781 26.1875 18.5 C 26.386719 18.101563 27.011719 17.90625 27.8125 17.90625 C 28.210938 17.90625 28.710938 18.011719 29.3125 18.3125 C 29.113281 17.8125 28.511719 17.40625 27.8125 17.40625 Z M 17.3125 17.90625 C 16.941406 17.949219 16.613281 18.085938 16.3125 18.3125 C 15.8125 18.613281 15.59375 19 15.59375 19.5 C 15.59375 19.699219 15.585938 19.898438 15.6875 20 C 15.6875 19.5 15.898438 19.113281 16.5 18.8125 C 17.101563 18.414063 17.59375 18.3125 18.09375 18.3125 C 18.292969 18.3125 18.601563 18.398438 19 18.5 C 18.699219 18.101563 18.289063 17.90625 17.6875 17.90625 C 17.5625 17.90625 17.4375 17.890625 17.3125 17.90625 Z M 28.59375 20.6875 C 28.292969 20.6875 27.988281 20.792969 27.6875 21.09375 C 27.386719 21.394531 27.3125 21.699219 27.3125 22 C 27.3125 22.300781 27.386719 22.605469 27.6875 22.90625 C 27.988281 23.207031 28.292969 23.3125 28.59375 23.3125 C 28.992188 23.3125 29.300781 23.207031 29.5 22.90625 C 29.800781 22.605469 29.90625 22.300781 29.90625 22 C 29.90625 21.601563 29.800781 21.292969 29.5 21.09375 C 29.199219 20.792969 28.894531 20.6875 28.59375 20.6875 Z M 29.09375 21.3125 C 29.292969 21.3125 29.5 21.394531 29.5 21.59375 C 29.5 21.792969 29.394531 22 29.09375 22 C 28.894531 22 28.8125 21.894531 28.8125 21.59375 C 28.8125 21.394531 28.894531 21.3125 29.09375 21.3125 Z M 18.5 21.40625 C 18.101563 21.40625 17.800781 21.605469 17.5 21.90625 C 17.199219 22.207031 17 22.605469 17 22.90625 C 17 23.304688 17.199219 23.605469 17.5 23.90625 C 17.800781 24.207031 18.101563 24.40625 18.5 24.40625 C 18.898438 24.40625 19.199219 24.207031 19.5 23.90625 C 19.800781 23.605469 20 23.207031 20 22.90625 C 20 22.507813 19.800781 22.207031 19.5 21.90625 C 19.199219 21.605469 18.800781 21.40625 18.5 21.40625 Z M 19.1875 22 C 19.488281 22 19.59375 22.105469 19.59375 22.40625 C 19.59375 22.605469 19.488281 22.8125 19.1875 22.8125 C 18.886719 22.8125 18.8125 22.707031 18.8125 22.40625 C 18.8125 22.105469 18.886719 22 19.1875 22 Z"/></svg>