<svg xmlns="http://www.w3.org/2000/svg" width="48" height="48" xmlns:v="https://vecta.io/nano"><path fill="#ffc107" d="M43.61 20.083H42V20H24v8h11.303c-1.65 4.657-6.08 8-11.303 8-6.627 0-12-5.373-12-12s5.373-12 12-12c3.06 0 5.842 1.154 7.96 3.04l5.657-5.657C34.046 6.053 29.268 4 24 4 12.955 4 4 12.955 4 24s8.955 20 20 20 20-8.955 20-20c0-1.34-.138-2.65-.39-3.917z"/><path fill="#ff3d00" d="M6.306 14.69l6.57 4.82C14.655 15.108 18.96 12 24 12c3.06 0 5.842 1.154 7.96 3.04l5.657-5.657C34.046 6.053 29.268 4 24 4 16.318 4 9.656 8.337 6.306 14.69z"/><path fill="#4caf50" d="M24 44c5.166 0 9.86-1.977 13.41-5.192l-6.2-5.238A11.91 11.91 0 0 1 24 36c-5.202 0-9.62-3.317-11.283-7.946L6.195 33.08C9.505 39.556 16.227 44 24 44z"/><path fill="#1976d2" d="M43.61 20.083H42V20H24v8h11.303a12.04 12.04 0 0 1-4.087 5.571l.003-.002 6.2 5.238C36.97 39.205 44 34 44 24c0-1.34-.138-2.65-.39-3.917z"/></svg>