<svg xmlns="http://www.w3.org/2000/svg" width="1178" height="1547" fill="none" fill-rule="evenodd" xmlns:v="https://vecta.io/nano"><path d="M24.856 856.22l43.215 4.243c69 5.272 137.952 16.284 206.414 22.893 1.705-2.775 5.04-2.318 7.067-.4 6.83-.598 14.488-5.82 20.676-.388.2-.028.402-.062.605-.08 11.018-21.154 18.634-43.718 26.026-66.31 4.718-13.89 11.066-27.337 22.796-36.664 20.018-13.9 65.887-42.09 89.393-40.904.4-4.2 2.352-8.55 5.573-11.353-7.1-12.108 21.3-20.01 23.292-18.605-1.283-40.454 17.74-75.586 59.686-83.642 37.578-7.833 91.027-9.15 111.237 30.136 2.222-.25 24.93-.37 27.13-.123 3.416-4.328 40.933 36.685 25.556 50.964 137.472 60.832 215.64 53.574 253.69 224.6 5.144 16.066 5.52 33.646 10.95 49.353 19.325 45.142 35 93.202 38.9 142.322 9.418 2.4 10.508 19.03-.408 21.44-4.168.92-7.654 2.17-10.694 4.55 2.376 40.25-7.355 132.2-13.487 131.9-12.503 39.8-68.27 51.04-107.753 37.05 6.806 12.8 0 20.87 0 27.7-142.067 5.38-297.402 2.28-439.43 9.65-18.168-.26-37.277 4.47-55.196 1.75-10.928-2.62-10.946-19.8.138-21.94l-48.435-10.52c1.083-.4-19.965-14.4-35.873-40.58-14.807-29.28-4.73-64.6-11.44-96.46-52.4-4.3-105.67-6.12-157.498-15-7.066 21.15-37.657-4.14-47.38-14.32.012-.01.024-.03.036-.04-4.706-1.3-8.48-5.7-8.606-10.93-3.3-4.7-3.993-11.36-.828-15.92-14.505-83.72-36.618-169.2-44.61-253.723-2.825-.625-5.486-1.865-7.742-3.774l.183-.183c-3.822-4.262-4.565-11.62 1.807-15.24 5.14-2.925 9.432-2.018 15-1.47z" fill="#fff"/><path d="M638.218 646.03c-4.28-10.76-18.75-6.578-17.136 4.727.965 6.77 4.673 13.923 8.003 19.857 2.71 4.83 5.804 9.546 9.998 13.167a410.4 410.4 0 0 1-23.159 20.053c-8.67 6.954-17.786 13.364-27.2 19.255-8.263 5.167-16.9 9.744-24.688 15.64-7.242 5.48-13.84 12.072-17.197 20.677-3.577 9.163-2.022 18.626.61 27.783l.303 1.036c2.7 9.072 7.348 20.008.9 28.555-3.288 4.352-8.068 7.433-12.195 10.912-3.668 3.092-7.11 6.454-10.268 10.066-6.885 7.873-12.485 16.732-16.02 26.604l-.316.897c-3.03 8.738-5.243 19.443-1.15 28.023 1.174 2.46 4.96 1.66 5.62-.735 1.487-5.425 1.41-11.107 2.656-16.608 1.298-5.722 3.456-11.153 6.276-16.292 5.455-9.94 12.844-18.432 21.573-25.61l2.613-2.125c6.81-5.59 13.066-11.52 14.448-20.773 1.48-9.898-2.486-19.328-5.035-28.697-1.776-6.53-2.356-12.787-.437-18.688 2.346 3.83 5.546 7.465 8.077 10.707l15.205 19.312c5.203 6.596 10.278 13.295 15.11 20.168l6.433 9.264c1.603 2.327 3.838 4.652 5.585 7.026-.424 1.27-.392 2.733.378 3.772 9.265 12.523 22.447-13.607 25.885-20.21 7.002-13.445 12.212-27.728 19.236-41.17 7.28-13.935 15.567-27.497 24.805-40.218 5.588-7.695 11.85-14.922 16.962-22.86 12.042 10.923 27.888 18.245 42.443 24.885 15.992 7.295 32.606 13.254 49.002 19.582l4.844 1.88c28.25 11.03 57.193 23.147 80.675 42.737 27.594 23.02 43.918 55.108 56.07 88.334 14 38.252 25.564 77.535 36.353 116.796l15.685 60.5c4.34 17.84 7.938 35.85 12.96 53.5-10.188-.36-21.81 3.58-30.508 4.72-39.645 5.2-78.756 13.47-116.186 27.8-4.623 1.77-5.96 6.38-4.954 10.13l-7.997-2.27c2.922-4.47 1.527-12.48 1.298-17.44l-.014-.34c-.237-6.62-.954-13.24-1.42-19.84-.885-12.58-2.038-25.07-3.57-37.58l-.39-3.13-4.917-40.9-.224-1.55c.91-3.48 1.967-6.9 3.078-10.33 2.96-9.1 7.137-17.68 10.798-26.5.432-1.042-1.047-1.64-1.738-1.016-6.2 5.576-11.125 12.656-15.082 20.056l-.2-1.04-.45-2.23c-1.114-5.42-2.468-11.12-5.792-15.52-.354-.47-1.054-.56-1.39 0-3.182 5.4-3.538 12.2-4.027 18.34-.554 6.93-.624 13.95-.526 20.9.19 13.6 1.148 27.2 1.91 40.78.748 13.32 2.217 26.48 4.11 39.68l.36 2.48c.925 6.28 1.683 12.64 2.904 18.88l.345 1.7c.653 3.1 1.054 7.45 2.354 11.08l-100.456-27.4-72.774-19.26c-1.28-2.3-2.874-4.47-4.864-6.4-6.554-6.35-15.24-9.2-23.206-4.3-.648.4-.702 1.42 0 1.8a142.8 142.8 0 0 1 4.558 2.58l-14.567-3.94c-10.888-2.96-21.906-6.64-33.05-8.7-20.526-10.13-42.603-17.47-64.225-24.72l-2.548-.86c-11.072-3.78-22.523-8-33.962-10.1-8.374-1.53-18.204.32-21.57 8.9-4.263 2.8-8.274 6.12-12.145 9.36-2.798 2.35-5.48 4.85-8.21 7.28l-.503.44c-2.23 1.93-3.996 3.23-4.544 6.3-.282 1.6.73 3.74 2.69 3.53 6.003-.64 10.885-7.6 14.956-11.76 3.146-3.2 6.316-6.53 9.188-10.06 1.673.9 3.967.74 5.032-1.27 5.525-10.47 20.658-3.22 29.03-.74l11.994 3.56 17.976 5.38 49.41 15.18c-1.485 1.63-1.28 4.53 1.54 5.64 12.99 5.1 27.244 7.73 40.74 11.23l25.55 6.67c1.46 2.37 2.5 5.05 2.952 8.16 1.625 11.46-1.51 24.67-4.56 35.75l-.46 1.65c-2.51 8.9-6.2 19.83-13.883 25.45-1.875 1.37-4.263 2.33-6.67 2.54l-45.122-23.2c-2.787-1.43-5.363.5-5.988 2.8-5.305-.87-10.6-2.24-15.42-3.88-8.1-2.75-14.425-8-22.02-11.63-14.694-7.02-29.7 1.6-42.856 8.16l-3.032 1.5c-5.9 2.87-18.174 8.37-21.005.54-2.738-7.58 5.918-15.68 11.51-19.1 6.664-4.06 14.424-6.24 21.956-8.05a137.42 137.42 0 0 1 13.032-2.5c4.968-.7 10.098-.6 14.88-2.2 2.377-.8 2.742-4.58 0-5.2-7.362-1.68-16.15.15-23.832 2.02l-4.016 1c-7.74 1.9-15.556 4.28-22.606 8.07-5.127 2.76-10.538 6.95-14.073 12.07-3.07-2.85-6.9-2.75-10.87-1.7l-2.16.6c-3.567 1-6.458 1.67-9.93.98l-1.438-7.58c-4.946-24.84-10.37-49.58-16.356-74.2-10.323-42.45-22.27-84.44-35.737-125.997l-1.352-4.154c-3.106-9.505-5.606-19.86-10.614-28.593-4.736-8.256-12.324-13.012-21.34-15.53-10.23-2.858-20.982-4.354-31.42-6.284l-6.993-1.26c1.97-3.557 3.44-7.595 4.763-10.693l.232-.537c2.845-6.487 5.4-13.092 7.868-19.73l1.845-4.992c4.456-12.02 9.055-23.842 15.32-35.083 6.593-11.83 15.34-21.504 26.245-29.51 22.232-16.324 49.03-24.65 70.592-42.095.884-.715-.25-1.937-1.146-1.485-14.56 7.318-30.278 12.295-45.423 18.252l-2.987 1.18c-11.97 4.746-24.126 9.913-34.487 17.598-11.55 8.57-20.648 19.212-27.485 31.868-6.74 12.475-11.05 26.438-15.804 39.763l-1.272 3.55c-1.918 5.324-3.898 10.632-6.168 15.813-1.802 4.113-5.164 8.81-6.693 13.507l-12.547-2.152c-90.658-15.14-182.33-24.038-274.204-26.64-3.594-.102-5.454 3.33-4.924 6.465L25.478 1015l11.497 68.3 6.158 34.55c1.517 9.32 2.62 18.72 5.224 27.82 2.336 8.17 5.922 16.04 11.8 22.27 6.347 6.72 15.207 9.97 24.124 11.5 22.638 3.9 45.86 5.5 68.68 8.1l121.507 13.83c-1.775 16.14-1.908 32.03-1.093 48.37l.464 8.9c.38 7.17.833 14.36 1.863 21.45 1.29 8.9 5.363 16.45 11.36 23.1 5.507 6.1 12.198 11.32 18.705 16.3 6.755 5.18 13.735 10.2 21.678 13.4l1.03.4c6.968 2.72 20.04 6.94 29.563 5.4-1.245 6.24-3.654 12.95-1.52 19.12.99 2.87 4.74 4.3 7.035 1.86 4.548-4.84 4.904-11.22 5.98-17.53 1.12-6.56 2.087-13.15 2.946-19.75 1.66-12.77 2.952-25.65 3.347-38.53a469.88 469.88 0 0 0-.463-39.67c-.366-6.78-.82-13.56-1.68-20.3l-1.17-8.6a104.14 104.14 0 0 0-.517-3.13l10.906 1.23c16.723 1.87 33.454 3.56 50.294 3.82a5.43 5.43 0 0 0 4.532-2.2c1.068 1.74 2.93 2.98 5.593 2.97 23.518-.08 45.42-7.78 66.8-16.84l32.195-14.05c10.08-4.23 20.854-7.25 30.7-12.02l25.845 13.56c.2.67.433 1.3.69 1.83 1.683 3.43 5 5.3 8.39 6.7a20.21 20.21 0 0 0 9.903 1.43l78.45 41.02 120.28 62.4c13.59 6.82 28.182 13.73 43.262 18.88.27 3.82.1 7.53-.22 11.57l-.077.9c-.45 4.77-1.413 10.76 2.417 14.16 1.992 1.76 5.55 1.77 6.906-.9 2.46-4.83.25-12.45-.528-17.7-.276-1.87-.613-3.8-1.11-5.66 17.29 5.15 35.1 7.65 52.695 4.76 17.13-2.8 30.396-13.6 41.09-26.8 11.288-13.94 19.31-30.17 23.612-47.58 4.898-19.8 5.218-40.26 5.103-60.55-.122-21.6-.92-43.32-3.548-64.78 2.878-.67 6.07-1.26 8.978-1.06 1.44 2.3 4.235 3.28 6.757 2.98 5.5 6.06-8.434 12.25-12.884 13.8-1.546.54-1.38 3.05.402 2.97l1.123-.05c6.877-.37 13.98-1.54 18.03-7.93 3.24-5.13 2.26-11.2-1.6-15.38-2.55-24.13-8.65-47.63-14.326-71.17-5.57-23.1-11.765-46.05-18.332-68.895l-2.943-10.222c-10.34-35.813-21.145-71.915-35.406-106.304-7.12-17.172-15.325-34.027-26.445-49-10.366-13.957-22.603-25.9-36.67-36.1-26.224-19.018-56.995-30.51-87.23-41.457l-1.353-.5-46.786-17.55c-13.7-5.432-26.822-12.32-40.456-17.833.443-.804.87-1.618 1.282-2.44l.252.212a2.7 2.7 0 0 0 .133.099c1.37.95 3.4.483 4.52-.584 3.2-3.01 2.1-6.354-.02-9.477l-.277-.397c-2.605-3.65-4.928-7.51-7.332-11.29l-1.505-2.366c-4.035-6.318-8.276-12.68-13.656-17.902-2.492-2.42-5.22-4.23-8.1-5.58.247-.523-1.92-1.592-2.534-1.054-9.157-3.352-19.692-2.65-29.675-1.725M280.36 1202l12.73 1.45 72.47 7.97c.078 1.74.29 3.44.327 4.75l.487 20.28a469.02 469.02 0 0 1-.919 40.63c-.864 13.1-2.003 26.22-3.77 39.23l-.363 2.6-.2 1.37c-1.443.14-2.862.83-4.04 2.24-2.574 3.07-11.897.08-15.537-1.2-5.988-2.13-11.626-5.73-16.828-9.34-5.08-3.53-9.656-7.64-14.052-11.97l-3.597-3.56c-3.578-3.56-7.16-7.35-9.352-11.82-2.973-6.07-3.357-13.5-4.23-20.12-1.073-8.13-2.35-16.26-3.702-24.34M649.94 1116.7l1.32.35 143.985 38.06 71.577 17.54 3.86.97c18.808 4.75 37.842 10.48 52.245 24.12.53.5 1.303-.27.803-.8-15.523-16.53-37.6-23.53-58.796-29.6l-11.76-3.33c28.828-10.28 58.1-19.23 88.07-25.6 7.714-1.64 15.518-2.84 23.226-4.5 5.376-1.15 10.626-2.82 15.945-4.2l4.184-1.05.055 13.23c.07 18.73.037 37.45-.92 56.18l-.18 3.47c-1.114 20.85-2.854 42.13-10.25 61.78-6.01 15.98-15.588 31.02-28.114 42.66-6.338 5.88-13.153 10.47-21.576 12.73-7.822 2.1-16.016 2.34-24.056 1.78-38.566-2.7-72.895-23.64-106.396-41l-164.447-85.02c1.483-1 2.88-2.18 4.15-3.5 7.355-7.6 11.235-18 13.783-28.07 2.713-10.72 4.335-22.22 4.523-33.3m-71.02 75.8a.72.72 0 0 0-1.068.62c-.17 4.2 2.146 8.32 3.876 12.1l.183.4c2.1 4.68 4.402 9.3 6.782 13.83 4.756 9.07 9.7 18.05 14.86 26.9 10.374 17.8 21.903 34.85 35.53 50.35 3.077 3.5 8.14-.98 6.164-4.75-9.523-18.18-20.625-35.34-32.052-52.35L597.205 1227l-7.358-10.54-1.512-2.07M11.227 862.253c48.137 1.454 96.218 4.594 144.126 9.516 44.555 4.576 88.946 10.668 133.087 18.263l27.625 4.954 5.516 1.037c9.2 1.744 20.436 2.464 28.625 7.38 8.635 5.182 10.968 16.012 13.84 24.943l9.872 31.595c12.72 41.92 24.337 84.2 34.702 126.77l14.52 63.58c4.273 18.84 8.988 37.47 13.914 56.12a5.48 5.48 0 0 0-2.251-1.02c-24.46-5.2-49.43-7.47-74.257-10.35l-79.467-9.2-170.144-19.14c-10.034-1.13-20.784-1.28-30.55-3.97-16.603-4.58-20.494-23.15-23.28-37.94l-.084-.45c-8.398-44.67-15.084-89.74-22.916-134.53m398.988 164.66c6.606-.44 15.647-6.5 20.66-6.06-2.63 4.42-3.82 9.46-2.302 14.83 4.22 14.97 23.303 7.23 32.495 2.65 7.537-3.75 14.814-8.34 23.158-10.1 9.453-2 15.857 1.77 23.842 6.1 6.56 3.56 13.703 6.12 21.05 7.44 3.906.7 7.616.78 11.32.5a4.63 4.63 0 0 0 .76.5l1.96 1.03c-8.858.4-17.88 3.14-26.124 5.64-8.543 2.6-16.93 5.72-25.27 8.92l-8.206 3.15c-20.242 7.76-41.196 15.12-63.102 15.05-1.575 0-2.865.44-3.88 1.15m30.603-97.72c-6.526-.8-12.55.06-17.764 4.3-6.29 5.13-10.514 13.63-19.555 14.2-2.636.16-3.248 3.87-.628 4.64 6.73 2 12.178-1.65 16.763-6.38l3.083-3.22c4.53-4.7 8.71-8.32 16.398-8.04 8.234.3 16.482 2.2 24.662 3.17 9.267 1.1 18.532 2.03 27.828 2.84.432.04.505-.64.1-.74l-10.412-2.6m-34.177-34.85l-1.076-.1c-9.477-.92-18.143-.95-26.607 4.15l-1.623.98c-7.63 4.64-15.936 10.1-20.707 17.6-.78 1.23.51 2.68 1.815 2.37 9.17-2.2 15.876-8.94 23.588-13.97 8.656-5.66 17.597-4.72 27.466-3.85 9.555.85 19.106 2.02 28.567 3.62 8.89 1.5 17.8 3.85 26.8 4.6l-.002-.02c1.026 0 1.61-1.54.565-2.07-9.114-4.55-19.67-6.7-29.582-8.78m-317.07-98.233c.916-4.382-4.473-6.415-6.97-2.938l-.53.733c-5.396 7.395-13.2 16.678-12.803 26.078-4.743.1-9.66 3-11.51 7.27-.855 1.98-1.144 4.33-.956 6.76-4.31.33-9.013 3.17-11.65 5.92-4.37 4.57-4.715 11.03-1.58 16.37 6.834 11.64 21.763 15.88 34.367 16.82l.45.04c13.017.9 31.775.65 40.7-10.52 8.6-10.78-.906-19.5-10.664-24.24 2.54-2.32 3.855-5.65 2.62-9.15-2.172-6.17-9.84-8.55-14.173-12.84-5.282-5.23-8.772-12.398-7.38-19.893m-7.073 9.067c1.435 6.236 4.962 11.946 9.874 16.476a39.47 39.47 0 0 0 6.116 4.59l.263.15c1.937 1.1 6.7 3.13 6.333 5.57-.377 2.5-8.136 6.43-10.25 6.43-.48 0-.753.76-.262.97 3.833 1.7 7.18 2.42 10.928.63 2.503 2.56 4.936 5.2 7.345 7.83 4.26 4.64 2.802 9.54-2.232 13-8.088 5.55-20.384 5.4-29.82 5-9.5-.4-19.653-2.52-27.072-8.85l-.323-.3c-4.033-3.58-7.716-9.66-1.54-13.12 2.42-1.35 5.03-1.27 7.327-1.93 2.15 4.2 5.635 7.6 9.888 8.24 3.437.53 5.804-3.8 2.677-5.86l-.702-.44c-3.926-2.5-7.277-6.37-7.188-11.4.06-3.5 4.933-7.9 8.108-4.6l.145.15c2.656 3 7.335-.78 5.588-4.1l-.084-.15m624.41-191.846c.012-.75-1.042-1.03-1.41-.38-6.165 10.85-9.388 24.152-12.673 36.108-3.44 12.523-6.217 25.173-8.712 37.917-5.053 25.804-7.746 51.46-7.928 77.76-.026 3.755 6.1 4.754 6.688.907l11.78-76.767 6.6-38.503m-55.383-18.14c.454-1.497-1.723-1.997-2.28-.63-12.374 30.384-16.564 64.818-8.62 96.873 1.216 4.903 8.395 2.78 7.478-2.063m-156.188-121.18c.063-1.12-1.39-1.297-1.94-.526-5.863 8.264-8.295 19.33-18.582 23.6-5.136 2.133-10.915 1.76-15.453 5.363-3.033 2.41-5.36 6.21-3.083 9.86.735 1.18 2.79 1.77 3.787.49 1.455-1.866 2.225-4.1 4.2-5.5 2.787-1.973 6.546-2.095 9.742-3.022 4.134-1.2 7.778-3.297 10.762-6.415m-87.388-161.682c-.604-.307-1.184-.11-1.57.412-.55.745-.484 1.47.192 1.98-.903 1.846-1.97 6.47-2.122 7.143l-1.96 8.15-3.987 16.444c-1.47 5.797-3.224 11.532-5.174 17.184-.125.366-.264.74-.41 1.118l-.222.573-.055-.087c-.396-.626-1.22-.188-1.123.474.1.603.212 1.203.315 1.807l-.204.54c-1.276 3.434-2.15 7.05.19 10.08.876 1.133 1.84 1.804 3.04 2.004 1.925 6.348 4.34 12.577 6.925 18.56l.758 1.747c3.803 8.73 7.86 17.344 13.915 24.775 6.612 8.114 15.706 13.654 21.466 22.544 2.68 4.136 4.543 8.484 6.056 13.154l.57 1.773c1.074 3.303 2.313 6.505 5.41 8.443.988.617 2.47.42 3.266-.422 6.353-6.722-.297-19.274-4.128-25.78-5.324-9.05-13.03-14.84-20.747-21.668-8.318-7.36-13.623-17.204-18.755-26.903l-9.372-17.98c3.337-2.95 4.406-8.813 5.537-12.887l.103-.366c1.87-6.525 3.354-13.22 4.292-19.943.903-6.465 1.28-12.837 1.04-19.34l-.07-1.656m-15.6 18.896c.738-1.012-.483-2.157-1.495-1.946-6.152 1.273-12.166 4.997-17.687 8l-.6.32c-4.408 2.378-8.842 5.3-11.156 9.91-2.517 5.02-2.3 10.802-1.967 16.257l.033.51c.42 6.542.488 13.34 1.872 19.764.708 3.287 3.685 4.214 6.23 3.437 3.03 9.565 11.536 16.613 17.75 24.16 7.923 9.624 6.432 22.616 5.604 34.206-.335 4.692 5.5 6.027 8.505 3.523l6.926-5.754 3.454-2.89 2.926-2.508 1.444-1.276c.64-.573 3.466-3.73 4.293-3.862 2-.318 6.755 4.958 8.382 6.613l.206.206c3.063 3.004 5.83 6.237 8.408 9.665.474.63 1.4.107 1.062-.62-2.31-4.95-4.995-9.68-8.183-14.11l-.645-.882c-2.12-2.86-4.97-7.91-8.714-8.754-4.572-1.03-9.138 3.556-12.465 6.102l-.21.16-4.71 3.614c.164-8.63-.926-17.348-5.38-24.785-3.14-5.244-7.845-9.128-11.87-13.635-4.482-5.02-6.823-11.186-10.88-16.413-.523-.672-1.243-1.034-2.023-1.15-.156-4.202-.774-8.445-1.252-12.6l-.14-1.244c-.483-4.516-1.625-10.032.585-14.26 2.088-3.995 6.88-6.815 10.426-9.525l2.896-2.248m208.022-55.746c1.852 1.072 3.584 2.405 5.154 4.07 4.944 5.247 8.48 11.776 11.92 18.057l5.505 10.177 2.492 4.37c.4.668 1.55 1.996 2.126 2.815-.64.895-1.3 1.777-1.974 2.65-.257.333-17.992 19.66-24.175 27.223-9.466 11.586-17.928 23.824-25.162 36.922-7.084 12.827-12.477 26.408-19.04 39.483-3.285 6.547-6.953 13.047-11.63 18.712-.18.22-.37.43-.556.648-1.784-4.823-6.357-9.986-8.603-12.95l-.2-.28c-5.093-6.868-10.472-13.53-15.968-20.078a540.32 540.32 0 0 0-15.439-17.583l-1.983-2.153c-3.673-3.97-8.34-9.908-13.716-12.744a25.74 25.74 0 0 1 2.01-3.046c5.038-6.586 12.16-11.365 19.187-15.677l4.557-2.773c17.177-10.472 34.088-21.43 49-35.034 7.9-7.2 15.67-14.74 22.302-23.138l2.346-2.97m-16.807-21.885c8.044.676 16.73.515 24.165 3.137-6.61 6.25-12.9 12.997-19.344 19.352-.574-4.298-1.748-8.543-2.743-12.734" fill="#000"/><path d="M393.627 488.423c2.17-19.088-.64-58.985-.827-61.41-1.19-15.323 5.987-75.834 19.555-70.26 22.76-18.024 53.076-22.004 81.423-23.905 58.882-3.95 121.52 5.117 166.988 44.756 22.485 20.585 44.375 50.525 42.616 81.7 20.43 29.55 49.23 70.084 23.775 104.63-8.652 11.037-22.403 15.147-33.272 23.506-21.863 17.64-35.58 42.955-57.65 60.49-58.47 52.56-157.754 63.538-215.2 3.757-44.423-43.295-37.24-108.068-29.426-163.263 5.253-37.108-2.22 37.238 2.018 0z" fill="#fff"/><g fill="#000"><path d="M572.436 251.905c-15.747-3.18-31.917-5.157-48-4.562l-1.24.05c-12.1.483-27.423 1.553-37.98 8.592-.607-.6-1.584-.923-2.47-.5-12.544 6-26.34 10.32-39.547 14.622-13.147 4.282-26.786 7.1-40.565 8.248-5.185.43-9.62 6.03-6.34 11.05l2.3 3.618-3.8-.397c-4.17-.42-8.334 4.032-8.087 8.093a74.94 74.94 0 0 0 .837 7.57c-1.588-.033-3.167.205-4.692.85-7.723 3.262-7.186 12.465-6.608 19.466.8 9.716 4.434 20.007 11.18 27.28-5.036 5.232-8.6 11.48-10.728 18.902-1.542 5.42-2.4 11.2-1.977 16.832l.135 1.7c.524 6.122 1.566 12.9 5.968 17.303 2.26 2.27 5.044 3.098 7.698 2.836-1.605 14.107-2.633 28.296-3.602 42.434l-.454 6.757c-2.16 32.676-3.784 65.564-3.36 98.293.394 30.587 6.436 60.276 25.2 85.1 17.08 22.614 41.603 39.285 69.345 45.623 14.95 3.42 30.213 3.663 45.345 1.483 7.335-1.06 14.72-2.684 21.68-5.248 7.706-2.845 13.244-7.033 18.43-13.3 2.453-2.977 1.272-9.314-3.6-8.72-7.386.896-14.128 1.976-21.2 4.16l-1.014.32c-7.053 2.26-14.356 3.945-21.73 4.662-15.102 1.463-30.435-.01-44.903-4.592-23.555-7.467-43.842-24.108-56.846-45.017-15.434-24.784-17.18-52.92-16.957-81.417.24-31.27 1.256-62.56 2.916-93.8l.282-5.206 2.47-48.247c.232-5.045.585-10.13 1.222-15.167 5.82-3.4 11.035-8.113 14.435-13.916 6.83 2.826 14.012 4.864 20.62 6.5 15.307 3.766 31.2 4.68 46.78 2.322a137.82 137.82 0 0 0 12.841 4.577l3.528 1.537c10.492 4.5 21.135 8.295 32.2 11.08l2.72.678c5.828 1.438 12.16 2.853 18.363 3.298a26.93 26.93 0 0 0 3.32 1.019c5.648 1.372 11.5 1.806 17.3 1.322 5.64-.475 9.715-6.176 6.608-11.514l-6.87-11.656c8.04 3.35 16.343 6.136 24.716 8.497 8.454 2.382 17.03 4.4 25.614 6.236l13.78 2.826c3.278.696 8.312 1.06 10.987 3.22 2.954 2.372 3.792 7.902 4.912 11.312a292 292 0 0 1 4.116 13.382 276.75 276.75 0 0 1 6.163 27.297c1.594 9.213 2.664 18.517 3.26 27.852.594 9.324.332 18.7 1.3 27.993.515 4.925 5.8 7.457 9.704 4.016l1.377-1.224.68-.622c3.34-3.028 6.58-6.237 9.25-9.85a32.38 32.38 0 0 0 1.382-2.07c.07 0 .13-.02.202-.07l.74-.558c8.16-6.074 21.8-13.994 29.745-3.902 2.535 3.215 3.833 7.3 4.9 11.258l1.9 7.068c1.223 4.615 2.374 9.255 3.047 13.976 1.523 10.576.757 22.766-6.518 31.243-2.905 3.4-6.9 5.812-11.378 6.448-2.493.343-4.954-.08-7.426-.393-2.512-.313-4.932.2-7.445-.05-3.995-.393-5.74 4.4-4.247 7.397.807 1.615 1.756 3.007 2.835 4.188-.867.747-1.695 1.554-2.492 2.402-2.36.757-4.478 2.38-6.063 4.53-1.28 1.735-1.946 3.623-2.058 5.6a25.32 25.32 0 0 0-.373 1.513l-2.164 3.514-1.427 2.28c-5.508 8.678-11.622 16.025-19.218 22.947-7.314 6.66-15.252 12.625-22.123 19.77l-.8.85c-6.405 6.752-13.157 14.925-10.65 24.743.645 2.523 4.167 4.34 6.466 2.634 7.395-5.5 11.118-14.2 17.392-20.85 6.457-6.862 13.6-13.028 20.085-19.87 6.125-6.458 10.957-13.774 14.598-21.827 1.453 1.604 3.57 2.745 6.506 3.2 5.044.756 9.746-2.2 11.945-6.57 1.413.626 2.854 1.2 4.308 1.635 7.647 2.34 12.458-6.166 9.573-12.453-1.543-3.37-3.47-6.297-5.86-8.76 7.476-1.03 15.082-4.894 19.995-9.718 12.327-12.12 14.02-30.335 11.247-46.53-1.473-8.588-4.014-17.277-7.314-25.34-.574-1.403-1.2-2.816-1.865-4.2.373-.01.757-.17 1-.484 2.23-3.048 4.942-5.54 6.597-8.95 1.524-3.128 3.217-6.297 4.42-9.556 2.47-6.67 3.68-14.2 4.488-21.253 1.665-14.44 1.02-28.8-1.2-43.14-3.762-24.44-12.85-47.83-26.237-68.355a11.64 11.64 0 0 0 2.078-1.392l.322-.28.522-.472c3.82-3.458 3.5-9.94 0-13.443l-1.102-1.105c-1.396-1.387-2.6-2.487-4.855-3.997-.333-.223-.673-.433-1.017-.63 1.18-2.18 1.6-4.733.768-7.547-2.865-9.805-16.968-9.458-25.907-5.182-9.9-8.83-20.855-16.493-32.74-22.7-28.308-14.774-60.316-25.077-91.57-31.374zm146.327 258.237c-5.286-1.726-12.308 1.897-17.06 4.077-6.023 2.765-11.147 6.852-16.1 11.17-2.47 2.16-2.914 5.7-2.3 8.7l.193.928c.656 3.22 4.247 5.752 7.425 5.66 6.648-.18 9.814-5.923 13.578-10.787.443.787.998 1.513 1.685 2.058l.464.363c1.562 1.2 3.283 2.14 5.347 2.05a9.93 9.93 0 0 0 4.156-1.12c3.228-1.706 4.65-5.883 3.773-9.284-.545-2.14-1.796-3.815-3.43-4.975l.6-.417c1.304-.907 2.492-1.864 3.42-3.276l.2-.334h-.08c1-1.735.352-4.097-1.877-4.823zM469.778 611.695c7.432 2.153 15.408 2.345 22.983.122 6.87-2.017 13.926-6.456 18.983-12.33 4.492-5.217 7.4-11.558 7.287-18.327-.013-.773-.3-1.418-.715-1.92-.457-.54-1.096-.9-1.78-1.07-.704-.165-1.448-.107-2.082.18a2.76 2.76 0 0 0-1.373 1.351l-2.328 3.006c-6.25 7.718-12.3 13.486-21.696 15.555-5.098 1.122-10.2.625-14.86-1.088-5-1.834-9.52-5.058-13.064-9.183-1.6-1.865-3.5-2.626-5.34-2.64-2.094-.014-4.164.96-5.724 2.515-1.532 1.53-2.56 3.608-2.652 5.782-.082 1.908.54 3.9 2.196 5.68 5.453 5.857 12.52 10.148 20.166 12.364zm.23-96.667c-7.618 4.632-19.226 15.433-11.03 26.916 9.646 10.125 23.534-1.484 30.38-6.734 6.346-4.07 13.476 6.396 7.588 11.147-49.455 36.627-69.525-30.118-30.8-36.775 4.264-.734 5.848 4.013 3.853 5.446zm71.26-20.38c2.448-1.567 5.328-2.104 8.52-.652 2.495 1.135 6.87 4.918 9.914 9.9 2.083 3.402 3.56 7.393 3.253 11.55a2.61 2.61 0 0 0 .848 2.203c.444.416 1.086.72 1.84.817a4.78 4.78 0 0 0 1.939-.174c1.108-.346 1.694-1.065 1.915-1.652 2.132-5.663 1.213-11.983-1.176-17.685-3.224-7.694-9.08-14.14-12.916-16.218-6.565-3.557-14.3-3.72-20.884-.097-5.596 3.084-9.096 8.064-12.576 13.14l-2.233 3.202c-1.52 2.1-1.672 4.2-1.083 5.993.652 1.987 2.316 3.664 4.396 4.54 1.923.8 4.155.925 6.13.092 1.668-.704 3.2-2.076 4.168-4.404 1.632-3.92 4.35-8.247 7.946-10.547h0zm-124.35 8.723c1.677.874 3 1.137 4.85.58a6.9 6.9 0 0 0 2.841-1.698c.8-.8 1.358-1.77 1.58-2.86.544-2.686 2.014-5.2 4.108-6.84 1.8-1.4 4.05-2.144 6.555-1.725 2.704.452 5.28 2.187 7.054 4.232.593.684 1.058 1.462 1.525 2.234.875 1.443 1.724 2.785 2.93 3.846.457.403 1.146.682 1.813.682a2.75 2.75 0 0 0 .808-.125c2.692-2.703 3.2-4.752 3.122-6.786-.1-2.132-.93-4.3-2.3-6.305-3.185-4.724-9.233-8.598-13.314-9.476-5.6-1.2-11.14.24-15.6 3.364-4.58 3.213-7.972 8.202-9.03 13.824-.255 1.354-.146 2.815.37 4.082.504 1.24 1.382 2.3 2.67 2.97zm112.024-59.097c3.354 3.27 7.324 3.776 11.34 4.226 2.232.253 4.013.456 5.766.852 4.82 1.088 9.582 2.727 13.927 5.087 4.542 2.467 9.492 5.442 13.054 9.254.846.907 1.645 1.858 2.444 2.812l2.17 2.515c.85.927 1.657 1.9 2.46 2.868.496.818.594 1.02.694 1.23a31.13 31.13 0 0 0 .525 1.045c.274.517.595 1.083.93 1.597.56.94.86 1.197 1.118 1.313.43.2.837.286 1.233.235.37-.048.72-.227 1.065-.518 1.722-1.456 2.23-3.844 2.178-6.38-.08-3.847-1.498-8.107-2.806-10.726-3.04-6.085-7.258-12.4-12.33-16.952-5.787-5.183-12.117-9.108-19.4-11.812-4.52-1.68-9.75-3.224-14.674-3.03-3.543.14-6.926 1.194-9.72 3.825-1.715 1.615-2.54 3.913-2.54 6.2 0 2.342.856 4.697 2.552 6.35zM410.096 474.2a1.84 1.84 0 0 0 .837.736c.345.15.73.195 1.098.133a1.96 1.96 0 0 0 .993-.483 1.85 1.85 0 0 0 .558-.964c2.227-9.784 6.552-17.064 15.78-21.758 4.54-2.3 9.76-3.776 14.703-4.946 1.436-.34 2.954-.56 4.482-.784 4.8-.7 9.614-1.5 12.736-5.373 1.882-2.333 2.67-5.317 2.225-8.045-.42-2.57-1.92-4.925-4.65-6.336-6.792-3.513-15.232-.066-22.1 2.87l-1.497.638c-6.707 2.832-12.824 6.57-17.853 11.916-4 4.242-7.686 10.512-9.175 16.962-1.24 5.366-.947 10.844 1.852 15.434z"/><path d="M559.882 618.793c-8.168-19.14-25.994-33.208-46.518-38.35-15.072-3.767-30.9-3.647-46.253-2.152-8.05.778-16.683 1.415-24.27 4.406-6.478 2.555-11.757 7.383-15.726 13.052-4.725 6.717-7.94 14.404-10.196 22.284a98.97 98.97 0 0 0-.902 3.383c.98 5.945 3.064 11.005 8.57 14.743 5.372 3.65 11.78 5.143 18.17 5.673.626-.3 1.232-.6 1.787-.927 9.957-5.702 16.965-19.176 29.532-17.352 11.215 1.628 18.598 15.744 25.267 24.022 21.4 2.495 42.8-3.94 60.22-16.186.885-4.2.936-8.418.32-12.595m-158.416-14.52a82.48 82.48 0 0 1 6.426-13.85c8.453-14.506 21.43-26.064 36.833-32.67 36.44-15.608 83.6-4.606 113.018 20.992 10.052 8.75 20.216 21.6 23.3 35.44.918.182 1.784.66 2.498 1.333 21.26-13.4 43.156-26.274 60.3-44.836 12.443-13.486 21.097-29.446 26.396-46.985.433-1.443 2.76-1.232 2.7.365l-.06 1.12c.222-.687 1.27-.333 1.35.334 2.852 21.305 6.418 43.893 3.134 65.3-1.965 12.78-7.768 22.135-15.525 32.237-8.312 10.828-17.722 20.9-27.343 30.56-6.105 6.13-12.482 13.202-19.958 17.698-8.694 5.222-18.557 9.194-27.836 13.223-9.44 4.112-19.02 7.9-28.783 11.203-19.515 6.607-39.684 11.173-60.206 13.174-16.432 1.596-35.2 3.334-50.958-2.85-12.07-4.738-21.812-13.304-29.54-23.6-8.412-11.223-15.062-24.007-18.74-37.5-3.82-14.003 2.22-38.443 3.024-40.7m-21.764-83.088c12.248 12.66 32.694 16.293 49 9.503 41.842-17.487 21.362-72.03-10.907-86.678-4.03-1.005-9.415-3.4-14.325-3.93-.444-.218-1.4.413-2.58-.183-35.582 3.974-43.684 59.226-21.176 81.3m134.956 3.24c13.736 18.225 39.275 23.848 60.14 15.376 41.222-16.24 26.6-64.606-1.602-83.568-59.577-22.393-84.178 34.586-58.54 68.192m89.36-40.384c.04-.018.077-.027.116-.045l-.652-.3.216.552c.106-.074.2-.16.32-.217m-252.675-19.7c3.364.007 8.222.56 11.007 2.894 6.865-23.163 32.2-44.6 54.25-28.968 17.356 5.583 30.236 17.966 37.556 34.43 13.198-7.853 33.95-4.5 45.396 5.886 7.495-24.776 25.942-33.45 47.9-34.732 23.965-3.926 47.85 19.356 55.304 38.033 6.197-.706 15.457-2.68 21.287 1.147 37.837-9.926 104-15.398 111.682-9.884 5.48 2.105 8.5 15.048.833 15.746-6.672-.948.78-9.484-5.947-10.415-35.836-2.222-70.624 4.997-106.08 8.026-3.165 4.26-13.394 5.685-18.85 3.973 8.594 31.683-9.958 53.238-37.756 59.695-43.042 9.9-80.5-28.627-69.235-68.7-13.04-6.5-28.036-6.2-42.24-2.792 23.735 87.38-116.95 83.46-94.977-8.46-14.623 7.276-17.798-4.42-10.127-5.888"/></g></svg>