<svg width="1178" height="1547" viewBox="0 0 1178 1547" fill="none" xmlns="http://www.w3.org/2000/svg">
<path fill-rule="evenodd" clip-rule="evenodd" d="M24.8563 856.22C39.2614 857.635 53.6665 859.048 68.0716 860.463C137.062 865.735 206.024 876.747 274.486 883.356C276.191 880.581 279.527 881.038 281.553 882.966C288.384 882.368 296.041 877.145 302.229 882.578C302.43 882.55 302.631 882.516 302.834 882.497C313.852 861.343 321.468 838.779 328.86 816.186C333.578 802.295 339.926 788.849 351.656 779.522C371.674 765.621 417.543 737.433 441.049 738.618C441.439 734.408 443.401 730.069 446.622 727.265C439.522 715.157 467.912 707.256 469.914 708.66C468.631 668.206 487.654 633.074 529.6 625.018C567.178 617.185 620.627 615.869 640.837 655.154C643.059 654.903 665.768 654.785 667.966 655.031C671.382 650.703 708.899 691.716 693.522 705.995C830.994 766.827 909.161 759.569 947.211 930.585C952.355 946.651 952.73 964.231 958.162 979.938C977.487 1025.08 993.161 1073.14 997.062 1122.26C1006.48 1124.67 1007.57 1141.29 996.654 1143.7C992.486 1144.62 989 1145.87 985.96 1148.25C988.336 1188.5 978.605 1280.45 972.473 1280.16C959.97 1319.97 904.202 1331.2 864.72 1317.21C871.526 1330.02 864.72 1338.08 864.72 1344.92C722.653 1350.3 567.318 1347.2 425.291 1354.57C407.123 1354.31 388.014 1359.04 370.095 1356.32C359.167 1353.7 359.149 1336.51 370.233 1334.38L321.798 1323.86C322.881 1323.45 301.833 1309.45 285.925 1283.28C271.118 1254 281.196 1218.67 274.486 1186.82C222.085 1182.53 168.816 1180.7 116.988 1171.82C109.922 1192.97 79.3311 1167.68 69.6075 1157.5C69.6197 1157.49 69.6318 1157.47 69.6439 1157.46C64.9381 1156.17 61.1644 1151.76 61.0382 1146.53C57.7381 1141.82 57.0453 1135.17 60.2101 1130.61C45.705 1046.89 23.592 961.4 15.5992 876.887C12.7737 876.262 10.1129 875.022 7.85692 873.113L8.03973 872.93C4.21756 868.668 3.47429 861.31 9.84627 857.689C14.9863 854.764 19.278 855.671 24.8563 856.22Z" fill="white"/>
<path fill-rule="evenodd" clip-rule="evenodd" d="M638.218 646.03C633.938 635.27 619.469 639.452 621.082 650.757C622.047 657.528 625.755 664.68 629.085 670.614C631.796 675.445 634.889 680.16 639.083 683.781C631.618 690.748 623.869 697.46 615.924 703.834C607.254 710.788 598.138 717.198 588.714 723.089C580.451 728.256 571.815 732.833 564.026 738.729C556.784 744.209 550.186 750.801 546.829 759.406C543.252 768.569 544.807 778.032 547.44 787.189L547.743 788.225C550.433 797.297 555.091 808.233 548.633 816.78C545.345 821.132 540.565 824.213 536.438 827.692C532.77 830.784 529.327 834.146 526.17 837.758C519.285 845.631 513.685 854.49 510.151 864.362L509.835 865.259C506.806 873.997 504.592 884.702 508.685 893.282C509.859 895.741 513.646 894.942 514.304 892.547C515.791 887.122 515.713 881.44 516.96 875.939C518.258 870.217 520.416 864.786 523.236 859.647C528.691 849.706 536.08 841.215 544.809 834.036L547.422 831.911C554.231 826.32 560.488 820.39 561.87 811.138C563.349 801.24 559.384 791.81 556.835 782.441C555.059 775.912 554.479 769.654 556.398 763.753C558.744 767.583 561.944 771.218 564.475 774.46C569.516 780.92 574.604 787.34 579.68 793.772C584.883 800.368 589.958 807.067 594.791 813.94C596.953 817.015 599.092 820.108 601.224 823.204C602.827 825.531 605.062 827.856 606.809 830.23C606.385 831.499 606.417 832.963 607.187 834.002C616.452 846.525 629.634 820.395 633.072 813.793C640.074 800.348 645.284 786.065 652.308 772.624C659.587 758.689 667.875 745.127 677.113 732.406C682.701 724.711 688.963 717.484 694.075 709.545C706.117 720.468 721.963 727.79 736.518 734.43C752.51 741.725 769.124 747.684 785.52 754.012L790.364 755.893C818.615 766.923 847.557 779.04 871.039 798.63C898.633 821.651 914.957 853.738 927.11 886.964C941.1 925.216 952.674 964.499 963.463 1003.76C968.985 1023.84 974.223 1044.02 979.148 1064.26C983.488 1082.1 987.086 1100.11 992.109 1117.76C981.921 1117.4 970.3 1121.34 961.601 1122.48C921.956 1127.67 882.845 1135.95 845.415 1150.28C840.792 1152.05 839.454 1156.66 840.461 1160.41C837.795 1159.66 835.131 1158.89 832.464 1158.14C835.386 1153.67 833.991 1145.66 833.762 1140.7L833.748 1140.36C833.511 1133.74 832.794 1127.12 832.329 1120.52C831.444 1107.94 830.291 1095.45 828.758 1082.94L828.367 1079.81C826.629 1066.2 825.345 1052.51 823.45 1038.92L823.226 1037.37C824.135 1033.89 825.193 1030.46 826.304 1027.04C829.263 1017.93 833.441 1009.36 837.102 1000.54C837.534 999.498 836.055 998.901 835.364 999.524C829.164 1005.1 824.239 1012.18 820.282 1019.58C820.213 1019.24 820.153 1018.89 820.081 1018.54L819.63 1016.31C818.516 1010.89 817.162 1005.19 813.838 1000.79C813.484 1000.32 812.784 1000.23 812.449 1000.79C809.267 1006.18 808.911 1013 808.422 1019.13C807.868 1026.06 807.798 1033.08 807.896 1040.03C808.087 1053.62 809.044 1067.24 809.807 1080.81C810.555 1094.13 812.024 1107.29 813.918 1120.49L814.278 1122.97C815.203 1129.25 815.961 1135.61 817.182 1141.85L817.527 1143.55C818.18 1146.64 818.581 1151 819.881 1154.63C786.451 1145.3 752.97 1136.18 719.425 1127.23C695.18 1120.76 670.911 1114.38 646.651 1107.97C645.371 1105.66 643.777 1103.5 641.787 1101.58C635.233 1095.23 626.548 1092.39 618.581 1097.28C617.933 1097.68 617.879 1098.7 618.581 1099.08C620.107 1099.91 621.637 1100.77 623.139 1101.66L608.572 1097.72C597.684 1094.76 586.666 1091.08 575.521 1089.02C554.995 1078.89 532.918 1071.55 511.296 1064.3L508.748 1063.44C497.676 1059.66 486.225 1055.44 474.786 1053.34C466.412 1051.81 456.582 1053.66 453.215 1062.24C448.952 1065.05 444.941 1068.36 441.07 1071.6C438.272 1073.95 435.589 1076.45 432.861 1078.88L432.358 1079.32C430.128 1081.25 428.362 1082.55 427.814 1085.63C427.532 1087.22 428.543 1089.37 430.505 1089.16C436.508 1088.52 441.39 1081.56 445.461 1077.4C448.607 1074.19 451.777 1070.87 454.649 1067.34C456.322 1068.25 458.616 1068.08 459.681 1066.07C465.206 1055.6 480.339 1062.85 488.712 1065.33L500.706 1068.89C506.703 1070.66 512.698 1072.45 518.682 1074.27C535.13 1079.27 551.497 1084.86 568.093 1089.45C566.608 1091.08 566.813 1093.98 569.634 1095.09C582.625 1100.19 596.878 1102.82 610.374 1106.32C618.896 1108.53 627.412 1110.76 635.925 1112.99C637.385 1115.36 638.435 1118.04 638.877 1121.15C640.502 1132.61 637.368 1145.82 634.316 1156.9L633.857 1158.55C631.348 1167.46 627.656 1178.38 619.974 1184C618.099 1185.37 615.711 1186.33 613.304 1186.54C598.266 1178.8 583.229 1171.06 568.182 1163.33C565.395 1161.9 562.819 1163.84 562.194 1166.14C556.889 1165.27 551.595 1163.9 546.774 1162.26C538.674 1159.51 532.349 1154.26 524.754 1150.63C510.06 1143.61 495.054 1152.24 481.898 1158.79L478.866 1160.28C472.966 1163.15 460.692 1168.65 457.861 1160.82C455.123 1153.24 463.779 1145.14 469.37 1141.73C476.034 1137.67 483.794 1135.49 491.326 1133.68C495.626 1132.64 499.979 1131.8 504.358 1131.18C509.326 1130.48 514.456 1130.59 519.239 1128.98C521.616 1128.18 521.981 1124.4 519.239 1123.78C511.877 1122.1 503.09 1123.93 495.407 1125.8L491.391 1126.79C483.651 1128.69 475.835 1131.07 468.785 1134.86C463.658 1137.62 458.247 1141.81 454.712 1146.93C451.642 1144.08 447.822 1144.18 443.842 1145.24L441.682 1145.84C438.115 1146.83 435.224 1147.51 431.753 1146.82C431.289 1144.3 430.819 1141.77 430.315 1139.24C425.369 1114.4 419.945 1089.66 413.959 1065.05C403.636 1022.6 391.689 980.609 378.222 939.053L376.87 934.899C373.764 925.394 371.264 915.038 366.256 906.306C361.52 898.05 353.932 893.294 344.916 890.775C334.685 887.917 323.934 886.421 313.497 884.491C311.169 884.061 308.834 883.652 306.504 883.23C308.473 879.673 309.943 875.635 311.267 872.537L311.499 872C314.344 865.513 316.899 858.908 319.367 852.269L321.212 847.277C325.668 835.258 330.267 823.435 336.531 812.194C343.124 800.363 351.872 790.69 362.776 782.685C385.008 766.361 411.805 758.035 433.368 740.59C434.252 739.875 433.119 738.653 432.222 739.105C417.662 746.423 401.944 751.4 386.799 757.357L383.812 758.537C371.842 763.283 359.686 768.45 349.325 776.135C337.775 784.705 328.677 795.347 321.84 808.003C315.101 820.478 310.79 834.441 306.036 847.766L304.764 851.316C302.846 856.64 300.866 861.948 298.596 867.129C296.794 871.242 293.432 875.938 291.903 880.636C287.722 879.911 283.541 879.183 279.356 878.484C188.698 863.343 97.0269 854.446 5.15215 851.844C1.55778 851.742 -0.30142 855.173 0.228201 858.309C9.04514 910.462 16.8805 962.794 25.4775 1014.99C29.2303 1037.77 33.0577 1060.53 36.9749 1083.28C38.9592 1094.8 41.2532 1106.29 43.1326 1117.83C44.6499 1127.15 45.7514 1136.55 48.3562 1145.65C50.6926 1153.82 54.2778 1161.69 60.1662 1167.92C66.5136 1174.64 75.3729 1177.89 84.2907 1179.42C106.929 1183.32 130.15 1184.91 152.972 1187.51L274.479 1201.34C272.704 1217.48 272.571 1233.37 273.386 1249.71L273.85 1258.62C274.23 1265.79 274.683 1272.98 275.713 1280.07C277.004 1288.98 281.076 1296.52 287.073 1303.17C292.58 1309.27 299.271 1314.49 305.778 1319.48C312.533 1324.66 319.513 1329.67 327.456 1332.87L328.486 1333.28C335.454 1336 348.525 1340.22 358.049 1338.68C356.804 1344.92 354.395 1351.63 356.53 1357.8C357.521 1360.67 361.269 1362.1 363.565 1359.66C368.113 1354.82 368.469 1348.44 369.546 1342.13C370.667 1335.57 371.633 1328.98 372.492 1322.38C374.152 1309.61 375.444 1296.73 375.839 1283.85C376.244 1270.63 376.088 1257.39 375.376 1244.18C375.01 1237.4 374.556 1230.62 373.695 1223.88C373.328 1221.01 372.953 1218.13 372.524 1215.27C372.368 1214.22 372.194 1213.18 372.007 1212.14L382.913 1213.37C399.636 1215.24 416.367 1216.93 433.207 1217.19C435.202 1217.22 436.736 1216.31 437.739 1214.99C438.807 1216.73 440.668 1217.97 443.332 1217.96C466.85 1217.88 488.751 1210.18 510.142 1201.12C520.924 1196.55 531.538 1191.6 542.337 1187.07C552.416 1182.84 563.191 1179.82 573.027 1175.05L598.872 1188.61C599.062 1189.28 599.305 1189.91 599.563 1190.44C601.246 1193.87 604.564 1195.74 607.952 1197.14C611.205 1198.49 614.573 1198.91 617.855 1198.57C637.456 1208.85 657.062 1219.11 676.681 1229.35L696.304 1239.59C735.401 1259.95 774.344 1280.65 813.688 1300.53L816.584 1301.99C830.173 1308.81 844.766 1315.72 859.846 1320.87C860.115 1324.69 859.945 1328.4 859.625 1332.44L859.548 1333.33C859.099 1338.1 858.135 1344.09 861.965 1347.49C863.957 1349.25 867.516 1349.26 868.871 1346.59C871.33 1341.76 869.122 1334.14 868.343 1328.89C868.067 1327.02 867.73 1325.1 867.232 1323.23C884.521 1328.38 902.333 1330.88 919.927 1327.99C937.056 1325.18 950.323 1314.38 961.018 1301.18C972.306 1287.24 980.327 1271.01 984.63 1253.6C989.528 1233.79 989.848 1213.34 989.733 1193.05C989.611 1171.44 988.812 1149.73 986.185 1128.27C989.063 1127.6 992.255 1127.01 995.163 1127.21C996.604 1129.52 999.398 1130.49 1001.92 1130.19C1007.41 1136.25 993.486 1142.44 989.036 1143.99C987.49 1144.53 987.656 1147.04 989.438 1146.96L990.561 1146.91C997.438 1146.54 1004.54 1145.37 1008.59 1138.98C1011.83 1133.85 1010.85 1127.78 1006.99 1123.6C1004.44 1099.47 998.341 1075.97 992.664 1052.43C987.094 1029.33 980.899 1006.38 974.332 983.535L971.389 973.313C961.05 937.5 950.244 901.398 935.983 867.009C928.862 849.837 920.658 832.982 909.538 818.009C899.172 804.052 886.935 792.109 872.868 781.909C846.644 762.891 815.873 751.4 785.639 740.452L784.286 739.962C768.618 734.293 752.989 728.556 737.5 722.413C723.801 716.981 710.678 710.094 697.044 704.58C697.487 703.776 697.914 702.962 698.326 702.14L698.578 702.352C698.621 702.386 698.665 702.419 698.711 702.451C700.082 703.401 702.101 702.934 703.231 701.867C706.421 698.856 705.341 695.513 703.211 692.39L702.934 691.993C700.329 688.343 698.006 684.484 695.602 680.702L694.097 678.336C690.062 672.018 685.821 665.657 680.441 660.434C677.949 658.014 675.221 656.204 672.331 654.855C672.578 654.332 670.411 653.263 669.797 653.801C660.64 650.449 650.105 651.151 640.122 652.076M280.359 1202L293.09 1203.45C307.096 1205.05 321.108 1206.59 335.121 1208.11L365.559 1211.42C365.637 1213.16 365.848 1214.86 365.886 1216.17C366.085 1222.92 366.233 1229.69 366.373 1236.45C366.655 1250 366.346 1263.56 365.454 1277.08C364.59 1290.19 363.451 1303.3 361.683 1316.31L361.32 1318.91L361.11 1320.28C359.667 1320.42 358.248 1321.11 357.069 1322.52C354.495 1325.59 345.172 1322.6 341.532 1321.31C335.544 1319.18 329.906 1315.58 324.704 1311.97C319.623 1308.44 315.048 1304.33 310.652 1300L307.055 1296.44C303.477 1292.88 299.895 1289.09 297.703 1284.62C294.73 1278.55 294.346 1271.11 293.474 1264.5C292.401 1256.37 291.123 1248.24 289.772 1240.16M649.939 1116.69L651.259 1117.04C699.229 1129.79 747.127 1142.91 795.244 1155.1C819.055 1161.13 842.98 1166.73 866.821 1172.64L870.681 1173.61C889.489 1178.36 908.523 1184.09 922.926 1197.73C923.457 1198.24 924.229 1197.46 923.729 1196.93C908.206 1180.4 886.13 1173.4 864.933 1167.34C861.015 1166.22 857.091 1165.12 853.172 1164.01C882 1153.73 911.282 1144.78 941.241 1138.4C948.955 1136.76 956.759 1135.56 964.467 1133.91C969.843 1132.76 975.093 1131.09 980.412 1129.71L984.596 1128.66L984.651 1141.89C984.721 1160.62 984.688 1179.34 983.732 1198.07L983.551 1201.54C982.437 1222.39 980.697 1243.67 973.301 1263.32C967.292 1279.3 957.713 1294.34 945.187 1305.98C938.849 1311.86 932.034 1316.45 923.611 1318.71C915.789 1320.81 907.595 1321.05 899.555 1320.49C860.989 1317.8 826.66 1296.85 793.159 1279.5C738.364 1251.12 683.563 1222.75 628.712 1194.48C630.195 1193.47 631.592 1192.3 632.862 1190.98C640.217 1183.38 644.097 1172.98 646.645 1162.91C649.358 1152.19 650.98 1140.69 651.168 1129.62M580.147 1205.43C579.662 1205.17 579.101 1205.5 579.079 1206.05C578.91 1210.24 581.225 1214.37 582.955 1218.15L583.138 1218.55C585.239 1223.23 587.54 1227.84 589.92 1232.38C594.676 1241.45 599.619 1250.43 604.779 1259.28C615.153 1277.08 626.682 1294.13 640.309 1309.63C643.386 1313.14 648.449 1308.65 646.473 1304.88C636.95 1286.7 625.848 1269.54 614.421 1252.53C608.7 1244.01 602.983 1235.49 597.205 1227.01C594.795 1223.47 592.354 1219.95 589.847 1216.47L588.335 1214.4M11.2273 862.253C59.3643 863.707 107.445 866.847 155.353 871.769C199.908 876.345 244.299 882.437 288.44 890.032C297.66 891.618 306.868 893.269 316.065 894.986L321.581 896.023C330.78 897.767 342.017 898.487 350.206 903.402C358.841 908.584 361.174 919.414 364.047 928.345C367.424 938.848 370.716 949.381 373.919 959.94C386.638 1001.86 398.256 1044.15 408.621 1086.71C413.766 1107.84 418.331 1129.09 423.141 1150.29C427.414 1169.13 432.129 1187.76 437.055 1206.41C436.448 1205.94 435.703 1205.58 434.804 1205.39C410.343 1200.18 385.373 1197.92 360.547 1195.04L358.144 1194.76C332.461 1191.74 306.778 1188.74 281.08 1185.85L110.936 1166.71C100.902 1165.58 90.152 1165.43 80.3868 1162.74C63.7841 1158.16 59.8926 1139.59 57.107 1124.8L57.0229 1124.35C48.6246 1079.68 41.9393 1034.61 34.1069 989.821M433.095 1154.48C439.701 1154.04 448.742 1147.99 453.754 1148.42C451.123 1152.84 449.935 1157.88 451.452 1163.25C455.671 1178.22 474.755 1170.48 483.947 1165.9C491.484 1162.15 498.761 1157.56 507.105 1155.81C516.558 1153.82 522.962 1157.58 530.947 1161.91C537.507 1165.47 544.65 1168.03 551.996 1169.35C555.902 1170.06 559.612 1170.13 563.316 1169.86C563.539 1170.04 563.79 1170.21 564.076 1170.36L566.035 1171.39C557.177 1171.79 548.154 1174.53 539.911 1177.03C531.368 1179.62 522.982 1182.75 514.64 1185.95L506.434 1189.1C486.192 1196.86 465.238 1204.22 443.332 1204.15C441.757 1204.15 440.467 1204.59 439.451 1205.3M470.054 1107.58C463.528 1106.78 457.504 1107.64 452.29 1111.88C446.001 1117.01 441.776 1125.51 432.735 1126.07C430.099 1126.23 429.487 1129.94 432.107 1130.71C438.836 1132.7 444.285 1129.06 448.87 1124.33L451.953 1121.11C456.484 1116.42 460.662 1112.79 468.351 1113.07C476.585 1113.37 484.833 1115.27 493.013 1116.24C502.28 1117.34 511.545 1118.27 520.841 1119.08C521.273 1119.12 521.346 1118.44 520.942 1118.34L510.53 1115.74M476.353 1080.89L475.277 1080.78C465.8 1079.86 457.134 1079.83 448.67 1084.93L447.047 1085.91C439.417 1090.55 431.111 1096.01 426.34 1103.52C425.559 1104.75 426.849 1106.2 428.155 1105.89C437.326 1103.69 444.031 1096.95 451.743 1091.92C460.399 1086.26 469.34 1087.2 479.209 1088.07C488.764 1088.92 498.315 1090.09 507.776 1091.69C516.667 1093.18 525.586 1095.54 534.566 1096.3L534.564 1096.28C535.59 1096.28 536.175 1094.74 535.129 1094.21C526.015 1089.66 515.46 1087.51 505.547 1085.43M188.476 987.197C189.392 982.815 184.003 980.782 181.505 984.259L180.974 984.992C175.578 992.387 167.774 1001.67 168.171 1011.07C163.428 1011.18 158.51 1014.06 156.662 1018.34C155.807 1020.32 155.518 1022.67 155.706 1025.1C151.395 1025.43 146.693 1028.27 144.057 1031.02C139.687 1035.59 139.342 1042.05 142.477 1047.39C149.311 1059.03 164.24 1063.27 176.844 1064.21L177.293 1064.25C190.31 1065.15 209.068 1064.9 217.994 1053.73C226.604 1042.95 217.088 1034.23 207.33 1029.49C209.87 1027.17 211.185 1023.84 209.949 1020.34C207.777 1014.17 200.109 1011.79 195.776 1007.5C190.494 1002.27 187.004 995.102 188.395 987.607M181.322 996.674C182.757 1002.91 186.284 1008.62 191.196 1013.15C193.074 1014.87 195.129 1016.41 197.312 1017.74L197.575 1017.89C199.512 1018.98 204.274 1021.02 203.908 1023.46C203.531 1025.97 195.772 1029.89 193.657 1029.89C193.176 1029.89 192.904 1030.65 193.395 1030.86C197.228 1032.56 200.575 1033.28 204.323 1031.49C206.826 1034.05 209.259 1036.7 211.668 1039.32C215.928 1043.96 214.47 1048.86 209.436 1052.32C201.348 1057.87 189.052 1057.73 179.615 1057.33C170.116 1056.92 159.962 1054.81 152.543 1048.48L152.22 1048.19C148.187 1044.61 144.504 1038.53 150.679 1035.07C153.098 1033.72 155.71 1033.8 158.006 1033.14C160.155 1037.35 163.641 1040.73 167.894 1041.38C171.331 1041.91 173.698 1037.58 170.571 1035.52L169.869 1035.08C165.943 1032.57 162.592 1028.71 162.681 1023.68C162.742 1020.19 167.614 1015.79 170.789 1019.07L170.934 1019.22C173.59 1022.22 178.269 1018.44 176.522 1015.12L176.438 1014.97M800.847 823.124C800.859 822.374 799.805 822.094 799.436 822.743C793.271 833.594 790.048 846.895 786.763 858.851C783.323 871.374 780.546 884.024 778.051 896.768C772.998 922.572 770.305 948.228 770.123 974.528C770.097 978.283 776.213 979.282 776.811 975.435C780.783 949.852 784.588 924.243 788.59 898.668C790.603 885.804 792.947 872.99 795.189 860.165M739.806 842.025C740.26 840.528 738.083 840.028 737.526 841.396C725.152 871.78 720.962 906.214 728.906 938.269C730.122 943.172 737.301 941.048 736.384 936.206M580.196 815.027C580.259 813.906 578.805 813.73 578.257 814.501C572.394 822.765 569.962 833.832 559.675 838.102C554.539 840.235 548.76 839.863 544.222 843.465C541.189 845.874 538.862 849.676 541.139 853.324C541.874 854.503 543.93 855.093 544.926 853.813C546.381 851.947 547.151 849.713 549.127 848.314C551.914 846.341 555.673 846.219 558.869 845.292C563.003 844.093 566.647 841.995 569.631 838.877M482.243 677.195C481.639 676.888 481.059 677.084 480.672 677.607C480.121 678.352 480.188 679.076 480.864 679.587C479.961 681.433 478.895 686.057 478.742 686.73C478.125 689.458 477.468 692.171 476.781 694.881C475.395 700.348 474.181 705.857 472.794 711.325C471.323 717.122 469.57 722.857 467.62 728.509C467.495 728.875 467.356 729.248 467.211 729.627L466.989 730.2L466.934 730.113C466.538 729.487 465.713 729.925 465.811 730.587C465.901 731.19 466.023 731.79 466.126 732.394L465.922 732.935C464.646 736.369 463.773 739.986 466.113 743.016C466.989 744.149 467.952 744.82 469.153 745.02C471.078 751.368 473.493 757.597 476.078 763.579L476.836 765.326C480.639 774.055 484.696 782.67 490.751 790.101C497.363 798.215 506.457 803.755 512.217 812.645C514.896 816.781 516.76 821.129 518.273 825.799L518.843 827.572C519.917 830.875 521.156 834.077 524.254 836.015C525.242 836.632 526.723 836.435 527.52 835.593C533.873 828.871 527.223 816.319 523.392 809.812C518.068 800.762 510.361 794.972 502.645 788.144C494.327 780.785 489.022 770.94 483.89 761.241C480.747 755.299 477.712 749.229 474.518 743.261C477.855 740.31 478.924 734.448 480.055 730.374L480.158 730.008C482.027 723.483 483.512 716.789 484.45 710.065C485.353 703.6 485.73 697.228 485.491 690.726L485.422 689.07M469.832 707.966C470.57 706.954 469.349 705.809 468.337 706.02C462.185 707.293 456.171 711.017 450.65 714.03L450.06 714.349C445.652 716.727 441.218 719.639 438.904 724.258C436.387 729.278 436.594 735.06 436.937 740.515L436.97 741.026C437.39 747.568 437.458 754.366 438.842 760.79C439.55 764.077 442.527 765.004 445.072 764.227C448.101 773.792 456.608 780.84 462.822 788.388C470.745 798.012 469.254 811.004 468.426 822.594C468.091 827.286 473.926 828.621 476.931 826.117L483.857 820.363C485.01 819.402 486.162 818.44 487.311 817.474C488.295 816.645 489.27 815.811 490.237 814.966L491.681 813.69C492.322 813.117 495.147 809.96 495.974 809.828C497.975 809.51 502.729 814.786 504.356 816.441L504.562 816.647C507.625 819.651 510.392 822.884 512.97 826.312C513.444 826.941 514.371 826.419 514.032 825.691C511.723 820.742 509.037 816.011 505.849 811.582L505.204 810.7C503.083 807.84 500.235 802.791 496.49 801.946C491.918 800.916 487.352 805.502 484.025 808.048L483.814 808.208C482.232 809.396 480.667 810.604 479.105 811.822C479.269 803.192 478.179 794.474 473.725 787.037C470.585 781.793 465.88 777.909 461.854 773.402C457.372 768.383 455.031 762.216 450.974 756.989C450.451 756.317 449.731 755.955 448.951 755.84C448.795 751.638 448.177 747.395 447.699 743.239L447.56 741.995C447.077 737.479 445.935 731.963 448.145 727.734C450.233 723.739 455.024 720.919 458.571 718.209L461.467 715.961M669.489 660.215C671.341 661.287 673.073 662.62 674.643 664.286C679.587 669.533 683.122 676.062 686.562 682.343C688.414 685.725 690.2 689.145 692.067 692.52C692.879 693.988 693.715 695.44 694.559 696.89C694.949 697.558 696.11 698.886 696.685 699.705C696.046 700.6 695.385 701.482 694.711 702.354C694.454 702.687 676.719 722.013 670.536 729.577C661.07 741.163 652.608 753.401 645.374 766.499C638.29 779.326 632.897 792.907 626.335 805.982C623.05 812.529 619.382 819.029 614.706 824.694C614.526 824.915 614.335 825.124 614.15 825.342C612.366 820.519 607.793 815.356 605.547 812.391L605.337 812.111C600.244 805.243 594.865 798.581 589.369 792.033C584.349 786.054 579.202 780.204 573.93 774.45L571.947 772.297C568.274 768.328 563.608 762.389 558.231 759.553C558.807 758.526 559.474 757.51 560.241 756.507C565.279 749.921 572.4 745.142 579.428 740.83L583.985 738.057C601.162 727.585 618.073 716.628 632.986 703.023C640.876 695.824 648.656 688.282 655.288 679.885L657.634 676.916M640.827 655.031C648.871 655.707 657.558 655.546 664.992 658.168C658.383 664.417 652.102 671.165 645.648 677.52C645.074 673.222 643.9 668.977 642.905 664.786" fill="black"/>
<path fill-rule="evenodd" clip-rule="evenodd" d="M393.627 488.423C395.798 469.335 392.988 429.438 392.8 427.014C391.609 411.691 398.787 351.18 412.355 356.755C435.116 338.731 465.431 334.751 493.778 332.85C552.66 328.9 615.299 337.967 660.766 377.606C683.251 398.191 705.141 428.131 703.382 459.305C723.811 488.855 752.611 529.389 727.157 563.934C718.505 574.971 704.754 579.081 693.885 587.44C672.022 605.08 658.306 630.395 636.236 647.929C577.766 700.488 478.482 711.467 421.035 651.686C376.612 608.391 383.795 543.618 391.609 488.423C396.862 451.315 389.39 525.661 393.627 488.423Z" fill="white"/>
<path fill-rule="evenodd" clip-rule="evenodd" d="M572.436 251.905C556.689 248.726 540.519 246.748 524.437 247.343L523.198 247.392C511.098 247.875 495.775 248.945 485.219 255.984C484.612 255.374 483.635 255.061 482.75 255.484C470.206 261.473 456.41 265.804 443.203 270.106C430.056 274.388 416.417 277.215 402.638 278.354C397.453 278.783 393.017 284.383 396.299 289.405C397.08 290.602 397.841 291.811 398.598 293.023C397.331 292.891 396.064 292.754 394.797 292.626C390.628 292.206 386.463 296.658 386.71 300.719C386.864 303.273 387.139 305.796 387.547 308.29C385.959 308.257 384.38 308.495 382.855 309.14C375.132 312.402 375.669 321.605 376.247 328.606C377.048 338.322 380.681 348.613 387.426 355.885C382.39 361.117 378.825 367.366 376.698 374.787C375.156 380.206 374.297 385.978 374.721 391.619L374.856 393.308C375.38 399.43 376.422 406.207 380.824 410.611C383.084 412.882 385.868 413.709 388.522 413.447C386.917 427.554 385.889 441.743 384.92 455.881L384.466 462.638C382.306 495.314 380.682 528.202 381.107 560.931C381.501 591.518 387.543 621.207 406.297 646.042C423.377 668.656 447.9 685.327 475.642 691.665C490.592 695.085 505.855 695.328 520.987 693.148C528.322 692.088 535.706 690.464 542.668 687.9C550.374 685.055 555.912 680.867 561.097 674.59C563.55 671.613 562.369 665.276 557.486 665.871C550.1 666.767 543.358 667.847 536.277 670.032L535.263 670.352C528.21 672.612 520.907 674.297 513.533 675.014C498.431 676.477 483.098 675.004 468.63 670.422C445.075 662.955 424.788 646.314 411.784 625.405C396.35 600.621 394.605 572.486 394.827 543.988C395.066 512.717 396.083 481.427 397.743 450.188L398.025 444.982C398.903 428.907 399.75 412.821 400.496 396.735C400.728 391.69 401.081 386.604 401.718 381.568C407.537 378.157 412.753 373.455 416.153 367.652C422.982 370.478 430.165 372.516 436.774 374.141C452.081 377.907 467.974 378.821 483.555 376.463C487.757 378.2 492.044 379.727 496.396 381.04C497.572 381.562 498.748 382.075 499.924 382.577C510.416 387.068 521.059 390.872 532.135 393.658L534.856 394.336C540.684 395.774 547.015 397.189 553.219 397.634C554.238 398.027 555.337 398.36 556.539 398.653C562.187 400.025 568.049 400.459 573.839 399.975C579.479 399.5 583.554 393.799 580.447 388.461C578.177 384.565 575.886 380.68 573.576 376.805C581.616 380.155 589.919 382.941 598.292 385.302C606.746 387.684 615.321 389.692 623.906 391.538C628.496 392.517 633.106 393.385 637.686 394.364C640.964 395.06 645.998 395.424 648.673 397.583C651.627 399.955 652.465 405.485 653.585 408.895C655.058 413.326 656.44 417.776 657.701 422.277C660.212 431.258 662.27 440.37 663.864 449.574C665.458 458.787 666.528 468.091 667.124 477.426C667.718 486.75 667.456 496.135 668.414 505.419C668.929 510.344 674.214 512.876 678.118 509.435C678.576 509.032 679.038 508.624 679.495 508.211L680.176 507.589C683.517 504.561 686.755 501.352 689.427 497.74C689.911 497.073 690.375 496.377 690.809 495.671C690.88 495.671 690.94 495.651 691.011 495.6L691.752 495.042C699.911 488.968 713.541 481.048 721.497 491.14C724.032 494.355 725.33 498.449 726.407 502.398L728.297 509.466C729.52 514.081 730.671 518.721 731.344 523.442C732.867 534.018 732.101 546.208 724.826 554.685C721.921 558.076 717.916 560.497 713.448 561.133C710.955 561.476 708.494 561.052 706.022 560.74C703.51 560.427 701.09 560.931 698.577 560.689C694.582 560.296 692.837 565.079 694.33 568.086C695.137 569.701 696.086 571.093 697.165 572.274C696.298 573.021 695.47 573.828 694.673 574.676C692.312 575.433 690.195 577.057 688.61 579.207C687.329 580.942 686.664 582.83 686.552 584.818C686.412 585.312 686.291 585.817 686.179 586.331L684.015 589.845C683.539 590.616 683.064 591.377 682.588 592.124C677.08 600.802 670.966 608.149 663.37 615.071C656.056 621.732 648.118 627.696 641.247 634.84L640.437 635.689C634.032 642.441 627.28 650.614 629.787 660.432C630.432 662.955 633.954 664.771 636.253 663.066C643.648 657.576 647.371 648.877 653.645 642.217C660.102 635.355 667.255 629.189 673.73 622.347C679.855 615.889 684.687 608.573 688.328 600.52C689.781 602.124 691.899 603.265 694.834 603.709C699.878 604.465 704.58 601.509 706.779 597.139C708.192 597.765 709.633 598.33 711.087 598.774C718.734 601.115 723.545 592.608 720.66 586.321C719.117 582.951 717.19 580.024 714.799 577.562C722.275 576.533 729.881 572.668 734.794 567.844C747.121 555.724 748.815 537.509 746.041 521.313C744.568 512.725 742.027 504.036 738.727 495.974C738.153 494.571 737.537 493.158 736.862 491.765C737.235 491.755 737.619 491.594 737.861 491.281C740.09 488.233 742.803 485.741 744.458 482.33C745.982 479.202 747.675 476.033 748.877 472.774C751.347 466.103 752.558 458.575 753.365 451.521C755.03 437.081 754.385 422.731 752.175 408.381C748.413 383.94 739.326 360.55 725.938 340.026C726.667 339.643 727.365 339.181 728.016 338.634L728.338 338.353L728.86 337.881C732.681 334.423 732.351 327.941 728.86 324.438L727.758 323.333C726.362 321.946 725.158 320.846 722.903 319.336C722.57 319.113 722.23 318.903 721.886 318.707C723.067 316.526 723.476 313.974 722.654 311.16C719.789 301.355 705.686 301.702 696.747 305.978C686.858 297.149 675.892 289.485 664.006 283.279C635.698 268.505 603.69 258.202 572.436 251.905ZM718.763 510.142C713.477 508.416 706.455 512.039 701.704 514.219C695.681 516.984 690.557 521.071 685.593 525.39C683.122 527.549 682.679 531.081 683.293 534.099C683.355 534.401 683.414 534.714 683.486 535.027C684.142 538.246 687.733 540.779 690.911 540.688C697.559 540.507 700.725 534.765 704.489 529.901C704.932 530.688 705.487 531.414 706.174 531.959L706.638 532.322C708.2 533.512 709.921 534.463 711.985 534.371C713.447 534.3 714.849 533.927 716.141 533.251C719.369 531.545 720.791 527.368 719.914 523.967C719.369 521.828 718.118 520.152 716.484 518.992L717.093 518.575C718.397 517.668 719.585 516.711 720.512 515.299L720.721 514.965H720.64C721.649 513.23 720.992 510.868 718.763 510.142Z" fill="black"/>
<path fill-rule="evenodd" clip-rule="evenodd" d="M469.778 611.695C477.21 613.848 485.186 614.04 492.761 611.817C499.632 609.8 506.687 605.361 511.744 599.487C516.236 594.27 519.145 587.929 519.031 581.16C519.018 580.387 518.742 579.742 518.316 579.241C517.859 578.702 517.22 578.332 516.535 578.171C515.831 578.006 515.087 578.064 514.453 578.352C513.879 578.613 513.387 579.056 513.08 579.703C512.303 580.725 511.529 581.731 510.752 582.709C504.503 590.427 498.452 596.195 489.056 598.264C483.958 599.386 478.867 598.889 474.195 597.176C469.194 595.342 464.674 592.118 461.131 587.993C459.53 586.128 457.64 585.367 455.792 585.354C453.698 585.34 451.628 586.313 450.068 587.869C448.536 589.399 447.509 591.477 447.416 593.651C447.334 595.559 447.957 597.552 449.612 599.331C455.065 605.188 462.132 609.479 469.778 611.695ZM470.008 515.028C462.39 519.66 450.782 530.461 458.978 541.944C468.624 552.069 482.512 540.46 489.357 535.21C495.703 531.141 502.833 541.606 496.945 546.357C447.49 582.984 427.42 516.239 466.155 509.582C470.419 508.848 472.003 513.595 470.008 515.028ZM541.269 494.647C543.717 493.08 546.597 492.543 549.789 493.995C552.284 495.13 556.659 498.913 559.703 503.885C561.786 507.287 563.263 511.278 562.956 515.436C562.885 516.401 563.241 517.113 563.804 517.639C564.248 518.055 564.89 518.36 565.643 518.456C566.283 518.537 567 518.464 567.582 518.282C568.69 517.936 569.276 517.217 569.497 516.63C571.629 510.967 570.71 504.647 568.321 498.945C565.097 491.251 559.241 484.805 555.405 482.727C548.84 479.17 541.095 479.006 534.521 482.63C528.925 485.714 525.425 490.694 521.945 495.77C521.205 496.849 520.471 497.92 519.712 498.972C518.191 501.081 518.04 503.172 518.629 504.965C519.281 506.952 520.945 508.629 523.025 509.506C524.948 510.317 527.18 510.431 529.155 509.598C530.823 508.894 532.354 507.522 533.323 505.194C534.955 501.273 537.673 496.947 541.269 494.647V494.647ZM416.918 503.37C418.595 504.244 419.907 504.507 421.767 503.95C422.795 503.641 423.812 503.048 424.608 502.252C425.397 501.463 425.966 500.482 426.187 499.393C426.731 496.707 428.201 494.192 430.295 492.552C432.085 491.151 434.344 490.408 436.85 490.827C439.554 491.279 442.13 493.014 443.904 495.059C444.497 495.743 444.962 496.521 445.429 497.293C446.304 498.736 447.153 500.078 448.359 501.139C448.816 501.542 449.505 501.821 450.172 501.821C450.443 501.821 450.718 501.777 450.98 501.696C453.672 498.993 454.189 496.944 454.102 494.91C454.011 492.778 453.171 490.62 451.813 488.605C448.628 483.881 442.58 480.007 438.499 479.129C432.909 477.928 427.358 479.37 422.908 482.493C418.329 485.706 414.936 490.695 413.878 496.317C413.623 497.671 413.732 499.132 414.247 500.399C414.751 501.638 415.629 502.698 416.918 503.37ZM528.942 444.273C532.296 447.542 536.266 448.049 540.282 448.499C542.514 448.752 544.295 448.955 546.048 449.351C550.867 450.439 555.63 452.078 559.975 454.438C564.517 456.905 569.467 459.88 573.029 463.692C573.875 464.599 574.674 465.55 575.473 466.504C576.202 467.374 576.904 468.211 577.644 469.019C578.494 469.946 579.301 470.918 580.104 471.887C580.6 472.705 580.698 472.906 580.798 473.116C580.949 473.431 581.124 473.783 581.323 474.161C581.597 474.678 581.918 475.244 582.253 475.758C582.812 476.697 583.112 476.955 583.371 477.071C583.801 477.262 584.208 477.357 584.604 477.306C584.974 477.258 585.324 477.079 585.669 476.788C587.391 475.332 587.899 472.944 587.847 470.408C587.768 466.561 586.349 462.301 585.041 459.682C582 453.597 577.783 447.272 572.712 442.73C566.925 437.547 560.595 433.622 553.323 430.918C548.804 429.237 543.572 427.694 538.649 427.889C535.106 428.029 531.723 429.083 528.929 431.714C527.214 433.329 526.39 435.627 526.39 437.923C526.39 440.265 527.246 442.62 528.942 444.273ZM410.096 474.209C410.309 474.559 410.605 474.8 410.933 474.945C411.278 475.096 411.662 475.14 412.031 475.078C412.398 475.016 412.747 474.849 413.024 474.595C413.29 474.351 413.492 474.027 413.582 473.631C415.809 463.847 420.134 456.567 429.363 451.873C433.903 449.564 439.124 448.097 444.066 446.927C445.502 446.587 447.02 446.366 448.548 446.143C453.337 445.444 458.162 444.643 461.284 440.77C463.166 438.437 463.955 435.453 463.509 432.725C463.088 430.156 461.588 427.8 458.86 426.389C452.068 422.876 443.628 426.323 436.769 429.259C436.26 429.477 435.761 429.691 435.272 429.897C428.565 432.729 422.448 436.467 417.419 441.813C413.429 446.055 409.733 452.325 408.244 458.775C407.005 464.141 407.297 469.619 410.096 474.209Z" fill="black"/>
<path fill-rule="evenodd" clip-rule="evenodd" d="M559.882 618.793C551.714 599.652 533.888 585.585 513.364 580.442C498.292 576.675 482.475 576.795 467.111 578.29C459.062 579.068 450.428 579.705 442.841 582.696C436.363 585.251 431.084 590.079 427.115 595.748C422.39 602.465 419.176 610.152 416.919 618.032C416.599 619.152 416.298 620.281 416.017 621.415C416.998 627.36 419.081 632.42 424.586 636.158C429.958 639.808 436.367 641.301 442.757 641.831C443.383 641.53 443.989 641.221 444.544 640.904C454.501 635.202 461.509 621.728 474.076 623.552C485.291 625.18 492.674 639.296 499.343 647.574C520.752 650.069 542.144 643.634 559.563 631.388C560.448 627.197 560.499 622.97 559.882 618.793M401.466 604.273C403.178 599.465 405.335 594.809 407.892 590.423C416.345 575.917 429.321 564.359 444.725 557.753C481.165 542.145 528.315 553.147 557.743 578.745C567.795 587.495 577.959 600.354 581.033 614.186C581.951 614.368 582.817 614.846 583.531 615.519C604.792 602.128 626.687 589.245 643.82 570.683C656.263 557.197 664.917 541.237 670.216 523.698C670.649 522.255 672.976 522.466 672.906 524.063C672.886 524.437 672.866 524.81 672.845 525.183C673.067 524.496 674.115 524.85 674.195 525.517C677.047 546.822 680.613 569.41 677.329 590.827C675.364 603.606 669.561 612.962 661.804 623.064C653.492 633.892 644.082 643.964 634.461 653.623C628.356 659.754 621.979 666.825 614.503 671.321C605.809 676.543 595.946 680.515 586.667 684.544C577.227 688.656 567.646 692.454 557.884 695.747C538.369 702.354 518.2 706.92 497.678 708.921C481.246 710.517 462.467 712.255 446.72 706.072C434.651 701.334 424.908 692.768 417.181 682.463C408.769 671.24 402.119 658.456 398.442 644.974C394.622 630.971 400.661 606.531 401.466 604.273" fill="black"/>
<path fill-rule="evenodd" clip-rule="evenodd" d="M379.723 521.174C391.971 533.834 412.417 537.467 428.712 530.677C470.554 513.19 450.074 458.646 417.805 443.999C413.774 442.994 408.39 440.609 403.48 440.068C403.036 439.85 402.07 440.481 400.899 439.885C365.317 443.859 357.215 499.111 379.723 521.174M514.679 524.415C528.415 542.64 553.954 548.263 574.82 539.791C616.042 523.552 601.421 475.185 573.218 456.223C513.641 433.83 489.04 490.809 514.679 524.415M604.038 484.031C604.077 484.013 604.115 484.004 604.154 483.986C603.936 483.89 603.719 483.794 603.502 483.696C603.572 483.881 603.649 484.063 603.718 484.248C603.824 484.174 603.918 484.089 604.038 484.031M351.363 464.33C354.727 464.337 359.585 464.89 362.37 467.224C369.235 444.061 394.579 422.624 416.619 438.256C433.975 443.839 446.855 456.222 454.175 472.685C467.373 464.832 488.126 468.186 499.571 478.571C507.066 453.795 525.513 445.12 547.47 443.839C571.435 439.913 595.321 463.195 602.774 481.872C608.971 481.166 618.231 479.193 624.061 483.019C661.898 473.093 728.05 467.621 735.743 473.135C741.224 475.24 744.233 488.183 736.576 488.881C729.904 487.933 737.355 479.397 730.629 478.466C694.793 476.244 660.005 483.463 624.548 486.492C621.383 490.752 611.154 492.177 605.698 490.465C614.292 522.148 595.74 543.703 567.942 550.16C524.9 560.05 487.452 521.533 498.707 481.471C485.668 474.982 470.671 475.261 456.467 478.679C480.202 566.059 339.517 562.139 361.49 470.218C346.867 477.494 343.692 465.798 351.363 464.33" fill="black"/>
</svg>
