<svg xmlns="http://www.w3.org/2000/svg" width="48" height="48" xmlns:v="https://vecta.io/nano"><g fill="#fff"><path d="M12.193 19.555c-1.94-1.74-4.8-1.727-6.365.03s-1.3 5.023.926 6.632l5.44-6.66zm23.614 0c1.94-1.74 4.79-1.727 6.365.03s1.302 5.023-.927 6.632l-5.438-6.66zm2.513-12.58a3.5 3.5 0 1 0 0 7 3.5 3.5 0 1 0 0-7z"/><path d="M24.085 15.665a18.085 12.946 0 1 0 0 25.892 18.085 12.946 0 1 0 0-25.892z"/></g><path fill="#d84315" d="M30.365 23.506a2.884 2.884 0 1 0 0 5.768 2.884 2.884 0 1 0 0-5.768zm-12.73 0a2.884 2.884 0 1 0 0 5.768 2.884 2.884 0 1 0 0-5.768z"/><g fill="#37474f"><path d="M24.002 34.902c-3.252 0-6.14-.745-8.002-1.902 1.024 2.044 4.196 4 8.002 4s6.976-1.956 7.998-4c-1.857 1.157-4.746 1.902-7.998 1.902zm17.828-7.876l-1.17-1.62c.83-.6 1.373-1.556 1.488-2.623.105-.98-.157-1.903-.72-2.53-.57-.637-1.39-1-2.307-.994-.927.013-1.894.365-2.646 1.04L35.138 18.8c1.123-1.008 2.545-1.523 3.99-1.553 1.488.007 2.833.596 3.786 1.658.942 1.05 1.387 2.537 1.22 4.08-.175 1.63-1.015 3.1-2.306 4.03zm-35.66 0c-1.3-.932-2.13-2.4-2.306-4.03-.166-1.543.28-3.03 1.22-4.08.953-1.062 2.297-1.65 3.785-1.658h.027c1.44 0 2.85.55 3.965 1.553L11.525 20.3c-.753-.676-1.69-1.005-2.646-1.04-.916.004-1.735.357-2.306.994-.563.628-.826 1.55-.72 2.53.115 1.067.657 2.023 1.488 2.624l-1.17 1.62zM25 16.84h-2c0-2.885 0-10.548 4.98-10.548 2.154 0 3.193 1.21 3.952 2.096.63.734.96 1.086 1.616 1.086h1.37v2h-1.37c-1.604 0-2.453-1-3.135-1.785-.67-.78-1.198-1.398-2.434-1.398C25.975 8.292 25 11.088 25 16.84z"/><path d="M24.085 16.95c9.42 0 17.085 5.23 17.085 11.66s-7.664 11.662-17.085 11.662S7 35.042 7 28.61s7.664-11.66 17.085-11.66m0-2C13.544 14.95 5 21.066 5 28.61s8.545 13.662 19.085 13.662S43.17 36.157 43.17 28.61s-8.545-13.66-19.085-13.66h0zM38.32 7.975c1.38 0 2.5 1.122 2.5 2.5s-1.12 2.5-2.5 2.5-2.5-1.122-2.5-2.5 1.12-2.5 2.5-2.5m0-2a4.5 4.5 0 1 0 0 9 4.5 4.5 0 1 0 0-9h0z"/></g></svg>