<svg xmlns="http://www.w3.org/2000/svg" width="48" height="48" xmlns:v="https://vecta.io/nano"><linearGradient id="A" x1="9.816" x2="41.246" y1="9.871" y2="41.301" gradientUnits="userSpaceOnUse"><stop offset="0" stop-color="#f44f5a"/><stop offset=".443" stop-color="#ee3d4a"/><stop offset="1" stop-color="#e52030"/></linearGradient><path fill="url(#A)" d="M45.012 34.56c-.44 2.24-2.304 3.947-4.608 4.267-3.62.533-9.656 1.173-16.46 1.173-6.693 0-12.728-.64-16.46-1.173-2.304-.32-4.17-2.027-4.608-4.267C2.44 32.107 2 28.48 2 24s.44-8.107.878-10.56c.44-2.24 2.304-3.947 4.608-4.267C11.107 8.64 17.142 8 23.945 8s12.728.64 16.46 1.173c2.304.32 4.17 2.027 4.608 4.267.44 2.453.988 6.08.988 10.56-.1 4.48-.55 8.107-.988 10.56z"/><path d="M32.352 22.44l-11.436-7.624A1.87 1.87 0 0 0 18 16.376v15.248c0 .693.38 1.327.99 1.654.278.15.58.222.884.222.364 0 .726-.106 1.04-.315L32.35 25.56a1.87 1.87 0 0 0 .001-3.121z" opacity=".05"/><path d="M20.68 15.237l10.8 7.194c.69.495 1.153.938 1.153 1.513s-.224.976-.715 1.334c-.37.27-11.045 7.364-11.045 7.364-.9.604-2.364.476-2.364-1.5v-14.4c0-2.005 1.584-1.905 2.18-1.507z" opacity=".07"/><path fill="#fff" d="M19 31.568V16.433a.93.93 0 0 1 1.447-.774L31.8 23.227a.93.93 0 0 1 0 1.549l-11.352 7.568c-.62.41-1.447-.032-1.447-.776z"/></svg>