<svg xmlns="http://www.w3.org/2000/svg" viewBox="0 0 511.999 511.999" xmlns:v="https://vecta.io/nano"><path d="M256 142.752c37.107 0 72.19 3.114 103.363 7.55h2.333v-52.85H150.303v52.85h2.333c31.175-4.436 66.257-7.55 103.364-7.55z" fill="#1d71b8"/><path d="M490.042 180.502S385.258 218.25 256 218.25s-234.042-37.75-234.042-37.75 104.784-37.75 234.042-37.75 234.042 37.75 234.042 37.75z" fill="#f9b233"/><path d="M414.545 490.042H97.456L210.7 240.9H301.3z" fill="#1d71b8"/><path d="M316.398 490.042H97.456L210.7 240.9H271.1z" fill="#77aad4"/><path d="M331.498,97.454c0-41.695-33.802-75.497-75.497-75.497s-75.497,33.802-75.497,75.497H331.498z" fill="#fac15c"/><g fill="#fff"><circle cx="293.746" cy="180.498" r="15.099"/><circle cx="218.251" cy="180.498" r="15.099"/></g><path d="M172.954 112.662h15.1v14.884h-15.1zm30.198 0h15.1v14.884h-15.1zm30.198 0h15.1v14.884h-15.1zm30.198 0h15.1v14.884h-15.1zm30.198 0h15.1v14.884h-15.1zm30.198 0h15.1v14.884h-15.1zm168.62 60.838c-.724-.262-50.677-18.002-123.426-29.207v-16.746h7.657v-14.885h-7.657v-22.65h-30.55C334.8 47.755 299.223 14.514 256 14.514s-78.8 33.24-82.6 75.498h-30.55v22.65h-7.657v14.884h7.657v16.746C70.113 155.498 20.16 173.238 19.435 173.5L0 180.5l19.435 7c1.06.382 107.5 38.2 236.564 38.2s235.505-37.808 236.564-38.2l19.435-7-19.433-7zM256 29.4c35 0 63.92 26.577 67.64 60.613H188.36C192.08 55.975 221 29.4 256 29.4zm-98.254 75.498h196.508v37.244c-29.997-4.053-63.3-6.83-98.254-6.83s-68.257 2.776-98.254 6.83v-37.244zM256 210.8c-91.822 0-171.905-19.505-209.22-30.3 37.3-10.805 117.313-30.302 209.22-30.302 91.822 0 171.905 19.504 209.22 30.3C427.93 191.312 347.907 210.8 256 210.8z" fill="#1d1d1b"/><path d="M210.707 67.365H301.3V82.25h-90.594z" fill="#fff"/><path d="M218.25 203.043c-12.43 0-22.542-10.113-22.542-22.542s10.113-22.54 22.542-22.54 22.542 10.113 22.542 22.54-10.112 22.542-22.542 22.542zm0-30.198a7.67 7.67 0 0 0-7.657 7.656 7.67 7.67 0 0 0 7.657 7.657 7.67 7.67 0 0 0 7.658-7.657 7.67 7.67 0 0 0-7.658-7.656zm75.5 30.198c-12.43 0-22.542-10.113-22.542-22.542s10.113-22.54 22.542-22.54 22.542 10.113 22.542 22.54-10.113 22.542-22.542 22.542zm0-30.198a7.67 7.67 0 0 0-7.658 7.656 7.67 7.67 0 0 0 7.658 7.657 7.67 7.67 0 0 0 7.657-7.657c0-4.222-3.434-7.656-7.657-7.656zM227.636 355.48l-14.645-2.663 5.492-30.207 14.645 2.663zm53.986-15.098l-5.492-30.202 14.645-2.663 5.492 30.202zm144.48 157.103L312.856 248.342h18.64v-14.885H180.502v14.885h18.64L85.898 497.485h340.205zM264.9 248.342l7.125 39.187 14.644-2.663-6.64-36.524h16.5L403 482.6H204.52l17.622-96.922-14.644-2.662-18.106 99.584h-80.378l106.48-234.257h49.394z" fill="#1d1d1b"/></svg>