<svg xmlns="http://www.w3.org/2000/svg" viewBox="0 0 512 512" xmlns:v="https://vecta.io/nano"><path d="M312.013 168.04H199.987V72.017c0-30.935 25.078-56.013 56.013-56.013h0c30.935 0 56.013 25.078 56.013 56.013v96.024z" fill="#fff"/><path d="M175.98 168.04H336.02v24.006H175.98z" fill="#fac15c"/><g fill="#f9b233"><circle cx="456.053" cy="64.015" r="24.006"/><circle cx="55.947" cy="64.015" r="24.006"/></g><path d="M320.013 352.088h24.006v40.004h-24.006zm24.01-168.04h24.006v48h-24.006zm-200.052 0h24.006v48H143.97zm24.008 168.04h24.006v40.004h-24.006z" fill="#fac15c"/><path d="M360.028 432.107h48v72.016h-48zm-256.063 0h48v72.016h-48z" fill="#f9b233"/><path d="M103.963 504.123h-40V488.12l40-16.005zm304.074 0h40V488.12l-40-16.005z" fill="#1d71b8"/><path d="M191.987 296.067h128.037v88.022H191.987z" fill="#77aad4"/><path d="M256 296.067h64.016v88.022H256z" fill="#1d71b8"/><path d="M167.978 192.05h176.044v104.028H167.978z" fill="#77aad4"/><path d="M256 192.05h88.022v104.028H256z" fill="#1d71b8"/><path d="M239.994 224.05h32.01v32.01h-32.01z" fill="#fac15c"/><path d="M279.88 263.94h-47.763v-47.763h47.763v47.763zm-32.008-15.754h16.255V231.93h-16.255v16.255z" fill="#1d1d1b"/><path d="M288.012 232.18h16.004v15.754h-16.004zm23.988 0h16.004v15.754H312zm-128.016 0h16.004v15.754h-16.004zm24.01 0h16.004v15.754h-16.004z" fill="#fff"/><path d="M229.57 81.582l-11.14-11.14 20.004-20.004 11.14 11.14zm.01 48.018l-11.14-11.14 56-56L285.6 73.6zm48.012-.008l-11.14-11.14 16.003-16.003 11.14 11.14zm138.448 86.335h-16.012v-15.754h16.012c4.27 0 8.414-.82 12.316-2.442l6.043 14.548c-5.827 2.42-12.004 3.648-18.36 3.648zm34.016-14.18l-11.2-11.1a31.93 31.93 0 0 0 9.306-22.615v-.503h15.754v.503c0 12.7-4.926 24.68-13.87 33.705zm13.87-50.087h-15.754v-31.756h15.754v31.756zm-351.953 64.267H95.96c-6.355 0-12.532-1.228-18.358-3.65l6.043-14.548c3.902 1.62 8.046 2.442 12.316 2.442h16.012l-.001 15.755zm-50.028-14.18a47.59 47.59 0 0 1-13.871-33.707v-.503h15.754v.503c0 8.528 3.305 16.56 9.306 22.615l-11.2 11.1zm1.883-50.087H48.074v-31.756h15.754v31.756zM351.9 303.95V184.17H160.1v119.78h24.006v88.02H327.89v-88.02h24.01zM175.855 199.924h160.3v88.272h-160.3v-88.272zM312.14 376.217H199.86V303.95h112.28v72.267zm23.88-216.053H319.9V72.017a63.46 63.46 0 0 0-8.249-31.342V0h-16.004v21.965c-10.9-8.65-24.67-13.838-39.637-13.838-15.214 0-29.197 5.354-40.182 14.266V0h-16.004v41.623a63.5 63.5 0 0 0-7.705 30.394v88.147h-16.13v15.754h160.038v-15.754zM207.864 72.017c0-26.542 21.594-48.136 48.136-48.136s48.136 21.594 48.136 48.136v88.147h-96.274l.002-88.147zM455.924 512v-29.214L416.5 467v-42.78h-32.582V408.1h-15.754v16.13H352.15V512h103.775zm-55.2-15.754h-32.832v-56.263h32.832v56.263zm39.435-2.794v2.794h-23.68V483.98l23.68 9.473zM160.1 368.215h-.125c-17.58 0-31.883 14.302-31.883 31.883h15.754a16.15 16.15 0 0 1 16.129-16.129h.125v8.127h15.754v-40H160.1v16.13zM159.852 512v-87.77h-16.004V408.1h-15.754v16.13H95.5v42.782l-39.435 15.775V512H159.85zM71.83 496.246v-2.794l23.68-9.473v12.267H71.83zm72.268 0h-32.833v-56.263h32.833v56.263zm224.055-96.15h15.754c0-17.58-14.302-31.883-31.883-31.883h-.125v-16.128h-15.754v40H351.9v-8.127h.125c8.892-.001 16.13 7.235 16.13 16.128zm7.752-184.17h8.126v-15.753h-8.126v-16.13H360.15v48h15.754zM487.93 64.015c0-17.58-14.302-31.883-31.883-31.883s-31.883 14.302-31.883 31.883c0 14.862 10.223 27.38 24.006 30.896v9.114h15.754V94.9c13.784-3.516 24.006-16.033 24.006-30.896zm-31.882 16.13c-8.894 0-16.13-7.236-16.13-16.13s7.235-16.13 16.13-16.13 16.13 7.236 16.13 16.13-7.236 16.13-16.13 16.13zm-319.953 151.91h15.754v-48h-15.754v16.13h-8.127v15.753h8.127zm-72.267-128.03v-9.114c13.784-3.516 24.006-16.034 24.006-30.896 0-17.58-14.302-31.883-31.883-31.883S24.07 46.435 24.07 64.015c0 14.862 10.223 27.38 24.006 30.896v9.114c-.001.001 15.753.001 15.753.001zm-24.005-40a16.15 16.15 0 0 1 16.129-16.129c8.894 0 16.128 7.237 16.128 16.13s-7.235 16.13-16.13 16.13a16.15 16.15 0 0 1-16.128-16.13z" fill="#1d1d1b"/><path d="M248.123 312.073h15.754v56h-15.754z" fill="#fff"/></svg>