<svg xmlns="http://www.w3.org/2000/svg" viewBox="0 0 512.001 512.001" xmlns:v="https://vecta.io/nano"><path d="M0 344c39.764 0 72-32.236 72-72h0c0 39.764 32.236 72 72 72h0c-39.764 0-72 32.236-72 72h0c0-39.764-32.236-72-72-72h0zm240 56c61.856 0 112-50.144 112-112h0c0 61.856 50.144 112 112 112h0c-61.856 0-112 50.144-112 112h0c-.002-61.857-50.146-112-112-112h0zM88 96c48.6 0 88-39.4 88-88h0c0 48.6 39.4 88 88 88h0c-48.6 0-88 39.4-88 88h0c.001-48.6-39.4-88-88-88h0z" fill="#77aad4"/><path d="M80 204c19.883 0 36-16.117 36-36h0c0 19.883 16.117 36 36 36h0c-19.883 0-36 16.117-36 36h0c-.001-19.882-16.12-36-36-36h0zm352 4c22.092 0 40-17.908 40-40h0c0 22.092 17.908 40 40 40h0c-22.092 0-40 17.908-40 40h0c0-22.092-17.9-40-40-40h0zm-192 40c22.092 0 40-17.908 40-40h0c0 22.092 17.908 40 40 40h0c-22.092 0-40 17.908-40 40h0c-.001-22.092-17.9-40-40-40h0zM0 47.947c22.092 0 40-17.9 40-40h0c0 22.1 17.908 40 40 40h0c-22.092 0-40 17.908-40 40h0c0-22.092-17.908-40-40-40h0zM320 40c22.092 0 40-17.908 40-40h0c0 22.092 17.908 40 40 40h0c-22.092 0-40 17.908-40 40h0c0-22.1-17.908-40-40-40h0zM136 472c22.092 0 40-17.908 40-40h0c0 22.092 17.908 40 40 40h0c-22.092 0-40 17.908-40 40h0c.001-22.092-17.9-40-40-40h0z" fill="#1d71b8"/><path d="M123.9 240h-15.8c0-15.494-12.605-28.1-28.1-28.1v-15.8c15.494 0 28.1-12.605 28.1-28.1h15.8c0 15.494 12.605 28.1 28.1 28.1v15.802c-15.494 0-28.1 12.604-28.1 28.1zm-18.8-36a44.3 44.3 0 0 1 10.9 10.9 44.3 44.3 0 0 1 10.9-10.9 44.3 44.3 0 0 1-10.9-10.9 44.3 44.3 0 0 1-10.9 10.9zM79.9 416H64.1c0-35.344-28.754-64.1-64.1-64.1v-15.8c35.344 0 64.1-28.754 64.1-64.1h15.8c0 35.344 28.754 64.1 64.1 64.1v15.8c-35.344 0-64.1 28.755-64.1 64.1zm-45.27-72A80.43 80.43 0 0 1 72 381.37 80.43 80.43 0 0 1 109.37 344 80.43 80.43 0 0 1 72 306.63 80.44 80.44 0 0 1 34.631 344zm445.27-96h-15.8c0-17.7-14.4-32.1-32.1-32.1v-15.8c17.7 0 32.1-14.4 32.1-32.1h15.8c0 17.7 14.4 32.1 32.1 32.1v15.8c-17.7.001-32.1 14.4-32.1 32.1zm-21.573-40a48.28 48.28 0 0 1 13.671 13.671A48.28 48.28 0 0 1 485.669 208a48.28 48.28 0 0 1-13.671-13.671 48.3 48.3 0 0 1-13.67 13.67zM287.9 288h-15.8c0-17.7-14.4-32.1-32.1-32.1v-15.8c17.7 0 32.1-14.4 32.1-32.1h15.8c0 17.7 14.4 32.1 32.1 32.1v15.8c-17.7 0-32.1 14.4-32.1 32.1zm-21.573-40a48.28 48.28 0 0 1 13.671 13.671A48.28 48.28 0 0 1 293.67 248a48.28 48.28 0 0 1-13.671-13.671A48.27 48.27 0 0 1 266.328 248zM47.9 87.947H32.1c0-17.7-14.4-32.1-32.1-32.1v-15.8c17.7 0 32.1-14.4 32.1-32.1h15.8c0 17.7 14.4 32.1 32.1 32.1v15.802c-17.7 0-32.1 14.4-32.1 32.1zm-21.572-40A48.27 48.27 0 0 1 40 61.618a48.28 48.28 0 0 1 13.671-13.671c-5.427-3.584-10.087-8.244-13.67-13.67-3.585 5.427-8.243 10.087-13.67 13.67zM367.9 80h-15.8c0-17.7-14.4-32.1-32.1-32.1V32.1c17.7 0 32.1-14.4 32.1-32.1h15.8c0 17.7 14.4 32.1 32.1 32.1v15.8c-17.7 0-32.1 14.4-32.1 32.1zm-21.57-40A48.28 48.28 0 0 1 360 53.671 48.28 48.28 0 0 1 373.671 40 48.28 48.28 0 0 1 360 26.329c-3.585 5.428-8.243 10.086-13.67 13.67zM183.902 512H168.1c0-17.7-14.4-32.1-32.1-32.1v-15.8c17.7 0 32.1-14.4 32.1-32.1h15.802c0 17.7 14.4 32.1 32.1 32.1v15.8c-17.7 0-32.1 14.4-32.1 32.1zm-21.574-40a48.28 48.28 0 0 1 13.671 13.671A48.28 48.28 0 0 1 189.67 472a48.28 48.28 0 0 1-13.671-13.671A48.28 48.28 0 0 1 162.328 472zM359.9 512h-15.8c0-57.4-46.698-104.1-104.1-104.1v-15.8c57.4 0 104.1-46.698 104.1-104.1h15.8c0 57.4 46.698 104.1 104.1 104.1v15.8c-57.4.001-104.1 46.7-104.1 104.1zm-77.08-112c31.723 12.17 57 37.457 69.18 69.18 12.17-31.723 37.457-57 69.18-69.18-31.723-12.17-57-37.457-69.18-69.18-12.17 31.722-37.457 57-69.18 69.18zm-98.918-216H168.1c0-44.167-35.932-80.1-80.098-80.1V88.1C132.17 88.1 168.1 52.167 168.1 8h15.802c0 44.167 35.932 80.098 80.098 80.098V103.9c-44.167 0-80.098 35.932-80.098 80.1zm-57.787-88A96.52 96.52 0 0 1 176 145.884C185.7 123.6 203.6 105.69 225.884 96A96.48 96.48 0 0 1 176 46.116 96.48 96.48 0 0 1 126.115 96z" fill="#1d1d1b"/></svg>