<svg xmlns="http://www.w3.org/2000/svg" viewBox="0 0 512 512" xmlns:v="https://vecta.io/nano"><path d="M392.035 0h-272.07v369.596c0 74.3 60.905 134.535 136.035 134.535s136.036-60.233 136.036-134.535c0-.506-.07-.996-.077-1.5h.077V0z" fill="#fac15c"/><path d="M191.978 152.037h128.03v48.013h-128.03z" fill="#fff"/><path d="M360.027,368.095c0,57.453-46.575,104.027-104.027,104.027s-104.026-46.575-104.026-104.027" fill="#f9b233"/><path d="M360.027 368.095H151.973l24.005-168.043H336.02z" fill="#1d71b8"/><path d="M191.983 440.114s7.49 27.646 56.015 32.008c0 0 50.885 10.622 72.02-32.008H191.983z" fill="#fff"/><path d="M256 368.095H151.973l24.005-168.043H256z" fill="#77aad4"/><circle cx="255.999" cy="296.079" r="40.005" fill="#fac15c"/><circle cx="255.999" cy="296.079" r="16.004" fill="#fff"/><g fill="#1d1d1b"><path d="M256 512c-79.348 0-143.903-64.555-143.903-143.905V0h15.738v368.095c0 70.67 57.495 128.167 128.166 128.167s128.167-57.496 128.167-128.167V0h15.738v368.095C399.904 447.445 335.35 512 256 512zm71.886-327.952h-15.738v-24.14H199.852v24.14h-15.738V144.17h143.772zM256 319.95c-13.164 0-23.873-10.7-23.873-23.873s10.7-23.873 23.873-23.873 23.873 10.7 23.873 23.873S269.164 319.95 256 319.95zm0-32a8.15 8.15 0 0 0-8.135 8.135A8.15 8.15 0 0 0 256 304.21a8.15 8.15 0 0 0 8.135-8.135A8.15 8.15 0 0 0 256 287.94zm-56.016 96.3h16.004v15.738h-16.004zm32 0h16.004v15.738h-16.004zm32.01 0H280v15.738h-16.005zm32 0h16.004v15.738h-16.004zm46.83-192.046h-173.7l-25.05 175.353v.56c0 61.7 50.196 111.896 111.895 111.896s111.896-50.197 111.896-111.896v-.56l-25.05-175.353zm-78.977 15.737h65.328l21.758 152.305h-87.086v-16.93c22.67-3.766 40.012-23.5 40.012-47.22s-17.342-43.456-40.012-47.22V207.92zm24.274 88.156c0 17.723-14.42 32.142-32.143 32.142s-32.142-14.42-32.142-32.142 14.42-32.142 32.142-32.142 32.143 14.42 32.143 32.142zm-105.34-88.156h65.327v40.935c-22.668 3.766-40 23.5-40 47.222s17.342 43.456 40 47.22v16.93h-87.086l21.76-152.307zM256 464.254a95.59 95.59 0 0 1-53.462-16.271h106.925c-15.298 10.272-33.692 16.27-53.463 16.27zm71.563-32H184.437c-8.35-9.306-14.908-20.25-19.15-32.275h10.7V384.23H161.2c-.46-2.72-.813-5.478-1.042-8.27h191.677a96.47 96.47 0 0 1-1.04 8.27H336.02v15.738h10.7a96.24 96.24 0 0 1-19.147 32.275z"/><path d="M199.984 120.163h112.03V135.9h-112.03zm-55.88-88.155h15.738V176.05h-15.738zM168.1 0h15.738v32.008H168.1zm184.057 32.008h15.738V176.05h-15.738zM328.152 0H343.9v32.008h-15.738zM200.12 24.006h15.738v72.016H200.12zm96.02 0h15.738v72.016H296.14zm-48 32h15.738v24.006H248.13z"/></g></svg>