<svg xmlns="http://www.w3.org/2000/svg" viewBox="0 0 512 512" xmlns:v="https://vecta.io/nano"><circle cx="256.003" cy="256.003" r="248" fill="#77aad4"/><g fill="#1d71b8"><circle cx="288.003" cy="64.001" r="23.998"/><circle cx="175.997" cy="256.003" r="16"/><circle cx="64.001" cy="376.001" r="16"/><circle cx="335.998" cy="175.997" r="16"/><circle cx="200.005" cy="440.002" r="23.998"/><circle cx="79.996" cy="183.999" r="56"/><path d="M256 8c136.966 0 248 111.033 248 248S392.965 504 256 504c0-.001 179.67-308.566 0-496"/></g><path d="M288 95.635c-17.443 0-31.635-14.2-31.635-31.635S270.556 32.367 288 32.367 319.634 46.558 319.634 64 305.443 95.635 288 95.635zm0-48c-9.024 0-16.366 7.34-16.366 16.365S278.976 80.366 288 80.366A16.39 16.39 0 0 0 304.366 64c0-9.023-7.342-16.365-16.366-16.365zm-112 232c-13.03 0-23.634-10.603-23.634-23.635S162.97 232.364 176 232.364s23.635 10.603 23.635 23.635-10.603 23.635-23.635 23.635zm0-32c-4.613 0-8.365 3.753-8.365 8.365s3.752 8.365 8.365 8.365 8.365-3.753 8.365-8.365-3.752-8.365-8.365-8.365zm24 224c-17.443 0-31.635-14.2-31.635-31.635s14.2-31.635 31.635-31.635 31.634 14.2 31.634 31.635-14.2 31.635-31.634 31.635zm0-48c-9.024 0-16.366 7.34-16.366 16.366s7.342 16.366 16.366 16.366 16.365-7.34 16.365-16.366-7.342-16.366-16.365-16.366zm168 .001c-26.266 0-47.635-21.37-47.635-47.635s21.37-47.634 47.635-47.634 47.634 21.37 47.634 47.634-21.37 47.635-47.634 47.635zm0-80c-17.847 0-32.367 14.52-32.367 32.365s14.52 32.366 32.367 32.366 32.365-14.52 32.365-32.366-14.52-32.365-32.365-32.365zm-32-144c-13.033 0-23.635-10.603-23.635-23.635s10.603-23.634 23.635-23.634S359.634 162.97 359.634 176 349.032 199.635 336 199.635zm0-32c-4.613 0-8.366 3.752-8.366 8.365a8.38 8.38 0 0 0 8.366 8.365 8.38 8.38 0 0 0 8.365-8.365 8.38 8.38 0 0 0-8.365-8.365zM437.02 74.98C388.667 26.63 324.38 0 256 0S123.332 26.63 74.98 74.98 0 187.62 0 256s26.63 132.668 74.98 181.02S187.62 512 256 512c44.898 0 89.07-11.8 127.743-34.1 37.5-21.64 69.172-52.678 91.562-89.76C499.3 348.38 512 302.687 512 256c0-68.38-26.63-132.668-74.98-181.02zM464.365 152c0 17.847-14.52 32.366-32.366 32.366s-32.366-14.52-32.366-32.366 14.52-32.365 32.366-32.365 32.366 14.52 32.366 32.365zM80 135.635c26.67 0 48.366 21.697 48.366 48.366S106.67 232.366 80 232.366 31.635 210.67 31.635 184 53.33 135.635 80 135.635zM55.634 376c0-4.613 3.752-8.365 8.365-8.365s8.365 3.752 8.365 8.365-3.753 8.365-8.365 8.365-8.365-3.752-8.365-8.365zm405.974 3.867a241.57 241.57 0 0 1-85.86 84.172C339.504 484.948 298.096 496 256 496c-64.106 0-124.375-24.965-169.706-70.294a243.37 243.37 0 0 1-22.618-26.08c.108.001.216.008.324.008 13.032 0 23.635-10.603 23.635-23.635S77.03 352.365 64 352.365c-9.465 0-17.643 5.595-21.413 13.648C25.216 332.4 16 294.916 16 256c0-16.482 1.663-32.708 4.885-48.493C30.257 231 53.215 247.635 80 247.635c35.088 0 63.635-28.546 63.635-63.634S115.088 120.365 80 120.365a63.25 63.25 0 0 0-25.69 5.436c9.142-14.098 19.822-27.346 31.985-39.508C131.625 40.963 191.894 16 256 16s124.375 24.965 169.705 70.294a242.26 242.26 0 0 1 17.41 19.395 47.55 47.55 0 0 0-11.116-1.323c-26.266 0-47.635 21.37-47.635 47.634s21.37 47.635 47.635 47.635c21.967 0 40.5-14.95 45.98-35.2C489.8 193.084 496 224.065 496 256c0 43.77-11.894 86.605-34.392 123.867zM32 264.37h16v15.27H32z" fill="#1d1d1b"/><path d="M192.002 143.996h16v16h-16z" fill="#fff"/><path d="M359.996 80.36h16v15.27h-16z" fill="#1d1d1b"/><path d="M256.003 216h16v16h-16z" fill="#fff"/><path d="M359.996 256.367h16v15.27h-16zm88.01-32h16v15.27h-16zm0 96h16v15.27h-16z" fill="#1d1d1b"/><path d="M263.995 295.995h16v16h-16zm-95.99 32h16v16h-16zM248 400h16v16h-16z" fill="#fff"/><path d="M303.998 448.37h16v15.27h-16z" fill="#1d1d1b"/><path d="M104.004 376h16v16h-16zM128 87.998h16v16h-16zm79.997-47.995h16v16h-16z" fill="#fff"/></svg>