<svg xmlns="http://www.w3.org/2000/svg" viewBox="0 0 512 512" xmlns:v="https://vecta.io/nano"><circle cx="472.581" cy="48.056" r="31.501" fill="#f9b233"/><circle cx="224.507" cy="280.383" r="169.316" fill="#1d71b8"/><circle cx="368.978" cy="201.245" r="17.789" fill="#fff"/><path d="M228.568 113.486s138.57 144.75-4.06 336.215c0 0-169.913-1.058-169.32-181.133 0-.001 15.746-146.58 173.38-155.082z" fill="#77aad4"/><path d="M236.317 166.182h86.632v70.874h-86.632z" fill="#f9b233"/><path d="M283.573 166.187L236.32 213.44v23.626h39.38l47.25-47.252v-23.626z" fill="#fac15c"/><path d="M417.455 166.182h86.632v70.874h-86.632z" fill="#f9b233"/><path d="M464.708 166.187l-47.252 47.252v23.626h39.376l47.252-47.252v-23.626z" fill="#fac15c"/><path d="M165.443 268.53h63.003v15.832h-63.003zm-55.126 31.495h23.626v15.832h-23.626zm55.126-110.253h31.502v15.832h-31.502zm70.874 196.885h39.38v15.832h-39.38zM189.065 410.3h23.626v15.832h-23.626zm141.758-118.14h23.626v15.832h-23.626zm78.717-133.88v35.062h-18c-3.275-9.3-12.153-16.005-22.57-16.005a23.95 23.95 0 0 0-4.007.342c-33.103-45.623-86-72.714-142.494-72.714-97.026 0-175.962 78.936-175.962 175.962 0 30.1 7.674 59.587 22.238 85.68-24.572 30.566-43.62 57.812-55.197 78.996-14.7 26.914-17.372 43.636-8.38 52.625 3.428 3.43 8.032 5.144 13.9 5.143 6.467 0 14.462-2.1 24.084-6.273 14.8-6.438 33.616-17.77 55.892-33.682 11.968-8.55 24.628-18.2 37.783-28.773 26.067 14.546 55.615 22.245 85.65 22.245 97.026 0 175.962-78.936 175.962-175.962 0-21.947-3.982-43.3-11.83-63.526a23.95 23.95 0 0 0 4.936-8.228h17.988v35.817H512v-86.7H409.54zm-32.47 42.98a8.1 8.1 0 0 1-8.089 8.088 8.1 8.1 0 0 1-8.088-8.088 8.1 8.1 0 0 1 8.088-8.089 8.1 8.1 0 0 1 8.089 8.089zm-26.033-15.793a23.92 23.92 0 0 0-4.624 7.877h-15.547V163.07a160.58 160.58 0 0 1 20.171 22.388zm-106.8 31.263l42.616-42.616h28.182v12.43l-42.616 42.616h-28.182v-12.43zm0-22.392v-20.225h20.225l-20.225 20.225zm70.798 14.597v20.225H294.8l20.224-20.225zm-225.2 241.6c-53.267 38.047-71.503 38.472-73.47 36.5-1.013-1.012-2.1-9.723 11.078-33.84 10.597-19.4 27.87-44.267 50.18-72.336 12.132 17.545 27.4 32.787 44.945 44.9-11.36 9.025-22.318 17.324-32.735 24.765zm274.482-95.37h-80.754v15.832h71.236c-28.857 42.263-77.405 70.06-132.328 70.06a160.23 160.23 0 0 1-72.363-17.267c32.946-27.336 68.508-59.912 103.954-95.36l63.968-65.038-11.286-11.1-63.923 65c-36.73 36.73-73.558 70.325-107.36 98.073-9.27-6.016-17.897-12.97-25.727-20.733h16.322V378.78H95.752c-3.807-4.92-7.347-10.056-10.566-15.404-14.938-24.816-22.834-53.33-22.834-82.46a160.6 160.6 0 0 1 2.464-28.06h92.75v-15.832h-89.1c10.085-35.335 32.03-65.716 61.233-86.55h75.12v-15.832h-47.467c19.908-8.9 41.95-13.856 65.128-13.856 38.122 0 74.437 13.552 102.95 37.482h-97.026v86.7h102.462V209.15h15.547c3.276 9.3 12.153 16.004 22.568 16.004a24.01 24.01 0 0 0 3.55-.265c6.684 17.875 10.08 36.682 10.08 56.014.001 26.78-6.616 52.036-18.283 74.24zm81.268-181.052l-20.225 20.225v-20.225h20.225zM425.37 216.72l42.616-42.616h28.182v12.43l-42.616 42.616H425.37v-12.43zm50.573 12.43l20.225-20.225v20.225h-20.225zm-342.005 126h31.5v15.832h-31.5zM472.582 87.474c-21.735 0-39.418-17.683-39.418-39.418S450.847 8.64 472.582 8.64 512 26.32 512 48.056s-17.683 39.418-39.418 39.418zm0-63.002c-13.005 0-23.586 10.58-23.586 23.585s10.58 23.586 23.586 23.586 23.586-10.58 23.586-23.586-10.58-23.585-23.586-23.585z" fill="#1d1d1b"/></svg>