<svg xmlns="http://www.w3.org/2000/svg" viewBox="0 0 512 512" xmlns:v="https://vecta.io/nano"><g fill="#fac15c"><path d="M431.016 127.228L386.1 82.313l27.656-27.657 50.448-4.866-5.532 49.782z"/><path d="M325.925 254.448l-66.378-66.378L381.232 66.386l66.378 66.378z"/></g><path d="M325.93 254.445l-22.125-22.125L425.49 110.635l22.125 22.125z" fill="#f9b233"/><path d="M193.166 409.316L104.67 320.82 248.48 177l88.496 88.496z" fill="#fac15c"/><path d="M193.167 409.324l-27.656-27.656 143.81-143.81 27.656 27.656z" fill="#f9b233"/><path d="M292.722 309.76l-88.496-88.496 38.72-38.72 88.496 88.496zm121.7-143.814l-66.378-66.378 33.188-33.188 66.378 66.378z" fill="#1d71b8"/><path d="M130.332 470.17c-24.44 24.44-121.69 33.188-121.69 33.188s8.75-97.25 33.188-121.69" fill="#f9b233"/><circle cx="113.739" cy="398.263" r="18.915" fill="#77aad4"/><path d="M138.045 391.047c2.615 8.115.723 17.366-5.72 23.8-9.165 9.164-24.023 9.164-33.188 0s-9.165-24.024 0-33.188c6.83-6.828 16.816-8.56 25.256-5.214-24.548-19.06-60.014-17.336-82.562 5.214-24.44 24.44-33.188 121.688-33.188 121.688s97.25-8.75 121.69-33.188c21.514-21.514 24.078-54.79 7.713-79.122z" fill="#f9b233"/><path d="M246.475 232.33l-11.062-11.062L246.5 210.2l11.062 11.062zm22.138 22.122l-11.06-11.052 11.077-11.077 11.062 11.062zm22.114 22.13l-11.062-11.062 11.077-11.077 11.062 11.062z" fill="#fff"/><path d="M91.597 320.825l99.578 99.578L346.068 265.5l-99.58-99.58-154.89 154.895zm22.155 0l88.485-88.486 77.424 77.424-88.486 88.485-77.423-77.423zm177-22.14l-77.424-77.424L246.5 188.09l77.424 77.424-33.172 33.172zM86.088 326.348L75 337.426l18.47 18.47a71.35 71.35 0 0 0-7.4-.39c-18.808 0-36.5 7.325-49.8 20.623C10.586 401.835 1.763 492.413.84 502.655L0 512l9.345-.84c10.244-.92 100.82-9.746 126.526-35.45 13.3-13.3 20.624-30.98 20.624-49.8 0-2.5-.137-4.957-.4-7.4l18.47 18.472 11.077-11.078-99.564-99.565zm43.284 71.914c0 4.176-1.626 8.102-4.58 11.054v.001a15.53 15.53 0 0 1-22.109 0 15.53 15.53 0 0 1 0-22.109c2.954-2.953 6.88-4.58 11.055-4.58a15.53 15.53 0 0 1 15.633 15.634zm-4.58 66.368c-16.484 16.484-76.22 26.366-107.333 29.94 1.105-9.463 3.148-24.93 6.306-41.418 6.47-33.772 14.852-57.2 23.604-65.943 10.34-10.34 24.088-16.036 38.712-16.036 3.52 0 7 .338 10.373.984a31.61 31.61 0 0 0-4.85 3.973 31.09 31.09 0 0 0 0 44.265c5.913 5.912 13.772 9.17 22.133 9.17a31.1 31.1 0 0 0 22.133-9.168 31.56 31.56 0 0 0 3.973-4.85 55.22 55.22 0 0 1 .984 10.374c0 14.623-5.694 28.37-16.035 38.7zm138.283-293.16l11.078 11.078 71.9-71.9 55.296 55.296-71.9 71.9 11.078 11.078 116.165-116.166-77.452-77.452L263.075 171.47zm149.353-16.602L357.132 99.57l22.1-22.1 55.298 55.298-22.112 22.1zM512 11.078L500.922 0l-42.3 42.3-49.78 5.53-13.005 13.006 11.078 11.078 9.12-9.12 37.32-4.148-4.148 37.32-9.12 9.12 11.08 11.078 13.006-13.005 5.53-49.78z" fill="#1d1d1b"/><path d="M428.995 94.056l-11.063-11.063 11.077-11.077 11.063 11.063zm-33.17 33.176l-11.062-11.062 11.077-11.077 11.062 11.062z" fill="#fff"/></svg>