<svg xmlns="http://www.w3.org/2000/svg" viewBox="0 0 511.999 511.999" xmlns:v="https://vecta.io/nano"><g fill="#1d71b8"><circle cx="440.095" cy="440.105" r="40.031"/><circle cx="255.973" cy="255.984" r="168.111"/></g><path d="M255.976 424.77c-92.844 0-168.1-75.265-168.1-168.11s75.266-168.1 168.1-168.1" fill="#77aad4"/><path d="M247.97 424.094s43.53 8.506 96.063-24.016l8.006-8.005-16-16 8.006-48.03-24.016-24.016-32.02-16h-48.03l-24.016 8.005-16 32.02 8.005 40.026h32.02l8.005 32.02-.002 24.017zM175.925 143.9h16l24.016-48.03s-27.4-5.453-56.037 24.016l16 24.015zm152.1 48.032l8.005 40.026v24.016l-16 16L352.04 280l16-40.026-8.006-56.037 32.02 16h16c-7.824-58.357-72.048-88.058-72.048-88.058L312 103.884l-24.016 16L280 143.9h-32.02l8.006 16v40.026h-32.02v40.026l32.02 8.005 32.02-8.005v-40.026l40.03-8.006zM95.872 280l40.026 8.005 16 24.016v32.02l-8.006 24.016-8.006 8.005c0-.001-44.417-44.68-40.025-96.063z" fill="#fac15c"/><path d="M255.976 512c-.845 0-1.688-.004-2.53-.013l.148-15.705c10.264.094 20.673-.457 30.83-1.654l1.84 15.598c-9.982 1.177-20.172 1.774-30.288 1.774zm-18.953-.7a256.99 256.99 0 0 1-32.561-4.495l3.145-15.388c10.024 2.05 20.307 3.468 30.563 4.22l-1.147 15.664zm65.505-3.532l-2.84-15.448c10.093-1.854 20.16-4.385 29.92-7.524l4.808 14.953c-10.404 3.345-21.134 6.042-31.9 8.02zm-114.062-4.774a255.1 255.1 0 0 1-31.113-10.691l6.053-14.493a239.52 239.52 0 0 0 29.19 10.03l-4.13 15.153zm161.44-8.786l-5.765-14.6a239.5 239.5 0 0 0 27.91-13.155l7.598 13.746a255.87 255.87 0 0 1-29.744 14.02zm-207.535-8.74a256.88 256.88 0 0 1-28.46-16.476l8.727-13.06c8.54 5.707 17.526 10.9 26.7 15.465l-6.978 14.07zm-41.838-26.05a258.2 258.2 0 0 1-24.774-21.601l11.056-11.155c7.3 7.226 15.118 14.05 23.263 20.282l-9.545 12.474zm-36.076-33.54a258.24 258.24 0 0 1-20.202-25.917l12.98-8.844a242.53 242.53 0 0 0 18.966 24.335l-11.744 10.426zM35.443 386.1A256.25 256.25 0 0 1 20.577 356.8l14.436-6.2a240.27 240.27 0 0 0 13.95 27.494l-13.52 7.992zm445.177-7.222l-13.773-7.55a240 240 0 0 0 13.058-27.958l14.63 5.714a256.14 256.14 0 0 1-13.916 29.794zm-466.023-37.37a255.44 255.44 0 0 1-8.953-31.634l15.36-3.3a239.39 239.39 0 0 0 8.399 29.68l-14.805 5.245zm485.425-7.938l-14.97-4.755a239.51 239.51 0 0 0 7.42-29.95l15.457 2.784c-1.94 10.77-4.6 21.5-7.908 31.922zM2.72 293.692a258.25 258.25 0 0 1-2.71-32.75l15.704-.296a242.71 242.71 0 0 0 2.545 30.753l-15.54 2.293zm507.603-8.318l-15.604-1.785a243.93 243.93 0 0 0 1.568-27.605l-.022-3.238 15.704-.202.023 3.432a258.95 258.95 0 0 1-1.67 29.398zM15.904 245.2l-15.692-.7a258.27 258.27 0 0 1 3.54-32.672l15.475 2.688a242.33 242.33 0 0 0-3.323 30.676zm479.668-7.88c-.786-10.247-2.243-20.524-4.328-30.546l15.378-3.2c2.222 10.678 3.774 21.628 4.6 32.544l-15.66 1.202zm-473.2-37.906l-15.27-3.683a254.99 254.99 0 0 1 9.769-31.417l14.666 5.625a239.35 239.35 0 0 0-9.166 29.475zm465.252-7.638c-2.73-9.876-6.137-19.68-10.128-29.135l14.47-6.106c4.253 10.08 7.884 20.527 10.795 31.056l-15.138 4.185zM37.527 155.7l-14.27-6.562a256.05 256.05 0 0 1 15.637-28.93l13.308 8.34c-5.453 8.702-10.4 17.838-14.674 27.152zm433.514-7.057a240.57 240.57 0 0 0-15.538-26.636l13.03-8.768a256.79 256.79 0 0 1 16.555 28.381l-14.048 7.023zM60.82 115.73l-12.747-9.178a258.26 258.26 0 0 1 20.872-25.393L80.42 91.887a242.2 242.2 0 0 0-19.598 23.843zm385.662-6.242a242.61 242.61 0 0 0-20.351-23.195l11.12-11.1a258.42 258.42 0 0 1 21.674 24.702l-12.444 9.584zM91.318 80.952L80.553 69.515a258.24 258.24 0 0 1 25.32-20.948l9.22 12.717c-8.306 6.02-16.304 12.637-23.775 19.668zm323.568-5.24a242.21 242.21 0 0 0-24.403-18.898l8.802-13.008a258.22 258.22 0 0 1 25.991 20.127l-10.4 11.78zm-287.022-23.08l-8.385-13.28c9.244-5.837 18.95-11.125 28.85-15.72l6.6 14.247a240.78 240.78 0 0 0-27.076 14.753zm249.556-4.06a240.13 240.13 0 0 0-27.57-13.874L356 20.244a256.24 256.24 0 0 1 29.38 14.784l-7.95 13.546zM169.12 31.85l-5.68-14.644a255.03 255.03 0 0 1 31.359-9.879l3.74 15.254c-9.96 2.44-19.86 5.56-29.42 9.27zm166.315-2.73c-9.68-3.392-19.685-6.182-29.733-8.296l3.233-15.37a254.81 254.81 0 0 1 31.692 8.843l-5.192 14.823zM213.637 19.4l-2.75-15.465a257.65 257.65 0 0 1 32.66-3.663l.75 15.7a242.4 242.4 0 0 0-30.662 3.439zm76.87-1.254c-10.122-1.457-20.473-2.274-30.763-2.432L259.986 0a258.91 258.91 0 0 1 32.756 2.591l-2.235 15.546zM467.2 400.673l4.563-6.883-13.23-8.466a242.95 242.95 0 0 1-5.785 8.613 47.72 47.72 0 0 0-12.664-1.713c-26.4 0-47.88 21.48-47.88 47.88 0 4.384.604 8.626 1.713 12.663a241.38 241.38 0 0 1-8.618 5.788l8.465 13.23c2.3-1.477 4.6-3.003 6.888-4.566 8.644 12.53 23.092 20.764 39.432 20.764 26.4 0 47.88-21.478 47.88-47.88 0-16.34-8.233-30.788-20.764-39.43zm-27.114 71.604c-17.74 0-32.173-14.432-32.173-32.173s14.432-32.173 32.173-32.173 32.173 14.433 32.173 32.173-14.433 32.173-32.173 32.173zM255.976 80.02c-97.026 0-175.964 78.936-175.964 175.963s78.937 175.963 175.964 175.963S431.94 353 431.94 255.984 353.003 80.02 255.976 80.02zm146.956 112.073h-9.012L350.15 170.2l9.83 68.797-12.685 31.712-11.915-2.98 8.502-8.503v-36.24l-10.055-40.223-53.683 10.736v40.333l-24.168 6.042-24.168-6.042v-26.04h32.02V158.07l-3.152-6.304h24.974l8.767-26.3 29.1-14.556-.147-.293c35.444 16.5 63.885 45.584 79.55 81.478zm-200.247-87.246l-15.604 31.2h-6.955l-10.16-15.24c10.185-6.503 21.15-11.88 32.72-15.97zM99.337 289.873l31.914 5.32 12.805 19.207v28.676l-5.47 21.88c-19.233-20.705-33.067-46.483-39.248-75.08zM255.824 416.24v-17.127l-9.726-38.907h-31.714l-6.213-31.07 13.35-26.702 19.72-6.574h44.904l29.222 14.612 20.257 20.257-8.006 48.03 13.152 13.152c-24.6 15.408-53.677 24.33-84.793 24.33l-.153-.003zm98.032-33.455l-9.418-9.418 8.006-48.03-27.774-27.774-34.818-17.4h-51.16l-28.3 9.436-18.67 37.342 9.796 48.98h32.328l6.283 25.135v14.4c-33.6-3.316-64.198-17.058-88.483-37.938l8.128-32.5v-35.366l-19.218-28.824-43.863-7.3c-.63-5.757-.962-11.602-.962-17.523 0-51.112 24.053-96.7 61.432-126.075l14.57 21.855h25.066l26.186-52.373-.333-.166a160.28 160.28 0 0 1 33.335-3.497c16.738 0 32.883 2.584 48.062 7.366l-22.462 11.232-7.244 21.73h-39.07l12.86 25.718v30.32h-32.02v54l39.874 9.968 39.874-9.968v-39.72l26.37-5.274 5.955 23.818v27.8l-23.518 23.518 52.128 13.03 19.336-48.34-6.182-43.278 20.273 10.137h18.616c4.806 15.214 7.405 31.4 7.405 48.183.001 51.54-24.462 97.466-62.377 126.8z" fill="#1d1d1b"/></svg>