<svg xmlns="http://www.w3.org/2000/svg" viewBox="0 0 512 512" xmlns:v="https://vecta.io/nano"><circle cx="448.11" cy="288.018" r="32.019" fill="#77aad4"/><circle cx="199.963" cy="256" r="168.101" fill="#1d71b8"/><path d="M77.86 373.644s110.69 35.014 242.178 0c0 0-109.33 113.442-242.178 0z" fill="#77aad4"/><path d="M368.066 247.995c0-92.838-75.26-160.095-168.1-160.095s-168.1 67.257-168.1 160.095c0 0 151.554 88.536 336.198 0" fill="#f9b233"/><path d="M87.9 135.93s21.328-31.08 40.024-24.015c20.843 7.876 101.937 33.17 144.086-8.005 0 0 35.52 7.435 48.03 40.024-.002.001-119.034 80.82-232.14-8.004z" fill="#fac15c"/><path d="M512 245.99c0-41.365-80.392-66.137-158.607-76.04-30.185-53.61-87.642-89.904-153.426-89.904-79.38 0-146.637 52.84-168.477 125.19C10.592 217.292 0 230.984 0 245.99c0 13.62 8.817 26.218 26.162 37.475 13.226 84.02 86.125 148.488 173.805 148.488 74.205 0 137.825-46.174 163.645-111.298 18.506-2.63 35.907-5.935 51.817-9.84 7.214 10.314 19.17 17.078 32.685 17.078 21.985 0 39.87-17.887 39.87-39.872a39.94 39.94 0 0 0-.413-5.686C503.785 271.366 512 259.153 512 245.99zM122.677 115.665c14.795 12.286 43.97 20.11 77.3 20.11s62.495-7.827 77.29-20.112c12.844 7.102 24.613 15.915 35 26.13C294.72 157.43 253.02 168.1 207.97 168.1c-31.097 0-60.214-4.796-81.987-13.506-15.256-6.103-25.553-13.763-28.977-21.284 7.94-6.674 16.532-12.593 25.67-17.645zm138.3-7.834c-12.327 6.765-33.93 12.24-61 12.24-27.074 0-48.68-5.476-61.01-12.24 18.815-7.775 39.417-12.078 61.01-12.078s42.194 4.304 61 12.08zM85.185 144.3c6.274 9.616 18.165 18.155 34.967 24.875 23.583 9.434 54.772 14.63 87.82 14.63 50.094 0 94.102-11.823 114.927-30.48a160.73 160.73 0 0 1 20.308 30.888l-.037.327.21.024c8.073 16.14 13.498 33.822 15.707 52.478-23.924 25.555-88.11 43.124-159.12 43.124s-135.198-17.57-159.12-43.124c4.245-35.86 20.376-68.126 44.337-92.742zm235.17 217.337c-30.822 13.35-74.545 20.99-120.39 20.99s-89.57-7.64-120.39-20.99c-16.934-19.275-29.32-42.632-35.476-68.386 46.55 21.59 125.075 34.64 211.9 34.64 30.988 0 61.018-1.67 89.536-4.934a160.79 160.79 0 0 1-25.181 38.681zM39.73 256.9c31.778 23.785 92.504 38.982 160.236 38.982s128.46-15.197 160.236-38.982c-.094 17.258-2.932 33.877-8.096 49.447-30.385 3.866-62.66 5.85-96.106 5.85-90.293 0-173.643-14.92-215.272-38.26a161 161 0 0 1-.998-17.035zm-24.025-10.9c0-5.788 3.664-11.917 10.54-17.96a176.45 176.45 0 0 0-2.232 27.97c0 2.02.047 4.03.114 6.033-4.817-4.7-8.423-10.175-8.423-16.043zm93.324 141.88c27.114 6.765 58.59 10.464 90.937 10.464s63.823-3.7 90.937-10.465c-25.853 17.884-57.19 28.38-90.937 28.38a159.34 159.34 0 0 1-90.937-28.378zm339.084-75.683c-13.326 0-24.167-10.84-24.167-24.167s10.84-24.167 24.167-24.167 24.166 10.84 24.166 24.167-10.84 24.167-24.166 24.167zm33.88-45.158c-7.042-11.324-19.592-18.88-33.88-18.88-21.986 0-39.872 17.887-39.872 39.872a39.82 39.82 0 0 0 .846 8.174c-12.402 2.962-25.738 5.55-39.806 7.74 4.32-15.244 6.637-31.323 6.637-47.932 0-24.512-5.044-47.865-14.14-69.086 88.4 12.574 134.516 38.555 134.516 59.076-.001 8.094-6.86 15.444-14.302 21.038z" fill="#1d1d1b"/></svg>