<svg xmlns="http://www.w3.org/2000/svg" viewBox="0 0 512 512" xmlns:v="https://vecta.io/nano"><path d="M88.277 0h15.68v15.994h-15.68z" fill="#1d71b8"/><path d="M296.042 495.966h15.994v15.68h-15.994z" fill="#fff"/><path d="M32.137 63.973h447.83v327.88H32.137z" fill="#f9b233"/><path d="M32.137 63.973h223.915v327.88H32.137z" fill="#fac15c"/><path d="M354.158 319.88h-16.13c-23.65 15.184-51.784 23.99-81.977 23.99s-58.327-8.807-81.977-23.99h-16.13c-82.733 0-149.8 67.068-149.8 149.802v42.126L503.96 512V469.68c0-82.734-67.07-149.802-149.8-149.802z" fill="#1d71b8"/><path d="M399.998 143.946c26.5 0 47.982 21.482 47.982 47.982S426.497 239.9 399.998 239.9m-287.892.01c-26.5 0-47.982-21.482-47.982-47.982s21.482-47.982 47.982-47.982" fill="#fff"/><circle cx="256.048" cy="191.929" r="151.946" fill="#1d71b8"/><circle cx="376.007" cy="71.972" r="31.988" fill="#fac15c"/><path d="M256.052,343.87c-83.915,0-151.942-68.027-151.942-151.942S172.137,39.985,256.052,39.985" fill="#77aad4"/><circle cx="256.048" cy="191.929" r="119.959" fill="#fff"/><path d="M487.965 399.85c-26.5 0-47.982 21.482-47.982 47.982s21.482 47.982 47.982 47.982h15.994s4.75-77.437-15.994-95.964m-95.963-71.973l-47.982-7.997c-44.907 25.93-87.967 24-87.967 24v39.985c-.001-.001 74.544 4.956 135.95-55.98z" fill="#f9b233"/><path d="M232.062 383.855v23.99h103.96v103.96H8.146v-42.234c0-66.723 43.654-123.25 103.96-142.578 0 0 44.985 53.86 119.957 56.86z" fill="#77aad4"/><path d="M112.106 327.877l55.98-7.997c52.48 27.49 87.967 23.99 87.967 23.99v39.985c0-.001-82.54 4.956-143.946-55.98z" fill="#f9b233"/><path d="M8.146 446.2H80.12v49.6H8.146z" fill="#fac15c"/><path d="M256.052 319.722c-70.466 0-127.795-57.33-127.795-127.795s57.33-127.793 127.795-127.793 127.795 57.328 127.795 127.794-57.33 127.794-127.795 127.794zm0-239.9c-61.82 0-112.115 50.295-112.115 112.114S194.232 304.04 256.052 304.04s112.115-50.295 112.115-112.115S317.873 79.813 256.052 79.813zM112.65 511.854l-.432-71.863h31.878v15.68H128l.338 56.1z" fill="#1d1d1b"/><path d="M296.042 431.993h15.994v15.68h-15.994zm0 31.987h15.994v15.68h-15.994zM368 64.13h15.994V79.8H368z" fill="#fff"/><path d="M181.62 173.48l-11.087-11.087 32-32L213.6 141.5zm.008 55.98l-11.087-11.087 103.96-103.96 11.087 11.087zm79.972-15.987l-11.087-11.087 24-24 11.087 11.087zm-.005 55.974L250.5 258.36l79.966-79.966 11.087 11.087z" fill="#1d1d1b"/><path d="M56.285 255.9h15.68v15.994h-15.68zm0 24h15.68v15.994h-15.68zm0 24h15.68v15.994h-15.68z" fill="#fff"/><path d="M376.007 455.67h16.104l-.338 56.1 15.68.094.433-71.863h-31.878zm135.893 15.5v-.156a158.09 158.09 0 0 0-24.092-83.95V56.136h-75.266c-6.137-14.102-20.2-24-36.534-24-16.18 0-30.128 9.705-36.355 23.595-25.108-15.463-53.8-23.595-83.6-23.595a158.82 158.82 0 0 0-84.113 23.99h-59.833v15.68H150.8c-19.777 17.352-35.25 39.496-44.58 64.602a54.17 54.17 0 0 0-2.267.29V24h-15.68v117.47c-18.9 8.957-31.988 28.208-31.988 50.465 0 28.792 21.912 52.558 49.935 55.5 9.373 25.22 24.94 47.452 44.845 64.838-11.183.578-22.25 2.3-32.997 5.184a157.6 157.6 0 0 0-8.415 2.51c-27.616 9.08-51.405 25.155-69.677 45.884V71.816H80.12v-15.68H24.3v330.8C8.962 411.573.306 440.52.306 471.07L.1 511.767l15.68.08.042-8.194H87.96v-63.66H19.397c1.226-5.553 2.773-10.996 4.628-16.308h32.103v-15.68H30.565c2.73-5.585 5.8-10.985 9.22-16.15h.2v-.3c16.613-24.96 41.028-44.603 70.558-55.28 13.066 10.445 59.983 45.358 113.686 54.36v25.053h103.96v96.12h15.68v-111.8H239.9v-8.96c5.345.425 10.73.65 16.15.65 52.797 0 102.432-20.342 140.02-57.304 31.38 9.95 58.12 30.428 76.057 57.268v.193h.128l.42.637c-23.368 6.666-40.532 28.197-40.532 53.675 0 30.78 25.04 55.82 55.82 55.82h7.657l-.187 9.972 16.43.043.037-40.84zm-439.62-15.5v32.302H15.9l.045-8.907 40.067.594.233-15.677-40.028-.594a144.74 144.74 0 0 1 .617-7.719H72.28zM376.007 47.825c13.315 0 24.15 10.833 24.15 24.15s-10.833 24.148-24.15 24.148-24.15-10.833-24.15-24.148 10.834-24.15 24.15-24.15zM71.965 191.927c0-18.276 12.28-33.728 29.02-38.563-3.073 12.356-4.715 25.27-4.715 38.563a159.58 159.58 0 0 0 4.715 38.563c-16.74-4.835-29.02-20.286-29.02-38.563zm39.985 0c0-79.46 64.644-144.103 144.103-144.103 28.784 0 56.394 8.416 80.132 24.34.105 21.807 17.822 39.525 39.63 39.63 15.925 23.737 24.342 51.347 24.342 80.132 0 79.46-64.645 144.103-144.103 144.103S111.95 271.386 111.95 191.927zm299.2-38.55c16.72 4.85 28.98 20.3 28.98 38.55 0 18.276-12.28 33.728-29.022 38.563 3.073-12.354 4.716-25.27 4.716-38.563.001-13.14-1.585-26.06-4.675-38.55zM248.213 351.515v24.325c-42.428-1.764-82.272-17.836-113.982-45.907 8.267-1.46 16.682-2.216 25.147-2.216h12.564c22.36 13.905 48.386 22.445 76.27 23.798zm15.68 24.326v-24.325a158.72 158.72 0 0 0 76.273-23.796h12.665a143.72 143.72 0 0 1 25.065 2.197c-31.712 28.08-71.562 44.158-114.003 45.924zm97.174-63.6c19.892-17.383 35.45-39.606 44.82-64.815 28.023-2.95 49.935-26.717 49.935-55.5 0-28.772-21.882-52.525-49.878-55.502-3.6-9.746-8.2-19.15-13.702-28.098 13.9-6.227 23.595-20.174 23.595-36.355 0-.052-.004-.105-.004-.157h56.297v294.212c-27.476-31.155-66.922-51.513-111.063-53.776zm126.9 174.054c-22.134 0-40.142-18.007-40.142-40.142 0-19.72 14.297-36.15 33.066-39.504a142.35 142.35 0 0 1 11.92 33.332h-20.84v15.68h23.416a144.04 144.04 0 0 1 .833 15.268l-.296 15.368h-7.96v-.002z" fill="#1d1d1b"/></svg>