<svg xmlns="http://www.w3.org/2000/svg" viewBox="0 0 512.003 512.003" xmlns:v="https://vecta.io/nano"><path d="M137.846 385.965h47.263v23.63h-47.263zm94.524 0h47.263v23.63H232.37zm94.526 0h47.263v23.63h-47.263z" fill="#1d71b8"/><path d="M240.247 15.754L30.053 345.058c-11.26 17.638 1.496 40.74 22.42 40.61h407.99c19.708-.122 33.656-24.497 22.987-41.07L271.755 15.754c-12.653-18.823-18.927-18.87-31.508 0z" fill="#f9b233"/><path d="M52.473 385.667c-20.925.13-33.68-22.97-22.42-40.61L240.247 15.754s4.682-9.127 13.577-7.877l2.114 377.79H52.473z" fill="#fac15c"/><path d="M287.51 47.26h-63.015s18.2-39.067 30.523-39.384c19.07-.49 32.492 39.384 32.492 39.384z" fill="#77aad4"/><path d="M192.986 385.97H129.97V267.815c0-17.402 14.107-31.508 31.51-31.508h0c17.4 0 31.508 14.106 31.508 31.508l-.001 118.154z" fill="#1d71b8"/><path d="M129.97 354.464h63.013v31.512H129.97z" fill="#fff"/><path d="M382.032 385.97h-63.015V267.815c0-17.402 14.106-31.508 31.508-31.508h0c17.4 0 31.508 14.106 31.508 31.508V385.97z" fill="#1d71b8"/><path d="M319.02 354.464h63.013v31.512H319.02z" fill="#fff"/><path d="M74.83 385.97H49.708c-16.577 0-26.94-15.643-22.138-31.508 6.173-20.387 47.26-79.558 47.26-79.558V385.97zm362.34 0h25.124c16.577 0 28.12-17.075 23.316-32.94-6.173-20.386-48.44-80.32-48.44-80.32v113.26z" fill="#77aad4"/><path d="M311.14 146.867c0-30.452-24.687-55.14-55.138-55.14s-55.14 24.687-55.14 55.14L256 178.375l55.138-31.508z" fill="#fff"/><path d="M137.848 417.477h15.754v23.63h15.753v-23.63h15.753v-15.754h-47.26zm236.307-15.754h-47.26v15.754h15.754v23.63h15.75v-23.63h15.754zm-94.525 0h-47.26v15.754h15.754v23.63h15.753v-23.63h15.753zm-259.936.003h15.75v110.276h-15.75zM51.2 441.103h15.75v55.138H51.2zm23.633-39.377h15.75v23.63h-15.75zm401.727 0h15.75v110.276h-15.75zm-31.513 39.377h15.75v55.138h-15.75zm-23.627-39.377h15.75v23.63h-15.75zM237.94 139.468l-11.138-11.138 15.753-15.753 11.138 11.138zm31.507.006L258.3 128.336l15.753-15.753L285.2 123.72zm-115.84 317.4h15.75v55.14h-15.75zm94.515 0h15.75v55.14h-15.75zm94.525 0h15.75v55.14h-15.75z" fill="#1d1d1b"/><path d="M216.62 252.063h15.75v15.75h-15.75zm0 31.502h15.75v15.75h-15.75zm0 31.512h15.75v15.75h-15.75zm63.013-31.512h15.75v15.75h-15.75zm0 31.512h15.75v15.75h-15.75zm0-63.014h15.75v15.75h-15.75z" fill="#fff"/><path d="M487.32 347.476L280.256 13.5C275.015 5.047 265.948 0 256.002 0a28.36 28.36 0 0 0-24.256 13.5L24.68 347.476c-5.535 8.927-5.8 19.738-.68 28.915s14.432 14.66 24.937 14.66h414.13c10.505 0 19.825-5.48 24.935-14.66s4.853-19.988-.68-28.916zm-136.797-103.29c13.03 0 23.63 10.6 23.63 23.63v78.77h-47.26v-78.77c0-13.03 10.6-23.63 23.63-23.63zm-23.63 118.153h47.26v12.96h-47.26v-12.96zM358.4 229.224v-16.547h-15.754v16.547c-17.955 3.66-31.508 19.572-31.508 38.59v107.483h-47.26V182.946l55.14-31.508v-4.57c0-34.748-28.268-63.015-63.015-63.015s-63.015 28.268-63.015 63.015v4.57l55.14 31.508v192.352h-47.26V267.815c0-19.02-13.552-34.932-31.508-38.59v-16.547h-15.754v16.547c-17.955 3.66-31.51 19.572-31.51 38.59v107.483H82.71V283.78l141.76-228.643h63.066l141.76 228.645v91.515H389.91V267.815c0-19.02-13.552-34.932-31.508-38.59zM256 169.302l-47.053-26.887c2.25-23.98 22.495-42.8 47.053-42.8s44.803 18.83 47.053 42.8L256 169.302zm-94.523 74.883c13.03 0 23.63 10.6 23.63 23.63v78.77h-47.263v-78.77c.001-13.03 10.603-23.63 23.632-23.63zm-23.63 118.153H185.1v12.96h-47.263v-12.96zm107.3-340.536c2.382-3.845 6.343-6.048 10.865-6.048s8.48 2.205 10.864 6.048l10.9 17.583h-43.53l10.9-17.583zM37.765 368.73c-2.288-4.112-2.174-8.955.305-12.953L66.955 309.2v66.108h-18.02c-4.706 0-8.882-2.455-11.17-6.567zm436.47 0c-2.288 4.112-6.464 6.567-11.17 6.567h-18.02V309.19l28.884 46.587a12.62 12.62 0 0 1 .305 12.953z" fill="#1d1d1b"/></svg>