<svg xmlns="http://www.w3.org/2000/svg" viewBox="0 0 512.007 512.007" xmlns:v="https://vecta.io/nano"><path d="M263.23 112.35c-43.244 0-82.02 19.11-108.358 49.34 35.69 16.404 60.472 52.463 60.472 94.316s-24.782 77.91-60.472 94.316c26.337 30.232 65.114 49.34 108.358 49.34 79.34 0 143.657-64.317 143.657-143.657S342.57 112.35 263.23 112.35z" fill="#fac15c"/><path d="M263.23 112.35c79.34 0 143.657 64.317 143.657 143.657S342.57 399.662 263.23 399.662c0 0 95.745-137.733 0-287.313" fill="#f9b233"/><circle cx="111.588" cy="256.004" r="103.748" fill="#77aad4"/><path d="M111.592,152.253c57.3,0,103.752,46.452,103.752,103.752s-46.452,103.752-103.752,103.752" fill="#1d71b8"/><g fill="#fff"><circle cx="87.65" cy="192.156" r="15.962"/><circle cx="39.764" cy="279.952" r="23.943"/><circle cx="139.529" cy="299.897" r="19.955"/></g><g fill="#1d1d1b"><path d="M259.145 8.597h15.68v79.8h-15.68zM202.293 101.2l-27.295-74.997 14.734-5.363 27.295 74.997zm-49.033 31.46l-51.3-61.133 12-10.078 51.3 61.133zm-39.293 317.917l-12-10.078 51.3-61.133 12 10.078zm75.793 40.603l-14.734-5.363L202.32 410.8l14.734 5.363zm69.385-67.57h15.68v79.8h-15.68zm85.082 67.57l-27.295-74.997 14.734-5.363 27.295 74.997zm75.808-40.592l-51.3-61.133 12-10.078 51.3 61.133z"/><path d="M477.315 386.5L408.2 346.597l7.84-13.578 69.114 39.904zm31.975-79.83l-78.596-13.855 2.722-15.44 78.596 13.855zm-75.915-72.045l-2.722-15.44 78.596-13.855 2.722 15.44zm-17.307-55.628l-7.84-13.578 69.114-39.904 7.84 13.578zm-35.348-46.34l-12-10.078L420 61.446l12 10.078zm-49.03-31.48l-14.734-5.363 27.295-74.997 14.734 5.363zm-72.545-92.58h15.68v79.8h-15.68zM87.65 215.96c-13.124 0-23.802-10.678-23.802-23.802s10.677-23.803 23.802-23.803 23.802 10.678 23.802 23.803-10.677 23.802-23.802 23.802zm0-31.924c-4.478 0-8.122 3.643-8.122 8.123s3.643 8.122 8.122 8.122 8.122-3.643 8.122-8.122-3.644-8.123-8.122-8.123z"/></g><path d="M111.588 216.24h15.962v15.68h-15.962z" fill="#fff"/><path d="M139.525 327.692c-15.324 0-27.792-12.467-27.792-27.792s12.468-27.792 27.792-27.792 27.792 12.467 27.792 27.792-12.468 27.792-27.792 27.792zm0-39.903a12.13 12.13 0 0 0-12.112 12.112 12.13 12.13 0 0 0 12.112 12.112 12.13 12.13 0 0 0 12.112-12.112 12.13 12.13 0 0 0-12.112-12.112z" fill="#1d1d1b"/><path d="M167.46 264.126h15.962v15.68H167.46zm-87.796 15.962h15.962v15.68H79.664z" fill="#fff"/><path d="M266.988 104.51c-42.357 0-82.815 17.8-111.472 48.92-13.488-5.798-28.336-9.016-43.925-9.016C50.06 144.413 0 194.473 0 256.005s50.06 111.592 111.592 111.592c15.588 0 30.437-3.217 43.925-9.016 28.656 31.12 69.115 48.92 111.472 48.92 83.536 0 151.497-67.96 151.497-151.497S350.523 104.51 266.988 104.51zM23.66 279.95c0-8.88 7.224-16.103 16.103-16.103s16.103 7.224 16.103 16.103-7.224 16.102-16.103 16.102-16.103-7.223-16.103-16.102zm87.93 71.968c-32.435 0-61.156-16.186-78.523-40.902 2.16.464 4.4.716 6.695.716 17.525 0 31.783-14.258 31.783-31.782s-14.258-31.783-31.783-31.783c-9.59 0-18.194 4.275-24.026 11.01l-.06-3.17c0-52.887 43.026-95.912 95.912-95.912s95.912 43.025 95.912 95.912-43.025 95.91-95.91 95.91zm155.396 39.905c-36.545 0-71.52-14.78-97-40.762 31.892-19.666 53.196-54.916 53.196-95.055s-21.305-75.39-53.196-95.054c25.48-25.983 60.454-40.763 97-40.763 74.9 0 135.817 60.927 135.817 135.817s-60.927 135.817-135.817 135.817z" fill="#1d1d1b"/><path d="M63.706 312.012h15.962v15.68H63.706zm31.92 15.962h15.962v15.68H95.626zm31.924-135.672h15.962v15.68H127.55zm39.9 15.962h15.962v15.68H167.46zM31.783 216.24h15.962v15.68H31.783zm31.923 15.962h15.962v15.68H63.706z" fill="#fff"/></svg>