<svg xmlns="http://www.w3.org/2000/svg" viewBox="0 0 512 512" xmlns:v="https://vecta.io/nano"><path d="M183.963 352.04h48.022v24h-48.022zm96.05 0h48.022v24h-48.022zm40.014-184.08h24v56.026h-24zm-152.066 0h24v56.026h-24z" fill="#77aad4"/><path d="M239.992 504.115c0-17.68-14.334-32.014-32.015-32.014s-32.014 14.333-32.014 32.014h64.03zm97.025 0c0-17.68-14.335-32.014-32.015-32.014s-32.015 14.333-32.015 32.014h64.03z" fill="#1d71b8"/><path d="M191.974 175.962h128.063V352.04H191.974zM215.986 7.885h80.038V143.95h-80.038z" fill="#fac15c"/><path d="M256 7.885h40.014V143.95H256zm0 168.077h64.03V352.04H256z" fill="#f9b233"/><circle cx="256" cy="231.988" r="24.011" fill="#fff"/><path d="M160.074 167.96v16.127h-8.122v15.77h8.122v24.13h15.77V167.96zm-72.27 112.707h-15.77v-30.38h15.77v30.38zm1.26-43.664l-15.357-3.583c2.635-11.3 8.326-21.67 16.457-30.017l11.296 11.004c-6.128 6.3-10.414 14.104-12.396 22.596zm22.65-30.615l-7.95-13.62c9.73-5.68 20.86-8.682 32.18-8.682h.816v15.77h-.816c-8.532 0-16.9 2.258-24.23 6.532zm-23.9 98.538v-8.908h-15.77v8.908c-18.237 3.67-32.014 19.813-32.014 39.115h15.77c0-13.306 10.825-24.13 24.13-24.13s24.13 10.825 24.13 24.13h15.77c.001-19.302-13.778-35.444-32.015-39.115zm272.245-120.84h-8.122V167.96h-15.77v56.027h15.77v-24.13h8.122zm79.92 96.58h-15.77v-30.38h15.77v30.38zm-17.03-43.664c-1.982-8.493-6.268-16.306-12.395-22.595l11.296-11.004c8.13 8.347 13.822 18.726 16.457 30.017l-15.358 3.582zm-22.65-30.615c-7.32-4.273-15.7-6.532-24.23-6.532h-.816v-15.77h.816c11.323 0 22.45 3.002 32.18 8.682l-7.95 13.62zm39.68 98.538v-8.908h-15.77v8.908c-18.237 3.67-32.015 19.813-32.015 39.115h15.77c0-13.306 10.825-24.13 24.13-24.13s24.13 10.825 24.13 24.13h15.77c.001-19.302-13.777-35.444-32.014-39.115z" fill="#1d1d1b"/><path d="M239.988 112.05h32.014v15.77h-32.014zm-7.885-80.154h15.77V63.9h-15.77zm32.024 0h15.77V63.9h-15.77z" fill="#fff"/><path d="M200.1 408.076h15.77V440.1H200.1zm-16.133-24.136h16.125v8.123h15.77v-8.123h16.127v-15.77h-48.022zm144.066-15.77H280v15.77h16.127v8.123h15.77v-8.123h16.125zm-31.893 39.906h15.77V440.1h-15.77zm-80.278 56.926v-8.9h-15.77v8.9c-18.238 3.67-32.014 19.8-32.014 39.113V512h79.8v-7.885c0-19.3-13.777-35.444-32.015-39.113zm-30.7 31.228c3.275-9.444 12.262-16.244 22.807-16.244s19.533 6.8 22.808 16.244H185.17zm126.736-31.228v-8.9h-15.77v8.9c-18.238 3.67-32.015 19.8-32.015 39.113V512h79.8v-7.885c0-19.3-13.778-35.444-32.014-39.113zm-30.694 31.228c3.275-9.444 12.263-16.244 22.808-16.244s19.532 6.8 22.807 16.244h-45.615zm22.69-344.397V39.78h24.13V24h-24.13V0h-95.807v24h-24.13v15.77h24.13v112.05h40.02v16.245h-64.03v191.85h143.83v-191.85h-64.03V151.83h40.017zM256 248.115c-8.892 0-16.126-7.234-16.126-16.126s7.234-16.126 16.126-16.126 16.126 7.234 16.126 16.126-7.234 16.126-16.126 16.126zm56.144 96.044h-48.26v-81.262c13.786-3.52 24-16.042 24-30.908 0-17.588-14.3-31.896-31.896-31.896s-31.896 14.3-31.896 31.896c0 14.867 10.225 27.4 24 30.908v81.262h-48.26v-160.3h112.3l-.002 160.3zM223.867 15.77h64.267v120.293h-64.267V15.77z" fill="#1d1d1b"/></svg>