<svg xmlns="http://www.w3.org/2000/svg" viewBox="0 0 512 512" xmlns:v="https://vecta.io/nano"><circle cx="256" cy="255.999" r="144.064" fill="#fac15c"/><g fill="#77aad4"><path d="M504.115 280.01s-62.406 48.996-232.107 48.022C50.765 326.763 15.9 280.01 15.9 280.01V256s68.318 39.626 256.118 40.018C403.65 296.293 504.115 256 504.115 256v24.01z"/><path d="M504.115 280.01s-62.406 48.996-232.107 48.022C50.764 326.763 7.885 280.01 7.885 280.01v-32.015s76.323 47.63 264.123 48.022C403.65 296.293 504.115 256 504.115 256v24.01z"/></g><path d="M7.885 232.003s62.406-48.996 232.107-48.022c221.243 1.27 264.123 48.008 264.123 48.008v24s-76.323-39.61-264.123-40.004c-131.644-.274-232.107 40.02-232.107 40.02v-24.01z" fill="#1d71b8"/><path d="M175.963 368.052s107.293-21.57 160.074 0c0 0-17.413 32.315-80.037 32.015 0-.001-59.58 2.544-80.037-32.015zm-24.01-208.097s145.76 38.852 208.097 0c0 0 20.588 15.123 40.018 72.034 0 0-122.6 60.9-288.133 0 0 0 17.084-65.05 40.018-72.034z" fill="#f9b233"/><path d="M473.942 204.693c-20.528-8.035-49.4-14.848-83.68-19.784-25.55-48.06-76.143-80.86-134.26-80.86s-108.7 32.803-134.26 80.86c-34.292 4.936-63.152 11.75-83.68 19.784C12.805 214.58 0 226.454 0 239.992v31.65c0 19.58 26.52 35.497 78.82 47.308 13.118 2.962 27.425 5.554 42.672 7.757a152.41 152.41 0 0 0 53.401 57.811c24.245 15.332 52.3 23.435 81.107 23.435 28.827 0 56.88-8.1 81.133-23.45a152.39 152.39 0 0 0 53.377-57.795c15.245-2.203 29.553-4.794 42.67-7.756 52.3-11.8 78.82-27.728 78.82-47.3v-31.65c0-13.538-12.805-25.413-38.058-35.3zm-67.433 30.415c31.45 5.52 56.685 12.74 72.5 20.702-10.28 5.2-26 10.842-49.302 16.106-7.34 1.658-15.073 3.197-23.143 4.614a153.39 153.39 0 0 0 1.387-20.532 152.38 152.38 0 0 0-1.442-20.89zm89.72 4.884c0 1.53-.84 3.506-2.858 5.8-13.817-8.564-40.12-19.03-90.093-27.225-1.435-5.643-3.192-11.156-5.24-16.528 71.706 11.447 98.2 28.64 98.2 37.962zM348.552 156.2c-5.185 1.967-10.676 3.714-16.424 5.213l3.98 15.26c8.578-2.237 16.683-4.988 24.144-8.187 13.97 16.616 24.048 36.604 28.82 58.552-2.778 1.977-7.713 4.6-16 7.335l4.936 14.977c5.245-1.728 9.782-3.57 13.634-5.53.36 4.014.55 8.074.55 12.18 0 7.784-.663 15.547-1.966 23.164-39.524 5.836-85.774 8.97-134.215 8.97s-94.693-3.133-134.215-8.97c-1.304-7.62-1.966-15.38-1.966-23.164a136.86 136.86 0 0 1 .893-15.544l5.943-11.133c-1.575-.84-2.787-1.605-3.727-2.28 4.647-21.373 14.32-40.9 27.724-57.24 5.506 1.33 13.382 3.112 23.064 5l3-15.482-13.58-2.814c24.345-22.736 57.007-36.676 92.866-36.676 35.705 0 68.238 13.82 92.55 36.383zm-243.06 78.903a152.6 152.6 0 0 0-1.443 20.895 153.59 153.59 0 0 0 1.386 20.532c-8.07-1.417-15.8-2.956-23.142-4.614-23.3-5.264-39.02-10.908-49.3-16.105 12.217-6.18 34.043-13.994 72.5-20.708zm8.468-33.074c-2.048 5.372-3.805 10.886-5.24 16.53-29.933 4.927-67.972 13.48-90.092 27.225-2.018-2.286-2.86-4.263-2.86-5.793.001-9.32 26.485-26.514 98.2-37.96zM344.04 359.9c-9.44-2.448-20.074-4.384-31.654-5.75l-1.848 15.66c5.73.677 11.196 1.498 16.37 2.454-21.3 13.023-45.774 19.916-70.907 19.916-24.656 0-48.67-6.63-69.693-19.18l14.22-1.84-1.803-15.666c-11.135 1.282-21.672 2.836-30.64 4.5-10.452-8.84-19.516-19.2-26.9-30.736 35.1 4.103 74.225 6.28 114.804 6.28s79.705-2.176 114.803-6.28c-7.343 11.492-16.362 21.814-26.763 30.63zm85.67-56.334c-46.3 10.458-108.002 16.216-173.708 16.216s-127.398-5.76-173.708-16.216C29.78 291.7 15.77 277.92 15.77 271.64v-7.68c13.023 9 34.07 16.796 63.05 23.34 47.416 10.707 110.34 16.603 177.18 16.603s129.765-5.896 177.18-16.603c28.978-6.543 50.027-14.35 63.05-23.34v7.68c0 6.28-14 20.068-66.522 31.925zM223.542 166.3c-10.2-1.062-20.734-2.48-31.277-4.216l-2.563 15.56c10.85 1.786 21.688 3.247 32.2 4.34l1.63-15.686zm47.208 18.16l-.134-15.77-3.032.013c-9.077 0-18.615-.348-28.348-1.03l-1.107 15.73c10.1.7 20 1.07 29.455 1.07l3.166-.015zm49.118-4.25l-2.78-15.524c-9.586 1.716-19.966 2.895-30.85 3.508l.887 15.746c11.516-.647 22.532-1.902 32.742-3.73zM214.87 353.864l1.374 15.7c10.56-.923 21.172-1.564 31.535-1.907l-.52-15.762a605.01 605.01 0 0 0-32.388 1.959zm50.28 13.512c10.412 0 20.446.332 29.822.987l1.1-15.732c-9.74-.68-20.144-1.025-30.928-1.025l-1.64.003.045 15.77 1.603-.003zM135.368 249.793c9 2.867 19.853 5.383 32.262 7.477l2.624-15.55c-11.678-1.97-21.805-4.3-30.1-6.952l-4.786 15.025zm81.797-2.87c-10.945-.7-21.506-1.673-31.388-2.924l-1.982 15.645c10.2 1.293 21.103 2.3 32.38 3.018l1-15.74zm144.712 6.876l-3.567-15.36c-9.065 2.105-19.416 3.92-30.767 5.392l2.03 15.64c11.867-1.54 22.734-3.447 32.305-5.67zm-97.1 10.03l-.2-15.77a648.94 648.94 0 0 1-31.629-.355l-.57 15.76a654.86 654.86 0 0 0 23.623.423l8.786-.06zm48.613-2.547l-1.493-15.7c-10.084.96-20.685 1.656-31.5 2.07l.606 15.758c11.12-.424 22.02-1.14 32.398-2.13z" fill="#1d1d1b"/></svg>