<svg xmlns="http://www.w3.org/2000/svg" xmlns:v="https://vecta.io/nano" xmlns:xlink="http://www.w3.org/1999/xlink" viewBox="0 0 512 512"><ellipse cx="255.271" cy="256.004" fill="#77aad4" rx="247.309" ry="248.041"/><use fill="#1d71b8" xlink:href="#B"/><ellipse cx="255.271" cy="256.004" fill="#77aad4" rx="247.309" ry="248.041"/><use fill="#1d71b8" xlink:href="#B"/><path fill="#fff" d="M189.86 99.214h33.07v15.925h-33.07zM41.034 231.5h66.143v15.925H41.034zm82.684 33.072H181.6v15.925h-57.872zm66.142 41.34h49.607v15.925H189.86z"/><path fill="#1d1d1b" d="M437.02 74.98C388.667 26.628 324.38 0 256 0S123.333 26.628 74.98 74.98 0 187.62 0 256s26.628 132.668 74.98 181.02S187.62 512 256 512s132.667-26.63 181.02-74.98S512 324.38 512 256s-26.63-132.666-74.98-181.02zm52.68 236.294L311.273 489.7a240.34 240.34 0 0 1-33.222 5.368L495.067 278.05c-1.02 11.26-2.82 22.353-5.367 33.223zM280.173 67.392c-4.864-4.448-9.895-8.71-15.08-12.775l34.712-34.71c7.63 1.398 15.16 3.162 22.574 5.282l-42.206 42.204zm59.175-36.652a236.28 236.28 0 0 1 19.608 8.248l-54.22 54.22a255.72 255.72 0 0 0-13.149-14.707l47.76-47.76zm34.434 15.945c5.856 3.307 11.577 6.88 17.163 10.692l-65.226 65.225a258.22 258.22 0 0 0-11.154-16.7l59.217-59.217zm30.167 20.21a243.31 243.31 0 0 1 15.02 12.837l-76.09 76.087a252.95 252.95 0 0 0-8.985-18.869l70.054-70.055zm-41.472 170.086a256.24 256.24 0 0 0-3.025-24.832l93.51-93.5c3.87 5.525 7.486 11.2 10.858 16.998L362.477 236.982zm.673 21.85l108.525-108.526c3.112 6.334 5.95 12.793 8.48 19.376L361.11 288.726c1.25-9.85 1.93-19.826 2.04-29.894zm-7.074 57.454l129.822-129.824c2.202 7.316 4.06 14.75 5.555 22.283l-148.83 148.032a252.42 252.42 0 0 0 13.453-40.491zm-44.43 93.758L494.477 228.2a243.95 243.95 0 0 1 1.58 26.339l-241.52 241.52c-15.78-.093-31.325-1.694-46.465-4.747 40.653-17.533 76.78-45.762 103.574-81.266zM443.29 105.788l-87.752 87.75c-1.812-7.252-3.944-14.412-6.39-21.464l81.155-81.156c4.555 4.802 8.878 9.767 12.986 14.87zM280.074 17.112L252.116 45.07c-5.547-3.82-11.24-7.422-17.06-10.797l18.317-18.316 2.628-.032a244.63 244.63 0 0 1 24.073 1.187zm-72 3.576a240.59 240.59 0 0 1 21.344-3.3l-9.014 9.014c-4.058-2.014-8.17-3.92-12.33-5.714zM81.668 421.053h124.726v-15.925H67.838C34.2 362.852 15.925 310.832 15.925 256c0-51.3 16.003-100.154 45.622-140.86H173.32V99.214H74.175c3.845-4.446 7.867-8.775 12.066-12.974 27.18-27.18 59.733-47.03 95.26-58.58 46.764 15.227 88.687 45.317 118.25 84.955 19.363 25.963 33.036 55.002 40.593 85.814H107.177v15.925H343.67A242.95 242.95 0 0 1 347.252 256l-.003.306H289.07v15.925h57.636c-.807 12.205-2.518 24.237-5.123 36.023l-.13.13.084.084c-7.26 32.708-21.356 63.518-41.783 90.91-29.565 39.643-71.5 69.737-118.257 84.962-35.526-11.55-68.078-31.4-95.258-58.58l-4.572-4.705zm344.09 4.704c-23.694 23.694-51.474 41.812-81.743 53.725l135.47-135.47c-11.913 30.272-30.03 58.05-53.726 81.744z"/><defs><path id="B" d="M256 7.963c-25.39 0-49.884 3.833-72.95 10.922C282.738 50.04 355.215 144.405 355.215 256S282.74 461.96 183.048 493.115c23.067 7.09 47.56 10.923 72.95 10.923 136.987 0 248.038-111.05 248.038-248.038S392.986 7.963 256 7.963z"/></defs></svg>