<svg xmlns="http://www.w3.org/2000/svg" viewBox="0 0 512.004 512.004" xmlns:v="https://vecta.io/nano"><path d="M87.812 316.028c-44.202 0-80.036-35.834-80.036-80.035s35.834-80.036 80.036-80.036h248.1a16.01 16.01 0 0 1 16.008 16.006 16.01 16.01 0 0 1-16.008 16.006h-40.017a16.01 16.01 0 0 0-16.008 16.008 16.01 16.01 0 0 0 16.008 16.006H488a16.01 16.01 0 0 1 16.008 16.006c0 8.84-7.167 16.008-16.008 16.008H383.944a16.01 16.01 0 0 0-16.006 16.006 16.01 16.01 0 0 0 16.006 16.006h32.014a16.01 16.01 0 0 1 16.006 16.006 16.01 16.01 0 0 1-16.006 16.008l-328.146.005z" fill="#f9b233"/><circle cx="87.809" cy="235.992" r="48.026" fill="#77aad4"/><path d="M87.812 284.014c26.522 0 48.022-21.5 48.022-48.022s-21.5-48.022-48.022-48.022c0 .001 35.002 40.754 0 96.044" fill="#1d71b8"/><g fill="#1d1d1b"><path d="M415.958 323.804H87.812C39.392 323.804 0 284.412 0 235.992s39.392-87.812 87.812-87.812h248.1c13.114 0 23.784 10.67 23.784 23.783s-10.67 23.783-23.784 23.783h-40.017c-4.54 0-8.23 3.693-8.23 8.23s3.693 8.23 8.23 8.23H488c13.114 0 23.784 10.67 23.784 23.783s-10.67 23.784-23.784 23.784H383.944a8.24 8.24 0 0 0-8.23 8.23c0 4.538 3.693 8.23 8.23 8.23h32.014c13.114 0 23.783 10.67 23.783 23.783s-10.67 23.787-23.783 23.787zM87.812 163.733c-39.844 0-72.26 32.415-72.26 72.26s32.415 72.26 72.26 72.26h328.146c4.538 0 8.23-3.693 8.23-8.23s-3.693-8.23-8.23-8.23h-32.014c-13.114 0-23.783-10.67-23.783-23.783s10.67-23.783 23.783-23.783H488c4.54 0 8.23-3.693 8.23-8.23s-3.693-8.23-8.23-8.23H295.905c-13.114 0-23.784-10.67-23.784-23.783s10.67-23.784 23.784-23.784h40.017c4.54 0 8.23-3.692 8.23-8.23s-3.693-8.23-8.23-8.23h-248.1v-.003z"/><path d="M87.812 291.8c-30.767 0-55.797-25.03-55.797-55.798s25.03-55.798 55.797-55.798 55.798 25.03 55.798 55.798S118.578 291.8 87.812 291.8zm0-96.043c-22.19 0-40.244 18.054-40.244 40.245s18.054 40.245 40.244 40.245 40.245-18.054 40.245-40.245-18.054-40.245-40.245-40.245z"/></g><path d="M143.84 180.2h48.026v15.552H143.84zm16.007 48.026h96.04v15.552h-96.04zm-24.013 48.026h32.014v15.552h-32.014zm48.016 0h120.054v15.552H183.85zm24.012-96.052h40.017v15.552h-40.017z" fill="#fff"/><path d="M95.813 116.167h32.014v15.552H95.813zm48.027-16.01h304.13V115.7H143.84zm32.005 248.112h72.028v15.552h-72.028zm88.047 16h208.1v15.552h-208.1zm8.005-304.143H504V75.7H271.897zm152.06 80.043h24.013v15.552h-24.013zm56.03 24.002H512v15.552h-32.014zM471.983 12.12H512v15.55h-40.018zm-56.02 16h24.013v15.552h-24.013zm-112.06 384.164h16.006v15.552h-16.006zm56.03 0h152.07v15.552h-152.07zm104.045-96.04h32.014v15.552h-32.014zm8.005 168.08H512v15.552h-40.018zm-48.026-24.012h32.014v15.552h-32.014z" fill="#1d1d1b"/></svg>