<svg xmlns="http://www.w3.org/2000/svg" xmlns:xlink="http://www.w3.org/1999/xlink" id="Layer_1" x="0" y="0" version="1.1" viewBox="0 0 512 512" xml:space="preserve" style="enable-background:new 0 0 512 512"><path style="fill:#1d71b8" d="M7.885,256C7.885,118.97,118.97,7.885,256,7.885S504.115,118.97,504.115,256v248.115H7.885V256z"/><rect style="fill:#f9b233" width="96.05" height="88.039" x="408.065" y="239.988"/><path style="fill:#77aad4" d="M7.885,247.996c0-97.247,101.833-238.04,200.093-224.105	c96.283,13.657,176.082,78.834,176.082,176.082v304.142H7.885V247.996"/><path style="fill:#fff" d="M130.951,47.903c62.089-18.663,157.064,70.32,157.064,157.064V360.85	c0,34.92-28.308,63.228-63.228,63.228H7.885V239.992C7.885,239.992,24.416,79.928,130.951,47.903z"/><rect style="fill:#fac15c" width="200.09" height="32.014" x="7.885" y="448.089"/><path style="fill:#1d71b8" d="M199.973,135.945c-13.26,0-24.01-10.751-24.01-24.011s10.75-24.011,24.01-24.011V135.945z"/><circle style="fill:#fac15c" cx="328.037" cy="280.012" r="88.039"/><circle style="fill:#1d71b8" cx="328.037" cy="280.012" r="56.026"/><circle style="fill:#fff" cx="328.037" cy="280.012" r="24.011"/><rect style="fill:#fac15c" width="160.076" height="64.029" x="199.974" y="79.922"/><rect style="fill:#f9b233" width="160.076" height="32.015" x="199.974" y="111.936"/><path style="fill:#1d1d1b" d="M328.033,343.922c-35.241,0-63.912-28.671-63.912-63.911c0-35.241,28.671-63.912,63.912-63.912	s63.912,28.671,63.912,63.912C391.945,315.251,363.274,343.922,328.033,343.922z M328.033,231.87	c-26.545,0-48.142,21.597-48.142,48.142s21.596,48.141,48.142,48.141c26.545,0,48.142-21.597,48.142-48.141	C376.175,253.466,354.578,231.87,328.033,231.87z"/><g><rect style="fill:#fff" width="16.008" height="15.77" x="231.988" y="456.216"/><rect style="fill:#fff" width="16.008" height="15.77" x="264.001" y="456.216"/><rect style="fill:#fff" width="16.008" height="15.77" x="296.014" y="456.216"/></g><g><rect style="fill:#1d1d1b" width="15.77" height="158.466" x="96.052" y="104.737" transform="matrix(-0.7071 -0.7071 0.7071 -0.7071 47.3455 387.5505)"/><rect style="fill:#1d1d1b" width="15.77" height="56.594" x="148.064" y="167.67" transform="matrix(-0.7071 -0.7071 0.7071 -0.7071 127.6511 444.8093)"/><rect style="fill:#1d1d1b" width="15.77" height="135.821" x="188.089" y="160.073" transform="matrix(-0.7071 -0.7071 0.7071 -0.7071 173.3403 527.7672)"/><rect style="fill:#1d1d1b" width="15.77" height="33.958" x="196.091" y="259.024" transform="matrix(-0.7071 -0.7071 0.7071 -0.7071 153.0457 615.4001)"/><rect style="fill:#1d1d1b" width="15.77" height="107.529" x="130.061" y="288.273" transform="matrix(-0.7071 -0.7071 0.7071 -0.7071 -6.3679 681.4374)"/><rect style="fill:#1d1d1b" width="15.77" height="28.297" x="82.04" y="263.859" transform="matrix(-0.7071 -0.7071 0.7071 -0.7071 -43.0697 538.1759)"/><path style="fill:#1d1d1b" d="M328.033,311.907c-17.588,0-31.896-14.309-31.896-31.895c0-17.587,14.309-31.896,31.896-31.896 c17.588,0,31.896,14.309,31.896,31.896S345.621,311.907,328.033,311.907z M328.033,263.885c-8.892,0-16.126,7.234-16.126,16.126 s7.234,16.125,16.126,16.125c8.892,0,16.126-7.234,16.126-16.125C344.16,271.119,336.925,263.885,328.033,263.885z"/><path style="fill:#1d1d1b" d="M437.02,74.98C388.667,26.629,324.381,0,256,0S123.333,26.629,74.98,74.98 C26.629,123.333,0,187.619,0,256v256h512V256C512,187.619,485.371,123.333,437.02,74.98z M425.868,86.132 c39.694,39.694,63.787,90.832,69.196,145.976h-83.947c-16.603-28.684-47.627-48.023-83.084-48.023c-11.389,0-22.319,2-32.463,5.659 c-0.813-12.938-3.165-25.624-7.043-37.911h79.406V72.033H231.957c-24.247-18.24-52.496-28.985-82.513-31.46 C182.158,24.354,218.418,15.77,256,15.77C320.168,15.77,380.495,40.758,425.868,86.132z M496.23,256v64.148h-81.083 c5.652-12.218,8.812-25.815,8.812-40.137c0-11.266-1.959-22.082-5.543-32.133h77.663C496.168,250.579,496.23,253.284,496.23,256z M247.877,280.011c0-44.198,35.958-80.156,80.156-80.156s80.156,35.958,80.156,80.156s-35.958,80.156-80.156,80.156 S247.877,324.21,247.877,280.011z M207.858,87.803h144.304v16.245h-112.17v15.77h112.17v16.245H207.858V87.803z M86.132,86.132 c11.434-11.434,23.822-21.571,36.979-30.344h12.835c23.58,0,46.207,5.565,66.609,16.245h-10.465v8.992 c-13.786,3.519-24.01,16.041-24.01,30.908s10.225,27.389,24.01,30.908v8.992h79.802c5.131,14.477,7.888,29.613,8.205,45.115 c-28.664,16.607-47.987,47.62-47.987,83.064c0,35.424,19.303,66.421,47.941,83.035c-1.564,29.57-26.111,53.146-56.063,53.146H15.77 V256C15.77,191.832,40.758,131.505,86.132,86.132z M192.088,125.986c-4.911-2.767-8.24-8.025-8.24-14.052s3.33-11.285,8.24-14.052 V125.986z M15.77,455.973h184.323v16.245H15.77V455.973z M15.77,496.23v-8.241h200.093v-47.785H15.77v-8.24h208.215 c36.228,0,66.27-26.932,71.192-61.824c10.254,3.749,21.32,5.797,32.855,5.797c32.049,0,60.474-15.8,77.903-40.018h90.295v120.293 H328.033v15.77H496.23v24.249H15.77z"/></g></svg>