<?xml version="1.0" encoding="iso-8859-1"?>
<!-- Generator: Adobe Illustrator 19.0.0, SVG Export Plug-In . SVG Version: 6.00 Build 0)  -->
<svg version="1.1" id="Layer_1" xmlns="http://www.w3.org/2000/svg" xmlns:xlink="http://www.w3.org/1999/xlink" x="0px" y="0px"
	 viewBox="0 0 512 512" style="enable-background:new 0 0 512 512;" xml:space="preserve">
<path style="fill:#1D71B8;" d="M232.001,184.001h-176v-32h38.057c11.729,14.626,29.736,24.001,49.943,24.001
	s38.215-9.374,49.943-24.001h38.056L232.001,184.001L232.001,184.001z"/>
<g>
	<path style="fill:#FAC15C;" d="M136.001,504V416h-48V472h-16c-8.836,0-16,7.163-16,16c0,8.837,7.164,16,16,16H136.001z"/>
	<path style="fill:#FAC15C;" d="M160,504V416h48V472h16c8.837,0,16,7.163,16,16c0,8.837-7.163,16-16,16H160z"/>
</g>
<g>
	<path style="fill:#77AAD4;" d="M32,368L32,368c-13.255,0-24.001-10.745-24.001-24v-39h48v39C56.001,357.255,45.255,368,32,368z"/>
	<path style="fill:#77AAD4;" d="M351,208L351,208c0,13.255-10.745,24.001-24.001,24.001h-39v-48h39
		C340.255,184.001,351,194.746,351,208z"/>
</g>
<polygon style="fill:#1D71B8;" points="88.001,416 136.001,416 136.001,352 160,352 160,416 208,416 208,304 88.001,304 "/>
<circle style="fill:#FAC15C;" cx="143.995" cy="111.995" r="64"/>
<path style="fill:#F9B233;" d="M88.001,304h120.001v-72.001h80v-48H88.001c0,0-100.954-10.31-80,120.001h48v-34.318
	c0-27.434,13.29-29.682,29.682-29.682h2.318V304z"/>
<path style="fill:#FFFFFF;" d="M184.001,128h-80v-16c0-22.091,17.909-40.001,40.001-40.001l0,0
	c22.092,0,40.001,17.909,40.001,40.001v16H184.001z"/>
<path style="fill:#1D71B8;" d="M480,128h-64l16-24.001L416,80h64c13.255,0,24,10.745,24,24.001l0,0C504,117.255,493.255,128,480,128
	z"/>
<path style="fill:#77AAD4;" d="M504,80H320V8.001h161.959c12.173,0,22.041,9.869,22.041,22.042V80z"/>
<g>
	<rect x="135.997" y="320.063" style="fill:#FFFFFF;" width="24.001" height="15.868"/>
	<rect x="103.997" y="432.069" style="fill:#FFFFFF;" width="15.995" height="15.868"/>
	<rect x="175.995" y="432.069" style="fill:#FFFFFF;" width="15.995" height="15.868"/>
</g>
<g>
	<path style="fill:#1D1D1B;" d="M191.934,135.934H96.067V112c0-26.43,21.503-47.934,47.934-47.934S191.935,85.569,191.935,112
		v23.934H191.934z M111.934,120.066h64.132V112c0-17.682-14.385-32.067-32.067-32.067S111.933,94.318,111.933,112v8.066H111.934z"/>
	<path style="fill:#1D1D1B;" d="M32,375.934c-17.609,0-31.934-14.325-31.934-31.934V320h15.868v24
		c0,8.858,7.207,16.067,16.067,16.067S48.067,352.86,48.067,344v-24h15.868v24C63.934,361.608,49.609,375.934,32,375.934z"/>
	<rect x="224.063" y="96" style="fill:#1D1D1B;" width="15.868" height="24.001"/>
	<rect x="48.069" y="96" style="fill:#1D1D1B;" width="15.868" height="24.001"/>
	<rect x="135.997" y="144.069" style="fill:#1D1D1B;" width="15.995" height="15.868"/>
</g>
<g>
	<rect x="128.063" y="231.997" style="fill:#FFFFFF;" width="15.868" height="15.995"/>
	<rect x="128.063" y="263.997" style="fill:#FFFFFF;" width="15.868" height="15.995"/>
</g>
<g>
	<path style="fill:#1D1D1B;" d="M295.934,239.934v-63.868h-56.001v-32h-31.569c4.833-9.661,7.57-20.548,7.57-32.067
		c0-39.664-32.27-71.934-71.934-71.934S72.066,72.336,72.066,112c0,11.519,2.737,22.405,7.57,32.067H48.067v37.242
		c-28.071,11.052-48,38.415-48,70.364v60.263h63.868v-52.43c0-6.38,5.191-11.571,11.571-11.571h4.563v216.133h-7.209
		c-12.097,0-22.616,8.587-24.468,19.973c-1.14,7.01,0.819,14.104,5.376,19.46c4.558,5.359,11.206,8.434,18.236,8.434h71.934V359.934
		h8.133v152.001h71.934c7.604,0,14.827-3.667,19.322-9.807c4.572-6.246,5.817-14.171,3.416-21.741
		c-3.047-9.609-12.674-16.321-23.412-16.321h-7.391V239.934H295.934z M224.067,159.934v16.132h-47.419
		c7.939-4.063,15.032-9.547,20.931-16.132H224.067z M144,55.934c30.915,0,56.066,25.15,56.066,56.066S174.915,168.066,144,168.066
		S87.934,142.916,87.934,112S113.085,55.934,144,55.934z M63.934,159.934h26.489c5.898,6.585,12.99,12.069,20.931,16.132H75.672
		c-3.992,0-7.912,0.316-11.738,0.915C63.934,176.982,63.934,159.934,63.934,159.934z M75.504,232.066
		c-15.129,0-27.439,12.309-27.439,27.439v36.563H15.934v-44.395c0-15.652,6.059-29.91,15.945-40.573l10.512,10.512l11.22-11.221
		l-9.441-9.441c9.153-5.706,19.947-9.014,31.504-9.014h44.393v24.001h32v80.132H95.934v-48.132h8.066v-15.868H75.504V232.066z
		 M72.001,496.067c-2.37,0-4.611-1.037-6.149-2.846c-1.559-1.832-2.198-4.189-1.8-6.634c0.607-3.73,4.475-6.653,8.807-6.653h23.077
		v-56.001h32.132v72.133H72.001z M128.067,344.066v64H95.934v-96.132h104.133v96.132h-32.133v-64H128.067z M223.325,479.934
		c3.837,0,7.322,2.208,8.286,5.248c1.17,3.689-0.184,6.328-1.095,7.572c-1.541,2.105-3.916,3.312-6.517,3.312h-56.066v-72.133
		h32.132v56.001H223.325z M200.066,224.067v72.001h-32.132v-96h-32v-8.133h72.133v16.067h15.868v-16.067h56.133v32.132H200.066z"/>
	<path style="fill:#1D1D1B;" d="M312.114,0v176.067H304v15.868h24.001c8.858,0,16.067,7.207,16.067,16.067
		c0,8.86-7.207,16.067-16.067,16.067H304v15.868h8.066V512h15.868V239.934h0.067c17.609,0,31.934-14.325,31.934-31.934
		s-14.325-31.934-31.934-31.934h-0.019V87.934h83.772l10.711,16.067l-21.289,31.933H480c17.609,0,31.934-14.325,31.934-31.934V32
		c0-17.609-14.325-31.934-31.934-31.934L312.114,0z M327.982,72.066V15.934H480c8.858,0,16.067,7.207,16.067,16.067V76.42
		c-4.723-2.762-10.21-4.353-16.067-4.353H327.982V72.066z M480,120.066h-49.175l10.711-16.067l-10.711-16.067H480
		c8.858,0,16.067,7.207,16.067,16.067S488.858,120.066,480,120.066z"/>
</g>
<g>
</g>
<g>
</g>
<g>
</g>
<g>
</g>
<g>
</g>
<g>
</g>
<g>
</g>
<g>
</g>
<g>
</g>
<g>
</g>
<g>
</g>
<g>
</g>
<g>
</g>
<g>
</g>
<g>
</g>
</svg>
