<?xml version="1.0" encoding="iso-8859-1"?>
<!-- Generator: Adobe Illustrator 19.0.0, SVG Export Plug-In . SVG Version: 6.00 Build 0)  -->
<svg version="1.1" id="Layer_1" xmlns="http://www.w3.org/2000/svg" xmlns:xlink="http://www.w3.org/1999/xlink" x="0px" y="0px"
	 viewBox="0 0 512 512" style="enable-background:new 0 0 512 512;" xml:space="preserve">
<path style="fill:#F9B233;" d="M344.044,48.023h72.036l-8.004,24.012l8.004,24.012c0,0-72.799,13.312-72.036-16.008
	C344.765,52.31,344.044,48.023,344.044,48.023z"/>
<path style="fill:#FAC15C;" d="M344.044,64.032H256V16.008h66.898c11.679,0,21.145,9.467,21.145,21.145v26.88H344.044z"/>
<circle style="fill:#77AAD4;" cx="256" cy="320.156" r="184.09"/>
<path style="fill:#1D71B8;" d="M256,136.068c101.671,0,184.093,82.421,184.093,184.093S357.671,504.254,256,504.254
	C256,504.253,143.606,293.521,256,136.068"/>
<g>
	
		<rect x="197.216" y="249.892" transform="matrix(-0.7071 -0.7071 0.7071 -0.7071 167.6874 585.2498)" style="fill:#FFFFFF;" width="15.673" height="16.008"/>
	
		<rect x="211.365" y="290.275" transform="matrix(-0.7071 -0.7071 0.7071 -0.7071 137.8182 725.6775)" style="fill:#FFFFFF;" width="15.673" height="88.042"/>
	
		<rect x="341.521" y="418.512" transform="matrix(-0.7071 -0.7071 0.7071 -0.7071 291.9695 981.9724)" style="fill:#FFFFFF;" width="15.673" height="24.011"/>
</g>
<g>
	<path style="fill:#1D1D1B;" d="M391.715,184.446c-34.397-34.397-79.554-54.117-127.879-56.046V0h-15.673v128.401
		c-48.324,1.928-93.482,21.648-127.879,56.046c-36.25,36.251-56.214,84.447-56.214,135.714s19.964,99.464,56.214,135.714
		C157.702,493.292,206.851,512,256,512s98.298-18.709,135.715-56.124c36.25-36.251,56.214-84.448,56.214-135.714
		S427.965,220.697,391.715,184.446z M380.631,444.792c-34.366,34.365-79.49,51.546-124.631,51.542
		c-21.369-0.002-42.739-3.862-62.97-11.566l198.684-198.684l-11.083-11.082L177.602,478.03
		c-16.697-8.275-32.348-19.351-46.234-33.238c-17.894-17.894-31.458-38.96-40.186-61.927l102.443-102.442l-11.083-11.082
		l-96.77,96.77c-3.97-14.801-6.028-30.216-6.028-45.951c0-47.08,18.334-91.342,51.624-124.631
		c22.621-22.621,50.312-38.328,80.508-46.077l-63.292,63.292l11.083,11.082l79.092-79.092c5.694-0.55,11.445-0.83,17.24-0.83
		c39.034,0,76.125,12.615,106.638,35.896l-106.521,106.52l11.083,11.082l107.517-107.517c2.006,1.832,3.98,3.709,5.913,5.642
		c33.29,33.29,51.624,77.552,51.624,124.631c0,5.794-0.281,11.545-0.83,17.24l-67.774,67.774l11.083,11.082l51.973-51.973
		C418.959,394.479,403.254,422.17,380.631,444.792z"/>
	<path style="fill:#1D1D1B;" d="M336.207,80.04c0,13.148,10.697,23.845,23.845,23.845h66.901l-10.616-31.848l10.616-31.848h-66.901
		c-4.507,0-8.171-3.665-8.171-8.171c0-13.148-10.696-23.845-23.843-23.845h-56.029v15.673h56.028c4.506,0,8.17,3.665,8.17,8.171
		v25.622c-2.55-0.933-5.302-1.442-8.17-1.442h-56.028V71.87h56.028C332.542,71.869,336.207,75.534,336.207,80.04z M351.881,54.418
		c2.55,0.933,5.302,1.442,8.171,1.442h45.156l-5.392,16.175l5.392,16.175h-45.156c-4.507,0-8.171-3.665-8.171-8.171V54.418z"/>
</g>
<g>
</g>
<g>
</g>
<g>
</g>
<g>
</g>
<g>
</g>
<g>
</g>
<g>
</g>
<g>
</g>
<g>
</g>
<g>
</g>
<g>
</g>
<g>
</g>
<g>
</g>
<g>
</g>
<g>
</g>
</svg>
