<?xml version="1.0" encoding="iso-8859-1"?>
<!-- Generator: Adobe Illustrator 19.0.0, SVG Export Plug-In . SVG Version: 6.00 Build 0)  -->
<svg version="1.1" id="Layer_1" xmlns="http://www.w3.org/2000/svg" xmlns:xlink="http://www.w3.org/1999/xlink" x="0px" y="0px"
	 viewBox="0 0 511.998 511.998" style="enable-background:new 0 0 511.998 511.998;" xml:space="preserve">
<g>
	<polygon style="fill:#1D71B8;" points="357.947,136.773 293.746,205.569 215.299,163.554 244.819,132.771 	"/>
	<polygon style="fill:#1D71B8;" points="422.275,194.592 355.53,265.957 400.004,340.52 427.798,312.725 	"/>
	<polygon style="fill:#1D71B8;" points="441.443,104.007 476.231,136.773 502.594,49.305 413.006,77.77 	"/>
</g>
<polygon style="fill:#FAC15C;" points="331.374,291.753 269.438,231.664 413.006,77.77 476.231,136.773 "/>
<polygon style="fill:#F9B233;" points="331.374,291.753 301.736,263 447.391,109.859 476.231,136.773 "/>
<g>
	<path style="fill:#1D1D1B;" d="M31.399,472.98c-8.885,0-16.644-2.335-22.484-7.935c-20.472-19.632-1.851-64.546,17.375-98.766
		c25.58-45.528,66.833-98.931,116.164-150.373l11.279,10.817c-48.444,50.519-88.865,102.799-113.818,147.211
		c-26.701,47.525-27.934,72.4-20.182,79.832c7.746,7.43,32.55,5.16,78.916-23.51c43.327-26.791,93.869-69.368,142.313-119.886
		l11.279,10.817c-49.331,51.442-100.957,94.898-145.373,122.362C83.005,458.303,53.668,472.98,31.399,472.98z"/>
	
		<rect x="238.156" y="272.643" transform="matrix(-0.7218 -0.6921 0.6921 -0.7218 237.9828 656.5746)" style="fill:#1D1D1B;" width="25.589" height="15.628"/>
	
		<rect x="268.948" y="302.152" transform="matrix(-0.7218 -0.6921 0.6921 -0.7218 270.5776 728.6948)" style="fill:#1D1D1B;" width="25.589" height="15.628"/>
	
		<rect x="232.878" y="268.925" transform="matrix(-0.7218 -0.6921 0.6921 -0.7218 297.5637 673.0881)" style="fill:#1D1D1B;" width="102.364" height="15.628"/>
	<path style="fill:#1D1D1B;" d="M500.915,41.286c-7.769,1.59-76.412,16.062-93.897,34.294l-50.728,52.899l-114.703-3.629
		l-39.198,40.876l79.28,40.569l-21.755,22.687l72.848,69.858l21.755-22.687l43.857,77.51l39.197-40.876l-8.433-114.451
		l50.727-52.899c17.485-18.234,29.067-87.422,30.331-95.251l1.801-11.169L500.915,41.286z M228.208,161.383l19.842-20.692
		l93.688,2.964l-48.775,50.864L228.208,161.383z M332.298,276.743l-50.287-48.223L412.89,92.037l50.288,48.223L332.298,276.743z
		 M421.473,306.994l-19.841,20.692l-35.822-63.308l48.776-50.865L421.473,306.994z M473.009,128.036l-48.316-46.334
		c14.54-8.427,44.787-17.217,68.076-22.632C488.336,82.566,480.82,113.155,473.009,128.036z"/>
</g>
<g>
	
		<rect x="302.427" y="231.976" transform="matrix(-0.7218 -0.6921 0.6921 -0.7218 384.1334 633.988)" style="fill:#FFFFFF;" width="34.12" height="15.628"/>
	
		<rect x="412.027" y="126.594" transform="matrix(-0.7218 -0.6921 0.6921 -0.7218 629.3627 523.2289)" style="fill:#FFFFFF;" width="15.628" height="17.061"/>
	
		<rect x="394.314" y="145.068" transform="matrix(-0.7218 -0.6921 0.6921 -0.7218 586.0786 542.778)" style="fill:#FFFFFF;" width="15.628" height="17.06"/>
	
		<rect x="376.607" y="163.535" transform="matrix(-0.7218 -0.6921 0.6921 -0.7218 542.8111 562.3196)" style="fill:#FFFFFF;" width="15.628" height="17.06"/>
</g>
<g>
	
		<rect x="161.11" y="185.158" transform="matrix(-0.7071 -0.7071 0.7071 -0.7071 145.6542 463.9971)" style="fill:#1D1D1B;" width="15.628" height="33.35"/>
	
		<rect x="184.682" y="172.695" transform="matrix(-0.707 -0.7072 0.7072 -0.707 202.5295 440.4148)" style="fill:#1D1D1B;" width="15.628" height="11.118"/>
</g>
<g>
</g>
<g>
</g>
<g>
</g>
<g>
</g>
<g>
</g>
<g>
</g>
<g>
</g>
<g>
</g>
<g>
</g>
<g>
</g>
<g>
</g>
<g>
</g>
<g>
</g>
<g>
</g>
<g>
</g>
</svg>
