<svg xmlns="http://www.w3.org/2000/svg" xmlns:xlink="http://www.w3.org/1999/xlink" id="Layer_1" x="0" y="0" version="1.1" viewBox="0 0 511.998 511.998" xml:space="preserve" style="enable-background:new 0 0 511.998 511.998"><path style="fill:#f9b233" d="M458.271,235.146l-18.008-0.087l-27.222,51.303l-338.46-1.169v41.705h383.69	c27.64,0,50.047-20.54,50.047-45.876C508.318,255.685,485.912,235.146,458.271,235.146"/><g><path style="fill:#fac15c" d="M183.015,101.689h-33.364l-16.683,58.388l25.023,33.365h116.775 C274.768,193.44,198.596,189.287,183.015,101.689z"/><polygon style="fill:#fac15c" points="141.31 176.758 74.581 176.758 74.581 143.394 116.286 143.394"/><path style="fill:#fac15c" d="M116.286,285.193h150.14c0,0-83.244,24.656-150.14,125.116H91.264L116.286,285.193z"/></g><path style="fill:#77aad4" d="M413.041,286.361l-338.46-1.17V176.758h66.728l16.683,16.843c0,0,167.335,0.497,241.891,0	c31.764-0.211,40.379,41.457,40.379,41.457L413.041,286.361z"/><rect style="fill:#f9b233" width="33.365" height="83.414" x="7.852" y="243.489"/><circle style="fill:#fff" cx="116.29" cy="235.144" r="16.683"/><path style="fill:#1d71b8" d="M32.876,243.487c23.033,0,41.705,18.672,41.705,41.705c0,23.033-18.672,41.706-41.705,41.706"/><rect style="fill:#1d1d1b" width="15.705" height="100.093" y="235.144"/><g><rect style="fill:#fff" width="16.683" height="15.705" x="324.81" y="218.947"/><rect style="fill:#fff" width="16.682" height="15.705" x="291.453" y="218.947"/><rect style="fill:#fff" width="16.683" height="15.705" x="258.085" y="218.947"/><rect style="fill:#fff" width="16.683" height="15.705" x="224.717" y="218.947"/><rect style="fill:#fff" width="16.683" height="15.705" x="191.36" y="218.947"/></g><g><path style="fill:#1d1d1b" d="M458.271,227.294h-9.451c-3.773-23.608-24.281-41.705-48.936-41.705H282.129 c-32.988-0.054-58.274-14-75.166-41.465c-13.118-21.33-16.132-43.232-16.16-43.438l-0.884-6.848h-46.568l-12.24,55.082 l-11.146-13.376H66.728v113.505c-8.866-8.309-20.771-13.413-33.853-13.413h-8.341v15.705h8.341c0.035,0,0.069,0.002,0.105,0.002 v67.701c-0.035,0-0.069,0.002-0.105,0.002h-8.341v15.705h8.341c13.081,0,24.987-5.104,33.853-13.413v13.413h31.638l-16.682,83.411 h38.676l2.346-3.334c0.514-0.731,31.812-44.701,74.719-79.596l260.844-0.482c29.626,0,53.728-24.103,53.728-53.729 C512,251.396,487.897,227.294,458.271,227.294z M49.07,314.913v-59.44c10.512,5.751,17.659,16.916,17.659,29.72 S59.582,309.162,49.07,314.913z M148.536,142.906h17.798v-15.705h-14.307l3.924-17.66h20.532 c1.965,9.008,6.644,25.622,16.799,42.312c7.007,11.516,17.359,24.127,32.263,33.735h-63.875l-17.858-21.429L148.536,142.906z M82.433,151.246h30.174l14.199,17.039l-0.137,0.621H82.433V151.246z M165.593,342.338c-27.142,25.778-46.7,51.173-53.311,60.118 h-11.441l6.868-34.342h16.917v-15.705h-13.776l11.873-59.365h109.962C211.151,303.902,188.734,320.361,165.593,342.338z M458.271,319.046H219.352c22.761-15.037,47.58-25.791,72.165-26.001l-0.067-15.705H109.849l-8.341,41.705H82.433v-26h17.17 v-15.705h-17.17v-92.728h57.98l13.901,16.682h127.864c0.05,0,0.098,0.002,0.149,0.002c0.275,0,0.555-0.001,0.831-0.002h116.726 c12.804,0,23.969,7.147,29.72,17.66h-71.425v15.705h74.877l-21.342,42.683H299.79v15.705h121.63l25.022-50.047h11.829 c20.966,0,38.023,17.058,38.023,38.023C496.295,301.989,479.238,319.046,458.271,319.046z"/><path style="fill:#1d1d1b" d="M116.286,259.681c-13.528,0-24.535-11.006-24.535-24.534s11.007-24.535,24.535-24.535 s24.535,11.006,24.535,24.535C140.821,248.675,129.814,259.681,116.286,259.681z M116.286,226.316c-4.869,0-8.83,3.961-8.83,8.83 c0,4.869,3.961,8.829,8.83,8.829s8.83-3.961,8.83-8.829C125.116,230.277,121.156,226.316,116.286,226.316z"/></g></svg>