<svg xmlns="http://www.w3.org/2000/svg" xmlns:xlink="http://www.w3.org/1999/xlink" id="Layer_1" x="0" y="0" version="1.1" viewBox="0 0 512.004 512.004" xml:space="preserve" style="enable-background:new 0 0 512.004 512.004"><g><path style="fill:#f9b233" d="M318.416,232.779c16.158,0,29.418,12.379,30.831,28.17c0.086-1.638,0.131-3.287,0.131-4.947 c0-51.302-41.589-92.89-92.89-92.89c-37.714,0-70.179,22.477-84.73,54.765c2.386-0.377,4.831-0.58,7.321-0.58 c25.651,0,46.444,20.793,46.444,46.444c0,25.006-19.764,45.387-44.523,46.396c16.859,23.467,44.386,38.753,75.486,38.753 c45.139,0,82.753-32.199,91.139-74.88c-4.236,12.052-15.713,20.695-29.213,20.695c-17.101,0-30.963-13.863-30.963-30.963 C287.452,246.642,301.314,232.779,318.416,232.779z"/><path style="fill:#f9b233" d="M256.489,163.112c-37.714,0-70.179,22.477-84.73,54.765c2.386-0.377,4.831-0.58,7.321-0.58 c25.651,0,46.444,20.793,46.444,46.444c0,25.006-19.764,45.387-44.523,46.396c16.859,23.467,44.386,38.753,75.486,38.753 c51.301,0,92.89-41.588,92.89-92.89S307.79,163.112,256.489,163.112z"/></g><polygon style="fill:#1d71b8" points="510.893 510.406 0 511.448 0 .556 509.85 1.598"/><circle style="fill:#f9b233" cx="256.489" cy="256.001" r="92.889"/><g><circle style="fill:#77aad4" cx="55.229" cy="263.748" r="15.482"/><circle style="fill:#77aad4" cx="318.411" cy="263.748" r="30.963"/><circle style="fill:#77aad4" cx="442.266" cy="263.748" r="30.963"/></g><path style="fill:#fac15c" d="M256.489,348.892c-51.301,0-92.89-41.588-92.89-92.89s41.589-92.89,92.89-92.89V348.892z"/><g><circle style="fill:#77aad4" cx="179.084" cy="263.748" r="46.444"/><circle style="fill:#77aad4" cx="318.411" cy="263.748" r="30.963"/></g><g><rect style="fill:#1d1d1b" width="15.483" height="15.482" x="496.457" y="255.97" transform="matrix(-1 -0.0083 0.0083 -1 1006.1907 531.5972)"/><rect style="fill:#1d1d1b" width="15.483" height="15.482" x="372.598" y="256.092" transform="matrix(-1 -0.0083 0.0083 -1 758.4757 530.8132)"/><rect style="fill:#1d1d1b" width="15.482" height="15.482" x="248.749" y="256.086" transform="matrix(-1 -0.0083 0.0083 -1 510.7815 529.7731)"/><rect style="fill:#1d1d1b" width="15.483" height="15.482" x="93.923" y="256.077" transform="matrix(-1 -0.0083 0.0083 -1 201.1348 528.4704)"/><path style="fill:#1d1d1b" d="M55.229,240.52c-10.072,0-18.662,6.447-21.874,15.429l-9.026-0.074l-0.128,15.481l9.119,0.075 c3.181,9.037,11.797,15.534,21.909,15.534c10.024,0,18.584-6.385,21.83-15.302l9.07,0.075l0.128-15.481l-9.075-0.075 C74.037,247.079,65.387,240.52,55.229,240.52z M55.229,271.483c-4.269,0-7.742-3.473-7.742-7.741s3.473-7.741,7.742-7.741 s7.742,3.473,7.742,7.741S59.496,271.483,55.229,271.483z"/><path style="fill:#1d1d1b" d="M488.777,256.002l-8.599-0.071c-3.623-17.61-19.244-30.892-37.91-30.892 c-18.715,0-34.368,13.354-37.938,31.033l-8.442-0.07l-0.128,15.481l8.597,0.071c3.624,17.61,19.245,30.892,37.911,30.892 c18.715,0,34.368-13.354,37.938-31.033l8.443,0.07L488.777,256.002z M442.268,286.965c-12.805,0-23.223-10.417-23.223-23.222 c0-12.805,10.418-23.222,23.223-23.222c12.805,0,23.223,10.417,23.223,23.222C465.491,276.548,455.073,286.965,442.268,286.965z"/><path style="fill:#1d1d1b" d="M364.796,271.61l0.128-15.481l-7.806-0.065c0-0.022,0.001-0.043,0.001-0.065 c0-55.488-45.142-100.63-100.63-100.63c-38.106,0-73.089,21.753-90.056,55.691c-21.325,5.12-37.781,22.874-40.968,44.879 l-8.246-0.068l-0.128,15.481l8.36,0.069c3.654,25.625,25.295,45.518,51.689,46.455c19.012,24.333,48.376,38.753,79.35,38.753 c48.646,0,89.338-34.698,98.634-80.645c0.485-1.447,0.895-2.929,1.206-4.446L364.796,271.61z M318.415,286.965 c-12.805,0-23.222-10.417-23.222-23.222c0-12.805,10.417-23.222,23.222-23.222c11.891,0,21.719,8.986,23.061,20.524 c-0.219,3.732-0.685,7.396-1.372,10.984C336.76,280.753,328.301,286.965,318.415,286.965z M179.081,302.446 c-21.342,0-38.705-17.362-38.705-38.704c0-21.342,17.363-38.704,38.705-38.704s38.704,17.362,38.704,38.704 C217.785,285.084,200.423,302.446,179.081,302.446z M256.489,341.15c-23.07,0-45.093-9.453-61.013-25.764 c19.447-6.189,34.165-23.076,37.204-43.716l8.263,0.068l0.128-15.481l-8.343-0.069c-3.422-24.417-23.167-43.666-47.82-46.314 c15.534-24.032,42.481-39.022,71.58-39.022c37.945,0,70.159,24.952,81.129,59.306c-5.664-3.251-12.217-5.12-19.202-5.12 c-18.671,0-34.296,13.289-37.912,30.906l-8.467-0.07l-0.128,15.481l8.575,0.071c3.574,17.674,19.223,31.021,37.934,31.021 c3.561,0,7.007-0.493,10.283-1.397C313.635,325.107,286.907,341.15,256.489,341.15z"/><rect style="fill:#1d1d1b" width="15.483" height="15.482" x="1.031" y="256.072" transform="matrix(-1 -0.0083 0.0083 -1 15.3546 527.6902)"/></g><g><rect style="fill:#fff" width="15.482" height="15.482" x="117.151" y="170.849"/><rect style="fill:#fff" width="15.482" height="15.482" x="171.337" y="124.409"/><rect style="fill:#fff" width="15.483" height="187.065" x="349.376" y="-.08" transform="matrix(-0.4138 -0.9104 0.9104 -0.4138 419.8112 457.233)"/><rect style="fill:#fff" width="15.482" height="15.482" x="124.898" y="85.707"/><rect style="fill:#fff" width="15.482" height="15.482" x="210.039" y="54.74"/><rect style="fill:#fff" width="15.482" height="15.482" x="287.455" y="54.74"/><rect style="fill:#fff" width="15.482" height="15.482" x="70.71" y="31.521"/><rect style="fill:#fff" width="15.482" height="15.482" x="32.006" y="108.926"/><rect style="fill:#fff" width="15.482" height="15.482" x="78.448" y="310.187"/><rect style="fill:#fff" width="15.482" height="15.482" x="155.854" y="356.636"/><rect style="fill:#fff" width="15.482" height="15.482" x="39.745" y="418.559"/><rect style="fill:#fff" width="15.481" height="15.482" x="101.678" y="465.008"/><rect style="fill:#fff" width="15.482" height="15.482" x="210.039" y="457.261"/><rect style="fill:#fff" width="15.482" height="15.482" x="155.854" y="426.295"/><rect style="fill:#fff" width="15.482" height="15.482" x="264.225" y="395.339"/><rect style="fill:#fff" width="15.482" height="15.482" x="364.861" y="426.295"/><rect style="fill:#fff" width="15.482" height="15.482" x="411.3" y="379.856"/><rect style="fill:#fff" width="15.482" height="15.482" x="473.233" y="325.67"/><rect style="fill:#fff" width="15.482" height="15.482" x="372.597" y="302.45"/><rect style="fill:#fff" width="15.482" height="15.482" x="364.861" y="186.332"/><rect style="fill:#fff" width="15.482" height="15.482" x="442.266" y="163.112"/><rect style="fill:#fff" width="15.482" height="15.482" x="488.716" y="123.763"/><rect style="fill:#fff" width="15.482" height="15.482" x="457.749" y="465.008"/><rect style="fill:#fff" width="15.482" height="15.482" x="326.158" y="488.228"/><rect style="fill:#fff" width="15.482" height="15.482" x="465.486" y="23.777"/></g></svg>