<?xml version="1.0" encoding="iso-8859-1"?>
<!-- Generator: Adobe Illustrator 19.0.0, SVG Export Plug-In . SVG Version: 6.00 Build 0)  -->
<svg version="1.1" id="Layer_1" xmlns="http://www.w3.org/2000/svg" xmlns:xlink="http://www.w3.org/1999/xlink" x="0px" y="0px"
	 viewBox="0 0 512 512" style="enable-background:new 0 0 512 512;" xml:space="preserve">
<circle style="fill:#77AAD4;" cx="471.991" cy="271.999" r="15.999"/>
<circle style="fill:#1D71B8;" cx="351.975" cy="271.999" r="32.009"/>
<circle style="fill:#FAC15C;" cx="127.942" cy="256" r="120.016"/>
<path style="fill:#F9B233;" d="M127.943,376.017c66.284,0,120.018-53.734,120.018-120.017s-53.734-120.017-120.018-120.017
	C127.943,135.983,253.082,258.231,127.943,376.017"/>
<g>
	<path style="fill:#1D1D1B;" d="M127.943,383.943C57.396,383.943,0,326.548,0,256s57.396-127.943,127.943-127.943
		c70.548,0,127.944,57.396,127.944,127.943S198.492,383.943,127.943,383.943z M127.943,143.908
		c-61.808,0-112.092,50.284-112.092,112.092s50.284,112.092,112.092,112.092S240.036,317.808,240.036,256
		S189.752,143.908,127.943,143.908z"/>
	<path style="fill:#1D1D1B;" d="M471.994,295.931c-13.194,0-23.928-10.734-23.928-23.928c0-13.195,10.735-23.928,23.928-23.928
		c13.194,0,23.928,10.735,23.928,23.928C495.922,285.196,485.188,295.931,471.994,295.931z M471.994,263.926
		c-4.453,0-8.077,3.624-8.077,8.077c0,4.453,3.624,8.077,8.077,8.077c4.453,0,8.077-3.623,8.077-8.077
		C480.071,267.548,476.447,263.926,471.994,263.926z"/>
	<path style="fill:#1D1D1B;" d="M351.976,311.933c-22.018,0-39.931-17.913-39.931-39.931s17.913-39.931,39.931-39.931
		s39.931,17.913,39.931,39.931C391.907,294.02,373.994,311.933,351.976,311.933z M351.976,247.923
		c-13.277,0-24.079,10.802-24.079,24.079c0,13.277,10.802,24.079,24.079,24.079c13.277,0,24.079-10.802,24.079-24.079
		C376.055,258.725,365.253,247.923,351.976,247.923z"/>
	<rect x="496.001" y="224.075" style="fill:#1D1D1B;" width="15.999" height="15.851"/>
	<rect x="383.984" y="312.082" style="fill:#1D1D1B;" width="15.999" height="15.851"/>
</g>
<g>
</g>
<g>
</g>
<g>
</g>
<g>
</g>
<g>
</g>
<g>
</g>
<g>
</g>
<g>
</g>
<g>
</g>
<g>
</g>
<g>
</g>
<g>
</g>
<g>
</g>
<g>
</g>
<g>
</g>
</svg>
