<svg xmlns="http://www.w3.org/2000/svg" xmlns:xlink="http://www.w3.org/1999/xlink" id="Layer_1" x="0" y="0" version="1.1" viewBox="0 0 512.001 512.001" xml:space="preserve" style="enable-background:new 0 0 512.001 512.001"><path style="fill:#77aad4" d="M319.731,430.743C319.731,466.089,291.347,504,256,504s-65.077-21.084-61.383-69.96	C194.617,434.04,258.719,505.907,319.731,430.743"/><ellipse style="fill:#fac15c" cx="256" cy="104.004" rx="104.004" ry="24.001"/><path style="fill:#1d71b8" d="M360,112C360,54.563,313.438,8,256,8c-57.437,0-104,46.563-104,104C152,112,246.353,71.025,360,112"/><path style="fill:#fff" d="M221.702,93.237c0,0-41.943-44.411,18.298-85.238H272c0,0,52.486,20.881,19.281,86.818	L221.702,93.237z"/><path style="fill:#f9b233" d="M320.001,432l-24-112h-80l-21.382,114.039C194.617,434.04,257.481,505.769,320.001,432"/><path style="fill:#fac15c" d="M255.997,465.324L256,320h-40L194.619,434.04C194.617,434.04,219.037,462.956,255.997,465.324z"/><path style="fill:#1d71b8" d="M320.003,436.519C320.003,471.864,291.347,504,256,504c0,0,10.088-13.715-0.003-38.676	c0,0,38.389,2.048,64.006-34.58V436.519z"/><circle style="fill:#fff" cx="256" cy="383.995" r="24.001"/><g><path style="fill:#1d1d1b" d="M209.441,312L184,439.207V440c0,39.702,32.298,72.001,72,72.001 c39.702,0,72.001-32.299,72.001-72.001v-0.793L302.559,312H209.441z M222.558,328.001h66.884l19.928,99.642l-0.142-0.095 C298.805,443.12,282.29,453.206,264,455.5v-40.511c13.786-3.562,24-16.105,24-30.989c0-17.645-14.355-32-32-32 c-17.644,0-31.999,14.355-31.999,32c0,14.884,10.214,27.427,24,30.989V455.5c-18.294-2.293-34.813-12.384-45.237-27.962 l-0.13,0.087L222.558,328.001z M256,400c-8.822,0-16-7.177-16-16.001c0-8.822,7.177-16,16-16s16,7.177,16,16 C272,392.822,264.822,400,256,400z M256,495.999c-27.458,0-50.35-19.87-55.087-45.984C215.625,463.997,235.243,472,256,472 s40.375-8.003,55.088-21.986C306.351,476.128,283.458,495.999,256,495.999z"/><path style="fill:#1d1d1b" d="M368,112C368,50.243,317.757,0,256,0S144.001,50.243,144.001,112v2.314l0.361,0.572 c0.547,2.121,1.732,4.028,3.633,5.753L233.485,256H232v16.001h16v16h-24v16.001H288V288h-24v-16h16V256h-1.485l85.49-135.361 c1.901-1.726,3.087-3.633,3.634-5.753l0.361-0.572V112z M248,103.625v16.749c-41.881-0.484-69.415-4.703-81.887-8.374 C178.585,108.328,206.12,104.109,248,103.625z M264,103.625c41.88,0.484,69.415,4.703,81.886,8.374 c-12.471,3.671-40.006,7.89-81.886,8.374V103.625L264,103.625z M350.792,96.809c-5.296-1.628-11.913-3.046-20.004-4.323 c-7.261-1.146-15.387-2.103-24.127-2.862c3.511-8.02,5.34-16.703,5.34-25.624c0-12.971-2.803-25.079-8.018-35.119 C328.483,43.08,346.16,67.795,350.792,96.809z M296,64.001c0,8.679-2.298,17.054-6.673,24.431 c-10.621-0.557-21.833-0.852-33.326-0.852s-22.705,0.295-33.326,0.852c-4.375-7.377-6.674-15.752-6.674-24.431 c0-35.43,21.548-48,40.001-48C274.452,16.001,296,28.571,296,64.001z M208.017,28.882C202.803,38.921,200,51.03,200,64.001 c0,8.922,1.828,17.604,5.34,25.624c-8.739,0.757-16.865,1.715-24.127,2.862c-8.091,1.277-14.708,2.695-20.005,4.323 C165.84,67.795,183.516,43.08,208.017,28.882z M181.213,131.513c18.134,2.863,41.608,4.558,66.787,4.855V249.02l-75.146-118.983 C175.449,130.551,178.226,131.041,181.213,131.513z M264,249.018V136.369c25.18-0.297,48.654-1.992,66.787-4.855 c2.987-0.472,5.764-0.964,8.359-1.477L264,249.018z"/></g></svg>