<svg xmlns="http://www.w3.org/2000/svg" xmlns:xlink="http://www.w3.org/1999/xlink" id="Layer_1" x="0" y="0" version="1.1" viewBox="0 0 512 512" xml:space="preserve" style="enable-background:new 0 0 512 512"><path style="fill:#1d71b8" d="M494.573,359.894c0,0-106.813,53.871-238.573,53.871S17.427,359.894,17.427,359.894	S124.24,306.024,256,306.024S494.573,359.894,494.573,359.894z"/><path style="fill:#f9b233" d="M256,306.024c32.744,0,63.945,3.33,92.351,8.329v-31.416H163.648v31.416	C192.055,309.353,223.256,306.024,256,306.024z"/><circle style="fill:#fac15c" cx="256.005" cy="113.627" r="15.391"/><path style="fill:#77aad4" d="M179.04,282.936c0-42.504,34.456-76.96,76.959-76.96s76.959,34.456,76.959,76.96H179.04z"/><g><rect style="fill:#fff" width="15.391" height="15.696" x="186.735" y="352.042"/><rect style="fill:#fff" width="15.392" height="15.696" x="217.52" y="352.042"/><rect style="fill:#fff" width="15.392" height="15.696" x="248.304" y="352.042"/><rect style="fill:#fff" width="15.392" height="15.696" x="279.088" y="352.042"/><rect style="fill:#fff" width="15.391" height="15.696" x="309.872" y="352.042"/></g><g><path style="fill:#1d1d1b" d="M498.106,352.888c-1.113-0.562-27.779-13.915-71.074-27.42 c-19.092-5.955-43.263-12.454-70.834-17.619v-32.761H340.43c-3.974-43.096-40.314-76.96-84.43-76.96s-80.455,33.864-84.43,76.96 h-15.769v32.761c-27.572,5.165-51.743,11.663-70.834,17.619c-43.294,13.506-69.959,26.858-71.074,27.42L0,359.894l13.893,7.007 c1.113,0.562,27.779,13.916,71.074,27.421c39.912,12.45,101.981,27.291,171.034,27.291s131.122-14.842,171.034-27.291 c43.294-13.506,69.959-26.859,71.074-27.421L512,359.894L498.106,352.888z M256,213.825c35.453,0,64.742,26.838,68.652,61.264 H187.347C191.258,240.663,220.546,213.825,256,213.825z M171.496,290.784h169.007v14.339c-26.041-4.164-54.615-6.947-84.503-6.947 c-29.887,0-58.462,2.783-84.503,6.947v-14.339H171.496z M256,405.919c-83.921,0-158.216-22.487-199.835-38.176h115.18v-15.696 H56.164c41.62-15.689,115.915-38.175,199.836-38.175c83.922,0,158.216,22.486,199.835,38.175h-115.18v15.696h115.181 C414.216,383.431,339.921,405.919,256,405.919z"/><path style="fill:#1d1d1b" d="M248.152,135.499v39.542h-7.543v15.696h30.783v-15.696h-7.543v-39.542 c8.963-3.226,15.391-11.811,15.391-21.872c0-12.815-10.425-23.24-23.239-23.24c-12.814,0-23.239,10.425-23.239,23.24 C232.76,123.687,239.188,132.273,248.152,135.499z M256,106.082c4.159,0,7.543,3.384,7.543,7.544s-3.384,7.544-7.543,7.544 s-7.543-3.384-7.543-7.544S251.841,106.082,256,106.082z"/></g><g><rect style="fill:#fff" width="15.695" height="32.646" x="221.231" y="231.978" transform="matrix(-0.7071 -0.7071 0.7071 -0.7071 215.486 585.859)"/><rect style="fill:#fff" width="15.695" height="32.646" x="275.107" y="231.976" transform="matrix(-0.7071 -0.7071 0.7071 -0.7071 307.4594 623.9527)"/></g></svg>