<svg xmlns="http://www.w3.org/2000/svg" viewBox="0 0 512 512" xmlns:v="https://vecta.io/nano"><circle cx="256.002" cy="256.002" r="248" fill="#fac15c"/><path d="M336 24s-91.283 37.085-136-8c0 0-105.272 20.88-104 64 0 0 78.315 51.896 248 32 0 0 77.62-18.997 136 40C480 152 425.393 36.88 336 24z" fill="#1d71b8"/><path d="M504,256c0,136.966-111.034,248-248,248S8,392.966,8,256" fill="#f9b233"/><path d="M344 480c0 13.255-58.745 24-72 24s-72-2.745-72-16 58.745-24 72-24 72 2.745 72 16zM9.55 265.402s-13.237 34.194 44.92 135.805c0 0 91.346-58.303 217.53-1.207s208-32 208-32 34.534-83.577 23.67-136.027h0S416.552 290.634 272 232c0 0-174.922-91.917-262.45 33.402z" fill="#77aad4"/><path d="M495.468 165.146l.004-.002-.085-.212c-12.676-33.36-32.378-63.96-58.37-89.952C388.668 26.63 324.38 0 256 0S123.334 26.63 74.98 74.98 0 187.62 0 256s26.63 132.668 74.98 181.02S187.62 512 256 512s132.668-26.63 181.02-74.98S512 324.38 512 256c0-31.545-5.68-62.214-16.532-90.854zm-39.312-41.7c-35.507-21.562-84.358-28.08-145.29-19.366-73.73 10.546-129.05-.45-162.476-11.532-21.695-7.192-37.224-15.345-46.235-20.76 26.063-21.843 56.065-37.67 88.3-46.765 5.913 4.395 18.466 12.353 37.567 17.597 10.396 2.854 23.72 5.125 39.803 5.125 20.86 0 46.375-3.844 76.13-15.17C374.23 44.484 402 62.6 425.703 86.294c11.486 11.484 21.658 23.93 30.453 37.152zm-137.6-99.238c-38.198 10.893-66.932 8.13-85.317 3.25-8.204-2.177-15.02-4.928-20.43-7.593C226.925 17.316 241.36 16 256 16c21.424 0 42.414 2.804 62.566 8.208zM86.294 86.294l3.446-3.364c8.88 5.72 26.533 15.736 52.75 24.516 63.767 21.36 127.992 18.572 170.642 12.472 39.974-5.717 96.088-7.19 136.425 18.255 18.77 11.84 28.34 26.3 30.874 32.46 7.148 18.814 11.9 38.566 14.116 58.88-8.344 6.187-25.807 15.45-51.56 20.1-64.96 11.757-140.217-11.46-191.9-33.008-43.652-18.195-83.884-26.94-119.6-25.956-29.03.8-55.14 7.945-77.608 21.265-16.937 10.042-29.164 22.01-37.6 32.384 2.847-59.714 27.45-115.45 70.014-158.014zM205.02 490.6c6.296-3.603 14.56-7.493 24.862-10.665 37.083-11.42 76.687-6.51 108.043 1.784C312 491.097 284.383 496 256 496c-17.35 0-34.414-1.844-50.98-5.4zm220.686-64.884c-19.165 19.164-41.007 34.672-64.673 46.21-35.764-11.87-88.056-22.43-137.035-6.915-19.582 6.203-32.664 14.71-39.67 20.154-36.607-11.4-70.15-31.564-98.034-59.45a244.21 244.21 0 0 1-19.651-22.189c22.672-10.7 101.945-40.83 202.1 3.79 33.337 14.853 63.342 20.112 89.126 20.112 25.528 0 46.918-5.157 63.293-11.266a180.79 180.79 0 0 0 22.043-9.954c-5.444 6.762-11.272 13.28-17.5 19.507zm41.076-54.743l-.538-.52c-.18.185-18.204 18.607-50.673 30.72-43.81 16.343-91.018 13.494-140.316-8.47-65.728-29.283-122.76-27.705-159.03-21.226-29.38 5.25-50.062 14.332-59.158 18.895-23.64-34.843-37.6-75.206-40.492-117.737 3.843-7.463 17.28-30.226 45.465-46.937 20.096-11.914 43.608-18.318 69.883-19.034 33.436-.908 71.447 7.41 112.998 24.73 43.245 18.026 83.89 29.68 120.807 34.64 29.832 4.007 57.355 3.68 81.805-.968 22.427-4.265 38.24-11.42 48.3-17.355.093 2.76.157 5.526.157 8.302 0 40.835-10.146 80.108-29.218 114.96z" fill="#1d1d1b"/></svg>