<svg xmlns="http://www.w3.org/2000/svg" viewBox="0 0 512.001 512.001" xmlns:v="https://vecta.io/nano"><path d="M456.29 423.025h0c0-22.076-17.896-39.972-39.972-39.972s-39.972 17.896-39.972 39.972v7.995c0 .395.103.762.116 1.154-2.603-.684-5.293-1.154-8.1-1.154-17.66 0-31.978 14.316-31.978 31.977 0 22.076-17.896 39.972-39.972 39.972s-39.972-17.896-39.972-39.972l-1.31 10.166c-4.497 17.15-20.1 29.806-38.663 29.806-22.076 0-39.972-17.896-39.972-39.972 0-17.66-14.317-31.977-31.977-31.977-2.817 0-5.508.468-8.11 1.154.014-.392.116-.76.116-1.154v-7.995c0-22.076-17.896-39.972-39.972-39.972S56.57 400.95 56.57 423.025h0c-28.604 2.5-48.578 26.7-48.578 55.96v31.978H504.87v-31.978c0-29.248-19.974-53.47-48.58-55.96z" fill="#77aad4"/><path d="M216.46 127.234l39.972-103.928 39.972 103.928z" fill="#1d71b8"/><path d="M256.432 23.306L216.46 127.234h39.972" fill="#77aad4"/><path d="M216.46 127.232h79.946V367.06H216.46z" fill="#fac15c"/><path d="M256.434 127.232h39.973V367.06h-39.973z" fill="#f9b233"/><path d="M208.467 383.048h95.935v16h-95.935zm23.983 23.995h47.966v16H232.45zm16 23.973h15.988v16H248.44zm214.567-14.2c-3.056-23.525-23.207-41.758-47.55-41.758-26.45 0-47.966 21.517-47.966 47.966v.022c-21.64.462-39.107 18.198-39.107 39.95 0 17.632-14.345 31.978-31.977 31.978s-31.978-14.345-31.978-31.978h-16c0 17.632-14.345 31.978-31.977 31.978s-31.977-14.345-31.977-31.978c0-22.04-17.932-39.97-39.972-39.97 0-26.45-21.518-47.966-47.966-47.966-24.343 0-44.495 18.232-47.55 41.758C20.925 423.572 0 448.874 0 478.986v31.978h16v-31.978c0-26.448 21.517-47.965 47.966-47.965s47.966 21.517 47.966 47.965h16c0-9.105-1.926-17.766-5.37-25.614 3.763-8.6 12.32-14.357 21.972-14.357 13.224 0 23.983 10.76 23.983 23.983 0 26.45 21.517 47.966 47.966 47.966 16.668 0 31.372-8.55 39.972-21.492 8.6 12.942 23.304 21.492 39.972 21.492 26.45 0 47.966-21.517 47.966-47.966 0-13.224 10.76-23.983 23.983-23.983a23.97 23.97 0 0 1 21.528 13.427 63.55 63.55 0 0 0-5.792 26.543h16c0-26.448 21.517-47.965 47.966-47.965S496 452.537 496 478.985v31.978h16v-31.978c.001-30.1-20.924-55.413-48.992-62.168zM113.16 438.18c-11.42-13.745-28.48-22.63-47.6-23.108 3.545-13.797 16.088-24.025 30.976-24.025 17.633 0 31.978 14.345 31.978 31.978v3.332c-6.012 2.623-11.295 6.688-15.364 11.823zm286.125-.5c-4.208-5.132-9.643-9.153-15.806-11.67v-2.972c0-17.632 14.345-31.978 31.978-31.978 14.887 0 27.43 10.227 30.976 24.025-18.872.472-35.733 9.146-47.148 22.596z" fill="#1d1d1b"/><path d="M248.44 215.173h16v16h-16zm0 31.977h16v16h-16zm0 31.98h16v16h-16zm0 31.978h16v16h-16z" fill="#fff"/><path d="M256.432 1.036l-47.966 124.71v249.3H304.4V125.75L256.432 1.036zM228.1 119.24l28.332-73.663 28.332 73.663H228.1zm20.338 15.99v63.956h15.99v-63.956h23.984V359.07h-23.984v-15.99h-15.99v15.99h-23.983V135.228h23.983z" fill="#1d1d1b"/></svg>