<svg xmlns="http://www.w3.org/2000/svg" viewBox="0 0 512.001 512.001" xmlns:v="https://vecta.io/nano"><path d="M72.025 444.002c33.673 43.617 91.325 57.206 128 56 66.24-2.178 108.7-23.502 136-56h-264zm8-288c16.026-23.352 66.98-40 120-40s102.84 17.885 119.33 40H80.025z" fill="#77aad4"/><path d="M352 188H48.026s17.053-18.7 32-32C91.285 145.982 104 140 104 140h192s17.67 9.287 32.026 24L352 188zm16 224H34.77s15.257 18 21.256 24S88 460 88 460h231.354s17.67-18 24.672-24S368 412 368 412z" fill="#fac15c"/><path d="M392 345.62L9.084 347.44S8 332.782 8 300c0-28.988 8.025-40 8.025-40h368s8.284 18.836 8 48L392 345.62z" fill="#f9b233"/><path d="M384 260.002H16s.098-21.704 16.026-48C42.68 194.4 56 180 56 180h288s13.913 9.314 24.026 32C385.16 250.44 384 260 384 260zM8 340h384s1.544 16.666-7.975 40C374.24 403.986 360 420 360 420H40s-19.974-30-23.975-40S8 340 8 340z" fill="#1d71b8"/><circle cx="448.004" cy="67.996" r="56" fill="#77aad4"/><path d="M448 124.002c-1.133 1.216 54.604-10.806 56-56 .954-30.913-25.072-56-56-56 0-.001 45.967 62.662 0 112z" fill="#1d71b8"/><path d="M431.998 52.002h16v16h-16zM416.002 76h16v16h-16zM448 4c-35.3 0-64 28.7-64 64s28.7 64 64 64 64-28.7 64-64-28.7-64-64-64zm-3.594 111.852C419.613 114.007 400 93.26 400 68a47.77 47.77 0 0 1 2.752-16H424V36h-11.74c8.088-9.023 19.533-14.967 32.35-15.866C451.8 28.46 472.44 56.657 458.68 92H440v16h10.233c-1.737 2.593-3.667 5.2-5.825 7.85zm22.058-3.55c16.43-27.34 14.358-52.148 8.855-69.306-2.365-7.376-5.503-13.844-8.656-19.218C483.886 31.074 496 48.15 496 68c.001 19.927-12.207 37.052-29.534 44.302z" fill="#1d1d1b"/><path d="M280.002 252.004H328v16h-47.997zm-184.007 80h47.997v16H95.995z" fill="#fff"/><path d="M64.004 332.003h16v16h-16z" fill="#1d1d1b"/><path d="M200.003 412.002H272v16h-71.996zM112 212h56v16h-56zm47.998-39.995h32v16h-32z" fill="#fff"/><path d="M360 427.87c25.105-33.426 40-74.94 40-119.867 0-110.28-89.72-200-200-200s-200 89.72-200 200C0 373.295 31.454 431.376 80 467.9v.1h.132c33.426 25.105 74.94 40 119.867 40 65.293 0 123.373-31.454 159.898-80H360v-.13zM200 492c-33 0-63.974-8.734-90.776-24H184v-16H85.595c-19.203-15.288-35.295-34.324-47.15-56H184v-16H30.678C21.234 357.876 16 333.54 16 308.003a184.08 184.08 0 0 1 4.39-40H264v-16H24.724c7.62-23.793 19.95-45.498 35.905-64H128v-16H76.194c32.7-29.804 76.173-48 123.806-48 18.673 0 36.7 2.804 53.695 8h-37.698v16h74.78a185.05 185.05 0 0 1 33.029 24H240v16h99.37c27.798 32.24 44.63 74.2 44.63 120 0 8.133-.537 16.143-1.564 24H160v16h219.6c-5.184 23.294-14.795 44.937-27.904 64h-55.703v16h43.37C305.603 467.167 255.648 492 200 492zm143.995-239.996h16v16h-16z" fill="#1d1d1b"/></svg>